G04 #@! TF.GenerationSoftware,KiCad,Pcbnew,9.0.6*
G04 #@! TF.CreationDate,2025-11-26T10:40:33-06:00*
G04 #@! TF.ProjectId,slu,736c752e-6b69-4636-9164-5f7063625858,rev?*
G04 #@! TF.SameCoordinates,Original*
G04 #@! TF.FileFunction,Legend,Bot*
G04 #@! TF.FilePolarity,Positive*
%FSLAX46Y46*%
G04 Gerber Fmt 4.6, Leading zero omitted, Abs format (unit mm)*
G04 Created by KiCad (PCBNEW 9.0.6) date 2025-11-26 10:40:33*
%MOMM*%
%LPD*%
G01*
G04 APERTURE LIST*
G04 Aperture macros list*
%AMRoundRect*
0 Rectangle with rounded corners*
0 $1 Rounding radius*
0 $2 $3 $4 $5 $6 $7 $8 $9 X,Y pos of 4 corners*
0 Add a 4 corners polygon primitive as box body*
4,1,4,$2,$3,$4,$5,$6,$7,$8,$9,$2,$3,0*
0 Add four circle primitives for the rounded corners*
1,1,$1+$1,$2,$3*
1,1,$1+$1,$4,$5*
1,1,$1+$1,$6,$7*
1,1,$1+$1,$8,$9*
0 Add four rect primitives between the rounded corners*
20,1,$1+$1,$2,$3,$4,$5,0*
20,1,$1+$1,$4,$5,$6,$7,0*
20,1,$1+$1,$6,$7,$8,$9,0*
20,1,$1+$1,$8,$9,$2,$3,0*%
G04 Aperture macros list end*
%ADD10C,0.187500*%
%ADD11C,0.150000*%
%ADD12C,0.300000*%
%ADD13C,0.200000*%
%ADD14C,0.100000*%
%ADD15C,0.120000*%
%ADD16C,3.000000*%
%ADD17O,1.400000X1.400000*%
%ADD18R,1.400000X1.400000*%
%ADD19C,1.600000*%
%ADD20O,1.500000X1.500000*%
%ADD21R,1.600000X1.600000*%
%ADD22O,1.600000X1.600000*%
%ADD23RoundRect,0.250000X0.650000X-1.000000X0.650000X1.000000X-0.650000X1.000000X-0.650000X-1.000000X0*%
G04 APERTURE END LIST*
D10*
X58630250Y-109133831D02*
X58677869Y-109229069D01*
X58677869Y-109229069D02*
X58677869Y-109419545D01*
X58677869Y-109419545D02*
X58630250Y-109514783D01*
X58630250Y-109514783D02*
X58535011Y-109562402D01*
X58535011Y-109562402D02*
X58487392Y-109562402D01*
X58487392Y-109562402D02*
X58392154Y-109514783D01*
X58392154Y-109514783D02*
X58344535Y-109419545D01*
X58344535Y-109419545D02*
X58344535Y-109276688D01*
X58344535Y-109276688D02*
X58296916Y-109181450D01*
X58296916Y-109181450D02*
X58201678Y-109133831D01*
X58201678Y-109133831D02*
X58154059Y-109133831D01*
X58154059Y-109133831D02*
X58058821Y-109181450D01*
X58058821Y-109181450D02*
X58011202Y-109276688D01*
X58011202Y-109276688D02*
X58011202Y-109419545D01*
X58011202Y-109419545D02*
X58058821Y-109514783D01*
X58677869Y-110133831D02*
X58630250Y-110038593D01*
X58630250Y-110038593D02*
X58582630Y-109990974D01*
X58582630Y-109990974D02*
X58487392Y-109943355D01*
X58487392Y-109943355D02*
X58201678Y-109943355D01*
X58201678Y-109943355D02*
X58106440Y-109990974D01*
X58106440Y-109990974D02*
X58058821Y-110038593D01*
X58058821Y-110038593D02*
X58011202Y-110133831D01*
X58011202Y-110133831D02*
X58011202Y-110276688D01*
X58011202Y-110276688D02*
X58058821Y-110371926D01*
X58058821Y-110371926D02*
X58106440Y-110419545D01*
X58106440Y-110419545D02*
X58201678Y-110467164D01*
X58201678Y-110467164D02*
X58487392Y-110467164D01*
X58487392Y-110467164D02*
X58582630Y-110419545D01*
X58582630Y-110419545D02*
X58630250Y-110371926D01*
X58630250Y-110371926D02*
X58677869Y-110276688D01*
X58677869Y-110276688D02*
X58677869Y-110133831D01*
X58011202Y-111324307D02*
X58677869Y-111324307D01*
X58011202Y-110895736D02*
X58535011Y-110895736D01*
X58535011Y-110895736D02*
X58630250Y-110943355D01*
X58630250Y-110943355D02*
X58677869Y-111038593D01*
X58677869Y-111038593D02*
X58677869Y-111181450D01*
X58677869Y-111181450D02*
X58630250Y-111276688D01*
X58630250Y-111276688D02*
X58582630Y-111324307D01*
X58677869Y-111800498D02*
X58011202Y-111800498D01*
X58201678Y-111800498D02*
X58106440Y-111848117D01*
X58106440Y-111848117D02*
X58058821Y-111895736D01*
X58058821Y-111895736D02*
X58011202Y-111990974D01*
X58011202Y-111990974D02*
X58011202Y-112086212D01*
X58630250Y-112848117D02*
X58677869Y-112752879D01*
X58677869Y-112752879D02*
X58677869Y-112562403D01*
X58677869Y-112562403D02*
X58630250Y-112467165D01*
X58630250Y-112467165D02*
X58582630Y-112419546D01*
X58582630Y-112419546D02*
X58487392Y-112371927D01*
X58487392Y-112371927D02*
X58201678Y-112371927D01*
X58201678Y-112371927D02*
X58106440Y-112419546D01*
X58106440Y-112419546D02*
X58058821Y-112467165D01*
X58058821Y-112467165D02*
X58011202Y-112562403D01*
X58011202Y-112562403D02*
X58011202Y-112752879D01*
X58011202Y-112752879D02*
X58058821Y-112848117D01*
X58630250Y-113657641D02*
X58677869Y-113562403D01*
X58677869Y-113562403D02*
X58677869Y-113371927D01*
X58677869Y-113371927D02*
X58630250Y-113276689D01*
X58630250Y-113276689D02*
X58535011Y-113229070D01*
X58535011Y-113229070D02*
X58154059Y-113229070D01*
X58154059Y-113229070D02*
X58058821Y-113276689D01*
X58058821Y-113276689D02*
X58011202Y-113371927D01*
X58011202Y-113371927D02*
X58011202Y-113562403D01*
X58011202Y-113562403D02*
X58058821Y-113657641D01*
X58058821Y-113657641D02*
X58154059Y-113705260D01*
X58154059Y-113705260D02*
X58249297Y-113705260D01*
X58249297Y-113705260D02*
X58344535Y-113229070D01*
X58630250Y-115324308D02*
X58677869Y-115229070D01*
X58677869Y-115229070D02*
X58677869Y-115038594D01*
X58677869Y-115038594D02*
X58630250Y-114943356D01*
X58630250Y-114943356D02*
X58582630Y-114895737D01*
X58582630Y-114895737D02*
X58487392Y-114848118D01*
X58487392Y-114848118D02*
X58201678Y-114848118D01*
X58201678Y-114848118D02*
X58106440Y-114895737D01*
X58106440Y-114895737D02*
X58058821Y-114943356D01*
X58058821Y-114943356D02*
X58011202Y-115038594D01*
X58011202Y-115038594D02*
X58011202Y-115229070D01*
X58011202Y-115229070D02*
X58058821Y-115324308D01*
X58677869Y-115895737D02*
X58630250Y-115800499D01*
X58630250Y-115800499D02*
X58582630Y-115752880D01*
X58582630Y-115752880D02*
X58487392Y-115705261D01*
X58487392Y-115705261D02*
X58201678Y-115705261D01*
X58201678Y-115705261D02*
X58106440Y-115752880D01*
X58106440Y-115752880D02*
X58058821Y-115800499D01*
X58058821Y-115800499D02*
X58011202Y-115895737D01*
X58011202Y-115895737D02*
X58011202Y-116038594D01*
X58011202Y-116038594D02*
X58058821Y-116133832D01*
X58058821Y-116133832D02*
X58106440Y-116181451D01*
X58106440Y-116181451D02*
X58201678Y-116229070D01*
X58201678Y-116229070D02*
X58487392Y-116229070D01*
X58487392Y-116229070D02*
X58582630Y-116181451D01*
X58582630Y-116181451D02*
X58630250Y-116133832D01*
X58630250Y-116133832D02*
X58677869Y-116038594D01*
X58677869Y-116038594D02*
X58677869Y-115895737D01*
X58677869Y-117086213D02*
X57677869Y-117086213D01*
X58630250Y-117086213D02*
X58677869Y-116990975D01*
X58677869Y-116990975D02*
X58677869Y-116800499D01*
X58677869Y-116800499D02*
X58630250Y-116705261D01*
X58630250Y-116705261D02*
X58582630Y-116657642D01*
X58582630Y-116657642D02*
X58487392Y-116610023D01*
X58487392Y-116610023D02*
X58201678Y-116610023D01*
X58201678Y-116610023D02*
X58106440Y-116657642D01*
X58106440Y-116657642D02*
X58058821Y-116705261D01*
X58058821Y-116705261D02*
X58011202Y-116800499D01*
X58011202Y-116800499D02*
X58011202Y-116990975D01*
X58011202Y-116990975D02*
X58058821Y-117086213D01*
X58630250Y-117943356D02*
X58677869Y-117848118D01*
X58677869Y-117848118D02*
X58677869Y-117657642D01*
X58677869Y-117657642D02*
X58630250Y-117562404D01*
X58630250Y-117562404D02*
X58535011Y-117514785D01*
X58535011Y-117514785D02*
X58154059Y-117514785D01*
X58154059Y-117514785D02*
X58058821Y-117562404D01*
X58058821Y-117562404D02*
X58011202Y-117657642D01*
X58011202Y-117657642D02*
X58011202Y-117848118D01*
X58011202Y-117848118D02*
X58058821Y-117943356D01*
X58058821Y-117943356D02*
X58154059Y-117990975D01*
X58154059Y-117990975D02*
X58249297Y-117990975D01*
X58249297Y-117990975D02*
X58344535Y-117514785D01*
X58582630Y-118419547D02*
X58630250Y-118467166D01*
X58630250Y-118467166D02*
X58677869Y-118419547D01*
X58677869Y-118419547D02*
X58630250Y-118371928D01*
X58630250Y-118371928D02*
X58582630Y-118419547D01*
X58582630Y-118419547D02*
X58677869Y-118419547D01*
X58058821Y-118419547D02*
X58106440Y-118467166D01*
X58106440Y-118467166D02*
X58154059Y-118419547D01*
X58154059Y-118419547D02*
X58106440Y-118371928D01*
X58106440Y-118371928D02*
X58058821Y-118419547D01*
X58058821Y-118419547D02*
X58154059Y-118419547D01*
X58677869Y-119657642D02*
X57677869Y-119657642D01*
X58677869Y-120086213D02*
X58154059Y-120086213D01*
X58154059Y-120086213D02*
X58058821Y-120038594D01*
X58058821Y-120038594D02*
X58011202Y-119943356D01*
X58011202Y-119943356D02*
X58011202Y-119800499D01*
X58011202Y-119800499D02*
X58058821Y-119705261D01*
X58058821Y-119705261D02*
X58106440Y-119657642D01*
X58011202Y-120419547D02*
X58011202Y-120800499D01*
X57677869Y-120562404D02*
X58535011Y-120562404D01*
X58535011Y-120562404D02*
X58630250Y-120610023D01*
X58630250Y-120610023D02*
X58677869Y-120705261D01*
X58677869Y-120705261D02*
X58677869Y-120800499D01*
X58011202Y-120990976D02*
X58011202Y-121371928D01*
X57677869Y-121133833D02*
X58535011Y-121133833D01*
X58535011Y-121133833D02*
X58630250Y-121181452D01*
X58630250Y-121181452D02*
X58677869Y-121276690D01*
X58677869Y-121276690D02*
X58677869Y-121371928D01*
X58011202Y-121705262D02*
X59011202Y-121705262D01*
X58058821Y-121705262D02*
X58011202Y-121800500D01*
X58011202Y-121800500D02*
X58011202Y-121990976D01*
X58011202Y-121990976D02*
X58058821Y-122086214D01*
X58058821Y-122086214D02*
X58106440Y-122133833D01*
X58106440Y-122133833D02*
X58201678Y-122181452D01*
X58201678Y-122181452D02*
X58487392Y-122181452D01*
X58487392Y-122181452D02*
X58582630Y-122133833D01*
X58582630Y-122133833D02*
X58630250Y-122086214D01*
X58630250Y-122086214D02*
X58677869Y-121990976D01*
X58677869Y-121990976D02*
X58677869Y-121800500D01*
X58677869Y-121800500D02*
X58630250Y-121705262D01*
X58630250Y-122562405D02*
X58677869Y-122657643D01*
X58677869Y-122657643D02*
X58677869Y-122848119D01*
X58677869Y-122848119D02*
X58630250Y-122943357D01*
X58630250Y-122943357D02*
X58535011Y-122990976D01*
X58535011Y-122990976D02*
X58487392Y-122990976D01*
X58487392Y-122990976D02*
X58392154Y-122943357D01*
X58392154Y-122943357D02*
X58344535Y-122848119D01*
X58344535Y-122848119D02*
X58344535Y-122705262D01*
X58344535Y-122705262D02*
X58296916Y-122610024D01*
X58296916Y-122610024D02*
X58201678Y-122562405D01*
X58201678Y-122562405D02*
X58154059Y-122562405D01*
X58154059Y-122562405D02*
X58058821Y-122610024D01*
X58058821Y-122610024D02*
X58011202Y-122705262D01*
X58011202Y-122705262D02*
X58011202Y-122848119D01*
X58011202Y-122848119D02*
X58058821Y-122943357D01*
X58582630Y-123419548D02*
X58630250Y-123467167D01*
X58630250Y-123467167D02*
X58677869Y-123419548D01*
X58677869Y-123419548D02*
X58630250Y-123371929D01*
X58630250Y-123371929D02*
X58582630Y-123419548D01*
X58582630Y-123419548D02*
X58677869Y-123419548D01*
X58058821Y-123419548D02*
X58106440Y-123467167D01*
X58106440Y-123467167D02*
X58154059Y-123419548D01*
X58154059Y-123419548D02*
X58106440Y-123371929D01*
X58106440Y-123371929D02*
X58058821Y-123419548D01*
X58058821Y-123419548D02*
X58154059Y-123419548D01*
X57630250Y-124610023D02*
X58915964Y-123752881D01*
X57630250Y-125657642D02*
X58915964Y-124800500D01*
X58011202Y-126419547D02*
X58820726Y-126419547D01*
X58820726Y-126419547D02*
X58915964Y-126371928D01*
X58915964Y-126371928D02*
X58963583Y-126324309D01*
X58963583Y-126324309D02*
X59011202Y-126229071D01*
X59011202Y-126229071D02*
X59011202Y-126086214D01*
X59011202Y-126086214D02*
X58963583Y-125990976D01*
X58630250Y-126419547D02*
X58677869Y-126324309D01*
X58677869Y-126324309D02*
X58677869Y-126133833D01*
X58677869Y-126133833D02*
X58630250Y-126038595D01*
X58630250Y-126038595D02*
X58582630Y-125990976D01*
X58582630Y-125990976D02*
X58487392Y-125943357D01*
X58487392Y-125943357D02*
X58201678Y-125943357D01*
X58201678Y-125943357D02*
X58106440Y-125990976D01*
X58106440Y-125990976D02*
X58058821Y-126038595D01*
X58058821Y-126038595D02*
X58011202Y-126133833D01*
X58011202Y-126133833D02*
X58011202Y-126324309D01*
X58011202Y-126324309D02*
X58058821Y-126419547D01*
X58677869Y-126895738D02*
X58011202Y-126895738D01*
X57677869Y-126895738D02*
X57725488Y-126848119D01*
X57725488Y-126848119D02*
X57773107Y-126895738D01*
X57773107Y-126895738D02*
X57725488Y-126943357D01*
X57725488Y-126943357D02*
X57677869Y-126895738D01*
X57677869Y-126895738D02*
X57773107Y-126895738D01*
X58011202Y-127229071D02*
X58011202Y-127610023D01*
X57677869Y-127371928D02*
X58535011Y-127371928D01*
X58535011Y-127371928D02*
X58630250Y-127419547D01*
X58630250Y-127419547D02*
X58677869Y-127514785D01*
X58677869Y-127514785D02*
X58677869Y-127610023D01*
X58677869Y-127943357D02*
X57677869Y-127943357D01*
X58677869Y-128371928D02*
X58154059Y-128371928D01*
X58154059Y-128371928D02*
X58058821Y-128324309D01*
X58058821Y-128324309D02*
X58011202Y-128229071D01*
X58011202Y-128229071D02*
X58011202Y-128086214D01*
X58011202Y-128086214D02*
X58058821Y-127990976D01*
X58058821Y-127990976D02*
X58106440Y-127943357D01*
X58011202Y-129276690D02*
X58677869Y-129276690D01*
X58011202Y-128848119D02*
X58535011Y-128848119D01*
X58535011Y-128848119D02*
X58630250Y-128895738D01*
X58630250Y-128895738D02*
X58677869Y-128990976D01*
X58677869Y-128990976D02*
X58677869Y-129133833D01*
X58677869Y-129133833D02*
X58630250Y-129229071D01*
X58630250Y-129229071D02*
X58582630Y-129276690D01*
X58677869Y-129752881D02*
X57677869Y-129752881D01*
X58058821Y-129752881D02*
X58011202Y-129848119D01*
X58011202Y-129848119D02*
X58011202Y-130038595D01*
X58011202Y-130038595D02*
X58058821Y-130133833D01*
X58058821Y-130133833D02*
X58106440Y-130181452D01*
X58106440Y-130181452D02*
X58201678Y-130229071D01*
X58201678Y-130229071D02*
X58487392Y-130229071D01*
X58487392Y-130229071D02*
X58582630Y-130181452D01*
X58582630Y-130181452D02*
X58630250Y-130133833D01*
X58630250Y-130133833D02*
X58677869Y-130038595D01*
X58677869Y-130038595D02*
X58677869Y-129848119D01*
X58677869Y-129848119D02*
X58630250Y-129752881D01*
X58582630Y-130657643D02*
X58630250Y-130705262D01*
X58630250Y-130705262D02*
X58677869Y-130657643D01*
X58677869Y-130657643D02*
X58630250Y-130610024D01*
X58630250Y-130610024D02*
X58582630Y-130657643D01*
X58582630Y-130657643D02*
X58677869Y-130657643D01*
X58630250Y-131562404D02*
X58677869Y-131467166D01*
X58677869Y-131467166D02*
X58677869Y-131276690D01*
X58677869Y-131276690D02*
X58630250Y-131181452D01*
X58630250Y-131181452D02*
X58582630Y-131133833D01*
X58582630Y-131133833D02*
X58487392Y-131086214D01*
X58487392Y-131086214D02*
X58201678Y-131086214D01*
X58201678Y-131086214D02*
X58106440Y-131133833D01*
X58106440Y-131133833D02*
X58058821Y-131181452D01*
X58058821Y-131181452D02*
X58011202Y-131276690D01*
X58011202Y-131276690D02*
X58011202Y-131467166D01*
X58011202Y-131467166D02*
X58058821Y-131562404D01*
X58677869Y-132133833D02*
X58630250Y-132038595D01*
X58630250Y-132038595D02*
X58582630Y-131990976D01*
X58582630Y-131990976D02*
X58487392Y-131943357D01*
X58487392Y-131943357D02*
X58201678Y-131943357D01*
X58201678Y-131943357D02*
X58106440Y-131990976D01*
X58106440Y-131990976D02*
X58058821Y-132038595D01*
X58058821Y-132038595D02*
X58011202Y-132133833D01*
X58011202Y-132133833D02*
X58011202Y-132276690D01*
X58011202Y-132276690D02*
X58058821Y-132371928D01*
X58058821Y-132371928D02*
X58106440Y-132419547D01*
X58106440Y-132419547D02*
X58201678Y-132467166D01*
X58201678Y-132467166D02*
X58487392Y-132467166D01*
X58487392Y-132467166D02*
X58582630Y-132419547D01*
X58582630Y-132419547D02*
X58630250Y-132371928D01*
X58630250Y-132371928D02*
X58677869Y-132276690D01*
X58677869Y-132276690D02*
X58677869Y-132133833D01*
X58677869Y-132895738D02*
X58011202Y-132895738D01*
X58106440Y-132895738D02*
X58058821Y-132943357D01*
X58058821Y-132943357D02*
X58011202Y-133038595D01*
X58011202Y-133038595D02*
X58011202Y-133181452D01*
X58011202Y-133181452D02*
X58058821Y-133276690D01*
X58058821Y-133276690D02*
X58154059Y-133324309D01*
X58154059Y-133324309D02*
X58677869Y-133324309D01*
X58154059Y-133324309D02*
X58058821Y-133371928D01*
X58058821Y-133371928D02*
X58011202Y-133467166D01*
X58011202Y-133467166D02*
X58011202Y-133610023D01*
X58011202Y-133610023D02*
X58058821Y-133705262D01*
X58058821Y-133705262D02*
X58154059Y-133752881D01*
X58154059Y-133752881D02*
X58677869Y-133752881D01*
X57630250Y-134943356D02*
X58915964Y-134086214D01*
X58011202Y-135276690D02*
X58868345Y-135276690D01*
X58868345Y-135276690D02*
X58963583Y-135229071D01*
X58963583Y-135229071D02*
X59011202Y-135133833D01*
X59011202Y-135133833D02*
X59011202Y-135086214D01*
X57677869Y-135276690D02*
X57725488Y-135229071D01*
X57725488Y-135229071D02*
X57773107Y-135276690D01*
X57773107Y-135276690D02*
X57725488Y-135324309D01*
X57725488Y-135324309D02*
X57677869Y-135276690D01*
X57677869Y-135276690D02*
X57773107Y-135276690D01*
X58677869Y-136181451D02*
X57677869Y-136181451D01*
X58630250Y-136181451D02*
X58677869Y-136086213D01*
X58677869Y-136086213D02*
X58677869Y-135895737D01*
X58677869Y-135895737D02*
X58630250Y-135800499D01*
X58630250Y-135800499D02*
X58582630Y-135752880D01*
X58582630Y-135752880D02*
X58487392Y-135705261D01*
X58487392Y-135705261D02*
X58201678Y-135705261D01*
X58201678Y-135705261D02*
X58106440Y-135752880D01*
X58106440Y-135752880D02*
X58058821Y-135800499D01*
X58058821Y-135800499D02*
X58011202Y-135895737D01*
X58011202Y-135895737D02*
X58011202Y-136086213D01*
X58011202Y-136086213D02*
X58058821Y-136181451D01*
X58630250Y-137038594D02*
X58677869Y-136943356D01*
X58677869Y-136943356D02*
X58677869Y-136752880D01*
X58677869Y-136752880D02*
X58630250Y-136657642D01*
X58630250Y-136657642D02*
X58535011Y-136610023D01*
X58535011Y-136610023D02*
X58154059Y-136610023D01*
X58154059Y-136610023D02*
X58058821Y-136657642D01*
X58058821Y-136657642D02*
X58011202Y-136752880D01*
X58011202Y-136752880D02*
X58011202Y-136943356D01*
X58011202Y-136943356D02*
X58058821Y-137038594D01*
X58058821Y-137038594D02*
X58154059Y-137086213D01*
X58154059Y-137086213D02*
X58249297Y-137086213D01*
X58249297Y-137086213D02*
X58344535Y-136610023D01*
X58011202Y-137371928D02*
X58011202Y-137752880D01*
X57677869Y-137514785D02*
X58535011Y-137514785D01*
X58535011Y-137514785D02*
X58630250Y-137562404D01*
X58630250Y-137562404D02*
X58677869Y-137657642D01*
X58677869Y-137657642D02*
X58677869Y-137752880D01*
X58677869Y-138229071D02*
X58630250Y-138133833D01*
X58630250Y-138133833D02*
X58582630Y-138086214D01*
X58582630Y-138086214D02*
X58487392Y-138038595D01*
X58487392Y-138038595D02*
X58201678Y-138038595D01*
X58201678Y-138038595D02*
X58106440Y-138086214D01*
X58106440Y-138086214D02*
X58058821Y-138133833D01*
X58058821Y-138133833D02*
X58011202Y-138229071D01*
X58011202Y-138229071D02*
X58011202Y-138371928D01*
X58011202Y-138371928D02*
X58058821Y-138467166D01*
X58058821Y-138467166D02*
X58106440Y-138514785D01*
X58106440Y-138514785D02*
X58201678Y-138562404D01*
X58201678Y-138562404D02*
X58487392Y-138562404D01*
X58487392Y-138562404D02*
X58582630Y-138514785D01*
X58582630Y-138514785D02*
X58630250Y-138467166D01*
X58630250Y-138467166D02*
X58677869Y-138371928D01*
X58677869Y-138371928D02*
X58677869Y-138229071D01*
X58677869Y-138990976D02*
X57677869Y-138990976D01*
X58296916Y-139086214D02*
X58677869Y-139371928D01*
X58011202Y-139371928D02*
X58392154Y-138990976D01*
X57630250Y-140514785D02*
X58915964Y-139657643D01*
X58630250Y-140800500D02*
X58677869Y-140895738D01*
X58677869Y-140895738D02*
X58677869Y-141086214D01*
X58677869Y-141086214D02*
X58630250Y-141181452D01*
X58630250Y-141181452D02*
X58535011Y-141229071D01*
X58535011Y-141229071D02*
X58487392Y-141229071D01*
X58487392Y-141229071D02*
X58392154Y-141181452D01*
X58392154Y-141181452D02*
X58344535Y-141086214D01*
X58344535Y-141086214D02*
X58344535Y-140943357D01*
X58344535Y-140943357D02*
X58296916Y-140848119D01*
X58296916Y-140848119D02*
X58201678Y-140800500D01*
X58201678Y-140800500D02*
X58154059Y-140800500D01*
X58154059Y-140800500D02*
X58058821Y-140848119D01*
X58058821Y-140848119D02*
X58011202Y-140943357D01*
X58011202Y-140943357D02*
X58011202Y-141086214D01*
X58011202Y-141086214D02*
X58058821Y-141181452D01*
X58677869Y-141800500D02*
X58630250Y-141705262D01*
X58630250Y-141705262D02*
X58535011Y-141657643D01*
X58535011Y-141657643D02*
X57677869Y-141657643D01*
X58011202Y-142610024D02*
X58677869Y-142610024D01*
X58011202Y-142181453D02*
X58535011Y-142181453D01*
X58535011Y-142181453D02*
X58630250Y-142229072D01*
X58630250Y-142229072D02*
X58677869Y-142324310D01*
X58677869Y-142324310D02*
X58677869Y-142467167D01*
X58677869Y-142467167D02*
X58630250Y-142562405D01*
X58630250Y-142562405D02*
X58582630Y-142610024D01*
X58773107Y-142848120D02*
X58773107Y-143610024D01*
X58677869Y-143990977D02*
X58630250Y-143895739D01*
X58630250Y-143895739D02*
X58535011Y-143848120D01*
X58535011Y-143848120D02*
X57677869Y-143848120D01*
X58630250Y-144752882D02*
X58677869Y-144657644D01*
X58677869Y-144657644D02*
X58677869Y-144467168D01*
X58677869Y-144467168D02*
X58630250Y-144371930D01*
X58630250Y-144371930D02*
X58535011Y-144324311D01*
X58535011Y-144324311D02*
X58154059Y-144324311D01*
X58154059Y-144324311D02*
X58058821Y-144371930D01*
X58058821Y-144371930D02*
X58011202Y-144467168D01*
X58011202Y-144467168D02*
X58011202Y-144657644D01*
X58011202Y-144657644D02*
X58058821Y-144752882D01*
X58058821Y-144752882D02*
X58154059Y-144800501D01*
X58154059Y-144800501D02*
X58249297Y-144800501D01*
X58249297Y-144800501D02*
X58344535Y-144324311D01*
X58677869Y-145657644D02*
X57677869Y-145657644D01*
X58630250Y-145657644D02*
X58677869Y-145562406D01*
X58677869Y-145562406D02*
X58677869Y-145371930D01*
X58677869Y-145371930D02*
X58630250Y-145276692D01*
X58630250Y-145276692D02*
X58582630Y-145229073D01*
X58582630Y-145229073D02*
X58487392Y-145181454D01*
X58487392Y-145181454D02*
X58201678Y-145181454D01*
X58201678Y-145181454D02*
X58106440Y-145229073D01*
X58106440Y-145229073D02*
X58058821Y-145276692D01*
X58058821Y-145276692D02*
X58011202Y-145371930D01*
X58011202Y-145371930D02*
X58011202Y-145562406D01*
X58011202Y-145562406D02*
X58058821Y-145657644D01*
X58630250Y-146086216D02*
X58677869Y-146181454D01*
X58677869Y-146181454D02*
X58677869Y-146371930D01*
X58677869Y-146371930D02*
X58630250Y-146467168D01*
X58630250Y-146467168D02*
X58535011Y-146514787D01*
X58535011Y-146514787D02*
X58487392Y-146514787D01*
X58487392Y-146514787D02*
X58392154Y-146467168D01*
X58392154Y-146467168D02*
X58344535Y-146371930D01*
X58344535Y-146371930D02*
X58344535Y-146229073D01*
X58344535Y-146229073D02*
X58296916Y-146133835D01*
X58296916Y-146133835D02*
X58201678Y-146086216D01*
X58201678Y-146086216D02*
X58154059Y-146086216D01*
X58154059Y-146086216D02*
X58058821Y-146133835D01*
X58058821Y-146133835D02*
X58011202Y-146229073D01*
X58011202Y-146229073D02*
X58011202Y-146371930D01*
X58011202Y-146371930D02*
X58058821Y-146467168D01*
X58773107Y-146705264D02*
X58773107Y-147467168D01*
X58630250Y-148133835D02*
X58677869Y-148038597D01*
X58677869Y-148038597D02*
X58677869Y-147848121D01*
X58677869Y-147848121D02*
X58630250Y-147752883D01*
X58630250Y-147752883D02*
X58582630Y-147705264D01*
X58582630Y-147705264D02*
X58487392Y-147657645D01*
X58487392Y-147657645D02*
X58201678Y-147657645D01*
X58201678Y-147657645D02*
X58106440Y-147705264D01*
X58106440Y-147705264D02*
X58058821Y-147752883D01*
X58058821Y-147752883D02*
X58011202Y-147848121D01*
X58011202Y-147848121D02*
X58011202Y-148038597D01*
X58011202Y-148038597D02*
X58058821Y-148133835D01*
D11*
X135133152Y-87006779D02*
X136133152Y-87006779D01*
X135180771Y-87006779D02*
X135133152Y-87102017D01*
X135133152Y-87102017D02*
X135133152Y-87292493D01*
X135133152Y-87292493D02*
X135180771Y-87387731D01*
X135180771Y-87387731D02*
X135228390Y-87435350D01*
X135228390Y-87435350D02*
X135323628Y-87482969D01*
X135323628Y-87482969D02*
X135609342Y-87482969D01*
X135609342Y-87482969D02*
X135704580Y-87435350D01*
X135704580Y-87435350D02*
X135752200Y-87387731D01*
X135752200Y-87387731D02*
X135799819Y-87292493D01*
X135799819Y-87292493D02*
X135799819Y-87102017D01*
X135799819Y-87102017D02*
X135752200Y-87006779D01*
X135133152Y-87816303D02*
X135799819Y-88006779D01*
X135799819Y-88006779D02*
X135323628Y-88197255D01*
X135323628Y-88197255D02*
X135799819Y-88387731D01*
X135799819Y-88387731D02*
X135133152Y-88578207D01*
X135799819Y-88959160D02*
X135133152Y-88959160D01*
X135323628Y-88959160D02*
X135228390Y-89006779D01*
X135228390Y-89006779D02*
X135180771Y-89054398D01*
X135180771Y-89054398D02*
X135133152Y-89149636D01*
X135133152Y-89149636D02*
X135133152Y-89244874D01*
X135752200Y-90292494D02*
X135799819Y-90387732D01*
X135799819Y-90387732D02*
X135799819Y-90578208D01*
X135799819Y-90578208D02*
X135752200Y-90673446D01*
X135752200Y-90673446D02*
X135656961Y-90721065D01*
X135656961Y-90721065D02*
X135609342Y-90721065D01*
X135609342Y-90721065D02*
X135514104Y-90673446D01*
X135514104Y-90673446D02*
X135466485Y-90578208D01*
X135466485Y-90578208D02*
X135466485Y-90435351D01*
X135466485Y-90435351D02*
X135418866Y-90340113D01*
X135418866Y-90340113D02*
X135323628Y-90292494D01*
X135323628Y-90292494D02*
X135276009Y-90292494D01*
X135276009Y-90292494D02*
X135180771Y-90340113D01*
X135180771Y-90340113D02*
X135133152Y-90435351D01*
X135133152Y-90435351D02*
X135133152Y-90578208D01*
X135133152Y-90578208D02*
X135180771Y-90673446D01*
X135133152Y-91054399D02*
X135799819Y-91244875D01*
X135799819Y-91244875D02*
X135323628Y-91435351D01*
X135323628Y-91435351D02*
X135799819Y-91625827D01*
X135799819Y-91625827D02*
X135133152Y-91816303D01*
X136180771Y-93244875D02*
X136133152Y-93197256D01*
X136133152Y-93197256D02*
X135990295Y-93102018D01*
X135990295Y-93102018D02*
X135895057Y-93054399D01*
X135895057Y-93054399D02*
X135752200Y-93006780D01*
X135752200Y-93006780D02*
X135514104Y-92959161D01*
X135514104Y-92959161D02*
X135323628Y-92959161D01*
X135323628Y-92959161D02*
X135085533Y-93006780D01*
X135085533Y-93006780D02*
X134942676Y-93054399D01*
X134942676Y-93054399D02*
X134847438Y-93102018D01*
X134847438Y-93102018D02*
X134704580Y-93197256D01*
X134704580Y-93197256D02*
X134656961Y-93244875D01*
X135799819Y-94054399D02*
X134799819Y-94054399D01*
X135752200Y-94054399D02*
X135799819Y-93959161D01*
X135799819Y-93959161D02*
X135799819Y-93768685D01*
X135799819Y-93768685D02*
X135752200Y-93673447D01*
X135752200Y-93673447D02*
X135704580Y-93625828D01*
X135704580Y-93625828D02*
X135609342Y-93578209D01*
X135609342Y-93578209D02*
X135323628Y-93578209D01*
X135323628Y-93578209D02*
X135228390Y-93625828D01*
X135228390Y-93625828D02*
X135180771Y-93673447D01*
X135180771Y-93673447D02*
X135133152Y-93768685D01*
X135133152Y-93768685D02*
X135133152Y-93959161D01*
X135133152Y-93959161D02*
X135180771Y-94054399D01*
X135799819Y-95054399D02*
X135799819Y-94482971D01*
X135799819Y-94768685D02*
X134799819Y-94768685D01*
X134799819Y-94768685D02*
X134942676Y-94673447D01*
X134942676Y-94673447D02*
X135037914Y-94578209D01*
X135037914Y-94578209D02*
X135085533Y-94482971D01*
X134799819Y-95387733D02*
X134799819Y-96006780D01*
X134799819Y-96006780D02*
X135180771Y-95673447D01*
X135180771Y-95673447D02*
X135180771Y-95816304D01*
X135180771Y-95816304D02*
X135228390Y-95911542D01*
X135228390Y-95911542D02*
X135276009Y-95959161D01*
X135276009Y-95959161D02*
X135371247Y-96006780D01*
X135371247Y-96006780D02*
X135609342Y-96006780D01*
X135609342Y-96006780D02*
X135704580Y-95959161D01*
X135704580Y-95959161D02*
X135752200Y-95911542D01*
X135752200Y-95911542D02*
X135799819Y-95816304D01*
X135799819Y-95816304D02*
X135799819Y-95530590D01*
X135799819Y-95530590D02*
X135752200Y-95435352D01*
X135752200Y-95435352D02*
X135704580Y-95387733D01*
X136180771Y-96340114D02*
X136133152Y-96387733D01*
X136133152Y-96387733D02*
X135990295Y-96482971D01*
X135990295Y-96482971D02*
X135895057Y-96530590D01*
X135895057Y-96530590D02*
X135752200Y-96578209D01*
X135752200Y-96578209D02*
X135514104Y-96625828D01*
X135514104Y-96625828D02*
X135323628Y-96625828D01*
X135323628Y-96625828D02*
X135085533Y-96578209D01*
X135085533Y-96578209D02*
X134942676Y-96530590D01*
X134942676Y-96530590D02*
X134847438Y-96482971D01*
X134847438Y-96482971D02*
X134704580Y-96387733D01*
X134704580Y-96387733D02*
X134656961Y-96340114D01*
X136860839Y-67247200D02*
X136765601Y-67294819D01*
X136765601Y-67294819D02*
X136575125Y-67294819D01*
X136575125Y-67294819D02*
X136479887Y-67247200D01*
X136479887Y-67247200D02*
X136432268Y-67151961D01*
X136432268Y-67151961D02*
X136432268Y-67104342D01*
X136432268Y-67104342D02*
X136479887Y-67009104D01*
X136479887Y-67009104D02*
X136575125Y-66961485D01*
X136575125Y-66961485D02*
X136717982Y-66961485D01*
X136717982Y-66961485D02*
X136813220Y-66913866D01*
X136813220Y-66913866D02*
X136860839Y-66818628D01*
X136860839Y-66818628D02*
X136860839Y-66771009D01*
X136860839Y-66771009D02*
X136813220Y-66675771D01*
X136813220Y-66675771D02*
X136717982Y-66628152D01*
X136717982Y-66628152D02*
X136575125Y-66628152D01*
X136575125Y-66628152D02*
X136479887Y-66675771D01*
X135622744Y-67247200D02*
X135717982Y-67294819D01*
X135717982Y-67294819D02*
X135908458Y-67294819D01*
X135908458Y-67294819D02*
X136003696Y-67247200D01*
X136003696Y-67247200D02*
X136051315Y-67151961D01*
X136051315Y-67151961D02*
X136051315Y-66771009D01*
X136051315Y-66771009D02*
X136003696Y-66675771D01*
X136003696Y-66675771D02*
X135908458Y-66628152D01*
X135908458Y-66628152D02*
X135717982Y-66628152D01*
X135717982Y-66628152D02*
X135622744Y-66675771D01*
X135622744Y-66675771D02*
X135575125Y-66771009D01*
X135575125Y-66771009D02*
X135575125Y-66866247D01*
X135575125Y-66866247D02*
X136051315Y-66961485D01*
X135146553Y-67294819D02*
X135146553Y-66628152D01*
X135146553Y-66818628D02*
X135098934Y-66723390D01*
X135098934Y-66723390D02*
X135051315Y-66675771D01*
X135051315Y-66675771D02*
X134956077Y-66628152D01*
X134956077Y-66628152D02*
X134860839Y-66628152D01*
X134384648Y-67294819D02*
X134479886Y-67247200D01*
X134479886Y-67247200D02*
X134527505Y-67199580D01*
X134527505Y-67199580D02*
X134575124Y-67104342D01*
X134575124Y-67104342D02*
X134575124Y-66818628D01*
X134575124Y-66818628D02*
X134527505Y-66723390D01*
X134527505Y-66723390D02*
X134479886Y-66675771D01*
X134479886Y-66675771D02*
X134384648Y-66628152D01*
X134384648Y-66628152D02*
X134241791Y-66628152D01*
X134241791Y-66628152D02*
X134146553Y-66675771D01*
X134146553Y-66675771D02*
X134098934Y-66723390D01*
X134098934Y-66723390D02*
X134051315Y-66818628D01*
X134051315Y-66818628D02*
X134051315Y-67104342D01*
X134051315Y-67104342D02*
X134098934Y-67199580D01*
X134098934Y-67199580D02*
X134146553Y-67247200D01*
X134146553Y-67247200D02*
X134241791Y-67294819D01*
X134241791Y-67294819D02*
X134384648Y-67294819D01*
X133194172Y-66628152D02*
X133194172Y-67294819D01*
X133622743Y-66628152D02*
X133622743Y-67151961D01*
X133622743Y-67151961D02*
X133575124Y-67247200D01*
X133575124Y-67247200D02*
X133479886Y-67294819D01*
X133479886Y-67294819D02*
X133337029Y-67294819D01*
X133337029Y-67294819D02*
X133241791Y-67247200D01*
X133241791Y-67247200D02*
X133194172Y-67199580D01*
X132860838Y-66628152D02*
X132479886Y-66628152D01*
X132717981Y-66294819D02*
X132717981Y-67151961D01*
X132717981Y-67151961D02*
X132670362Y-67247200D01*
X132670362Y-67247200D02*
X132575124Y-67294819D01*
X132575124Y-67294819D02*
X132479886Y-67294819D01*
X136495363Y-76894819D02*
X136590601Y-76847200D01*
X136590601Y-76847200D02*
X136638220Y-76751961D01*
X136638220Y-76751961D02*
X136638220Y-75894819D01*
X135685839Y-76894819D02*
X135685839Y-76371009D01*
X135685839Y-76371009D02*
X135733458Y-76275771D01*
X135733458Y-76275771D02*
X135828696Y-76228152D01*
X135828696Y-76228152D02*
X136019172Y-76228152D01*
X136019172Y-76228152D02*
X136114410Y-76275771D01*
X135685839Y-76847200D02*
X135781077Y-76894819D01*
X135781077Y-76894819D02*
X136019172Y-76894819D01*
X136019172Y-76894819D02*
X136114410Y-76847200D01*
X136114410Y-76847200D02*
X136162029Y-76751961D01*
X136162029Y-76751961D02*
X136162029Y-76656723D01*
X136162029Y-76656723D02*
X136114410Y-76561485D01*
X136114410Y-76561485D02*
X136019172Y-76513866D01*
X136019172Y-76513866D02*
X135781077Y-76513866D01*
X135781077Y-76513866D02*
X135685839Y-76466247D01*
X135352505Y-76228152D02*
X134971553Y-76228152D01*
X135209648Y-75894819D02*
X135209648Y-76751961D01*
X135209648Y-76751961D02*
X135162029Y-76847200D01*
X135162029Y-76847200D02*
X135066791Y-76894819D01*
X135066791Y-76894819D02*
X134971553Y-76894819D01*
X134209648Y-76847200D02*
X134304886Y-76894819D01*
X134304886Y-76894819D02*
X134495362Y-76894819D01*
X134495362Y-76894819D02*
X134590600Y-76847200D01*
X134590600Y-76847200D02*
X134638219Y-76799580D01*
X134638219Y-76799580D02*
X134685838Y-76704342D01*
X134685838Y-76704342D02*
X134685838Y-76418628D01*
X134685838Y-76418628D02*
X134638219Y-76323390D01*
X134638219Y-76323390D02*
X134590600Y-76275771D01*
X134590600Y-76275771D02*
X134495362Y-76228152D01*
X134495362Y-76228152D02*
X134304886Y-76228152D01*
X134304886Y-76228152D02*
X134209648Y-76275771D01*
X133781076Y-76894819D02*
X133781076Y-75894819D01*
X133352505Y-76894819D02*
X133352505Y-76371009D01*
X133352505Y-76371009D02*
X133400124Y-76275771D01*
X133400124Y-76275771D02*
X133495362Y-76228152D01*
X133495362Y-76228152D02*
X133638219Y-76228152D01*
X133638219Y-76228152D02*
X133733457Y-76275771D01*
X133733457Y-76275771D02*
X133781076Y-76323390D01*
D12*
X96727489Y-88078600D02*
X95584632Y-88078600D01*
X96156060Y-88650028D02*
X96156060Y-87507171D01*
D11*
X136184649Y-74372200D02*
X136279887Y-74419819D01*
X136279887Y-74419819D02*
X136470363Y-74419819D01*
X136470363Y-74419819D02*
X136565601Y-74372200D01*
X136565601Y-74372200D02*
X136613220Y-74324580D01*
X136613220Y-74324580D02*
X136660839Y-74229342D01*
X136660839Y-74229342D02*
X136660839Y-73943628D01*
X136660839Y-73943628D02*
X136613220Y-73848390D01*
X136613220Y-73848390D02*
X136565601Y-73800771D01*
X136565601Y-73800771D02*
X136470363Y-73753152D01*
X136470363Y-73753152D02*
X136279887Y-73753152D01*
X136279887Y-73753152D02*
X136184649Y-73800771D01*
X135613220Y-74419819D02*
X135708458Y-74372200D01*
X135708458Y-74372200D02*
X135756077Y-74276961D01*
X135756077Y-74276961D02*
X135756077Y-73419819D01*
X135232267Y-74419819D02*
X135232267Y-73419819D01*
X135137029Y-74038866D02*
X134851315Y-74419819D01*
X134851315Y-73753152D02*
X135232267Y-74134104D01*
X151614411Y-88767438D02*
X151709649Y-88719819D01*
X151709649Y-88719819D02*
X151852506Y-88719819D01*
X151852506Y-88719819D02*
X151995363Y-88767438D01*
X151995363Y-88767438D02*
X152090601Y-88862676D01*
X152090601Y-88862676D02*
X152138220Y-88957914D01*
X152138220Y-88957914D02*
X152185839Y-89148390D01*
X152185839Y-89148390D02*
X152185839Y-89291247D01*
X152185839Y-89291247D02*
X152138220Y-89481723D01*
X152138220Y-89481723D02*
X152090601Y-89576961D01*
X152090601Y-89576961D02*
X151995363Y-89672200D01*
X151995363Y-89672200D02*
X151852506Y-89719819D01*
X151852506Y-89719819D02*
X151757268Y-89719819D01*
X151757268Y-89719819D02*
X151614411Y-89672200D01*
X151614411Y-89672200D02*
X151566792Y-89624580D01*
X151566792Y-89624580D02*
X151566792Y-89291247D01*
X151566792Y-89291247D02*
X151757268Y-89291247D01*
X151138220Y-89719819D02*
X151138220Y-88719819D01*
X151138220Y-88719819D02*
X150566792Y-89719819D01*
X150566792Y-89719819D02*
X150566792Y-88719819D01*
X150090601Y-89719819D02*
X150090601Y-88719819D01*
X150090601Y-88719819D02*
X149852506Y-88719819D01*
X149852506Y-88719819D02*
X149709649Y-88767438D01*
X149709649Y-88767438D02*
X149614411Y-88862676D01*
X149614411Y-88862676D02*
X149566792Y-88957914D01*
X149566792Y-88957914D02*
X149519173Y-89148390D01*
X149519173Y-89148390D02*
X149519173Y-89291247D01*
X149519173Y-89291247D02*
X149566792Y-89481723D01*
X149566792Y-89481723D02*
X149614411Y-89576961D01*
X149614411Y-89576961D02*
X149709649Y-89672200D01*
X149709649Y-89672200D02*
X149852506Y-89719819D01*
X149852506Y-89719819D02*
X150090601Y-89719819D01*
D12*
X91241089Y-77131200D02*
X90098232Y-77131200D01*
D11*
X73949999Y-136354819D02*
X73949999Y-135354819D01*
X72902381Y-136259580D02*
X72950000Y-136307200D01*
X72950000Y-136307200D02*
X73092857Y-136354819D01*
X73092857Y-136354819D02*
X73188095Y-136354819D01*
X73188095Y-136354819D02*
X73330952Y-136307200D01*
X73330952Y-136307200D02*
X73426190Y-136211961D01*
X73426190Y-136211961D02*
X73473809Y-136116723D01*
X73473809Y-136116723D02*
X73521428Y-135926247D01*
X73521428Y-135926247D02*
X73521428Y-135783390D01*
X73521428Y-135783390D02*
X73473809Y-135592914D01*
X73473809Y-135592914D02*
X73426190Y-135497676D01*
X73426190Y-135497676D02*
X73330952Y-135402438D01*
X73330952Y-135402438D02*
X73188095Y-135354819D01*
X73188095Y-135354819D02*
X73092857Y-135354819D01*
X73092857Y-135354819D02*
X72950000Y-135402438D01*
X72950000Y-135402438D02*
X72902381Y-135450057D01*
X72283333Y-135354819D02*
X72092857Y-135354819D01*
X72092857Y-135354819D02*
X71997619Y-135402438D01*
X71997619Y-135402438D02*
X71902381Y-135497676D01*
X71902381Y-135497676D02*
X71854762Y-135688152D01*
X71854762Y-135688152D02*
X71854762Y-136021485D01*
X71854762Y-136021485D02*
X71902381Y-136211961D01*
X71902381Y-136211961D02*
X71997619Y-136307200D01*
X71997619Y-136307200D02*
X72092857Y-136354819D01*
X72092857Y-136354819D02*
X72283333Y-136354819D01*
X72283333Y-136354819D02*
X72378571Y-136307200D01*
X72378571Y-136307200D02*
X72473809Y-136211961D01*
X72473809Y-136211961D02*
X72521428Y-136021485D01*
X72521428Y-136021485D02*
X72521428Y-135688152D01*
X72521428Y-135688152D02*
X72473809Y-135497676D01*
X72473809Y-135497676D02*
X72378571Y-135402438D01*
X72378571Y-135402438D02*
X72283333Y-135354819D01*
X70950000Y-135354819D02*
X71426190Y-135354819D01*
X71426190Y-135354819D02*
X71473809Y-135831009D01*
X71473809Y-135831009D02*
X71426190Y-135783390D01*
X71426190Y-135783390D02*
X71330952Y-135735771D01*
X71330952Y-135735771D02*
X71092857Y-135735771D01*
X71092857Y-135735771D02*
X70997619Y-135783390D01*
X70997619Y-135783390D02*
X70950000Y-135831009D01*
X70950000Y-135831009D02*
X70902381Y-135926247D01*
X70902381Y-135926247D02*
X70902381Y-136164342D01*
X70902381Y-136164342D02*
X70950000Y-136259580D01*
X70950000Y-136259580D02*
X70997619Y-136307200D01*
X70997619Y-136307200D02*
X71092857Y-136354819D01*
X71092857Y-136354819D02*
X71330952Y-136354819D01*
X71330952Y-136354819D02*
X71426190Y-136307200D01*
X71426190Y-136307200D02*
X71473809Y-136259580D01*
D12*
X96778289Y-83735200D02*
X95635432Y-83735200D01*
D11*
X144999999Y-123079819D02*
X144999999Y-122079819D01*
X143952381Y-122984580D02*
X144000000Y-123032200D01*
X144000000Y-123032200D02*
X144142857Y-123079819D01*
X144142857Y-123079819D02*
X144238095Y-123079819D01*
X144238095Y-123079819D02*
X144380952Y-123032200D01*
X144380952Y-123032200D02*
X144476190Y-122936961D01*
X144476190Y-122936961D02*
X144523809Y-122841723D01*
X144523809Y-122841723D02*
X144571428Y-122651247D01*
X144571428Y-122651247D02*
X144571428Y-122508390D01*
X144571428Y-122508390D02*
X144523809Y-122317914D01*
X144523809Y-122317914D02*
X144476190Y-122222676D01*
X144476190Y-122222676D02*
X144380952Y-122127438D01*
X144380952Y-122127438D02*
X144238095Y-122079819D01*
X144238095Y-122079819D02*
X144142857Y-122079819D01*
X144142857Y-122079819D02*
X144000000Y-122127438D01*
X144000000Y-122127438D02*
X143952381Y-122175057D01*
X143333333Y-122079819D02*
X143142857Y-122079819D01*
X143142857Y-122079819D02*
X143047619Y-122127438D01*
X143047619Y-122127438D02*
X142952381Y-122222676D01*
X142952381Y-122222676D02*
X142904762Y-122413152D01*
X142904762Y-122413152D02*
X142904762Y-122746485D01*
X142904762Y-122746485D02*
X142952381Y-122936961D01*
X142952381Y-122936961D02*
X143047619Y-123032200D01*
X143047619Y-123032200D02*
X143142857Y-123079819D01*
X143142857Y-123079819D02*
X143333333Y-123079819D01*
X143333333Y-123079819D02*
X143428571Y-123032200D01*
X143428571Y-123032200D02*
X143523809Y-122936961D01*
X143523809Y-122936961D02*
X143571428Y-122746485D01*
X143571428Y-122746485D02*
X143571428Y-122413152D01*
X143571428Y-122413152D02*
X143523809Y-122222676D01*
X143523809Y-122222676D02*
X143428571Y-122127438D01*
X143428571Y-122127438D02*
X143333333Y-122079819D01*
X141952381Y-123079819D02*
X142523809Y-123079819D01*
X142238095Y-123079819D02*
X142238095Y-122079819D01*
X142238095Y-122079819D02*
X142333333Y-122222676D01*
X142333333Y-122222676D02*
X142428571Y-122317914D01*
X142428571Y-122317914D02*
X142523809Y-122365533D01*
X136835839Y-81897200D02*
X136740601Y-81944819D01*
X136740601Y-81944819D02*
X136550125Y-81944819D01*
X136550125Y-81944819D02*
X136454887Y-81897200D01*
X136454887Y-81897200D02*
X136407268Y-81801961D01*
X136407268Y-81801961D02*
X136407268Y-81754342D01*
X136407268Y-81754342D02*
X136454887Y-81659104D01*
X136454887Y-81659104D02*
X136550125Y-81611485D01*
X136550125Y-81611485D02*
X136692982Y-81611485D01*
X136692982Y-81611485D02*
X136788220Y-81563866D01*
X136788220Y-81563866D02*
X136835839Y-81468628D01*
X136835839Y-81468628D02*
X136835839Y-81421009D01*
X136835839Y-81421009D02*
X136788220Y-81325771D01*
X136788220Y-81325771D02*
X136692982Y-81278152D01*
X136692982Y-81278152D02*
X136550125Y-81278152D01*
X136550125Y-81278152D02*
X136454887Y-81325771D01*
X135597744Y-81897200D02*
X135692982Y-81944819D01*
X135692982Y-81944819D02*
X135883458Y-81944819D01*
X135883458Y-81944819D02*
X135978696Y-81897200D01*
X135978696Y-81897200D02*
X136026315Y-81801961D01*
X136026315Y-81801961D02*
X136026315Y-81421009D01*
X136026315Y-81421009D02*
X135978696Y-81325771D01*
X135978696Y-81325771D02*
X135883458Y-81278152D01*
X135883458Y-81278152D02*
X135692982Y-81278152D01*
X135692982Y-81278152D02*
X135597744Y-81325771D01*
X135597744Y-81325771D02*
X135550125Y-81421009D01*
X135550125Y-81421009D02*
X135550125Y-81516247D01*
X135550125Y-81516247D02*
X136026315Y-81611485D01*
X135121553Y-81944819D02*
X135121553Y-81278152D01*
X135121553Y-81468628D02*
X135073934Y-81373390D01*
X135073934Y-81373390D02*
X135026315Y-81325771D01*
X135026315Y-81325771D02*
X134931077Y-81278152D01*
X134931077Y-81278152D02*
X134835839Y-81278152D01*
X151337030Y-83744819D02*
X151813220Y-83744819D01*
X151813220Y-83744819D02*
X151860839Y-84221009D01*
X151860839Y-84221009D02*
X151813220Y-84173390D01*
X151813220Y-84173390D02*
X151717982Y-84125771D01*
X151717982Y-84125771D02*
X151479887Y-84125771D01*
X151479887Y-84125771D02*
X151384649Y-84173390D01*
X151384649Y-84173390D02*
X151337030Y-84221009D01*
X151337030Y-84221009D02*
X151289411Y-84316247D01*
X151289411Y-84316247D02*
X151289411Y-84554342D01*
X151289411Y-84554342D02*
X151337030Y-84649580D01*
X151337030Y-84649580D02*
X151384649Y-84697200D01*
X151384649Y-84697200D02*
X151479887Y-84744819D01*
X151479887Y-84744819D02*
X151717982Y-84744819D01*
X151717982Y-84744819D02*
X151813220Y-84697200D01*
X151813220Y-84697200D02*
X151860839Y-84649580D01*
X151003696Y-83744819D02*
X150670363Y-84744819D01*
X150670363Y-84744819D02*
X150337030Y-83744819D01*
X147674999Y-115904819D02*
X147674999Y-114904819D01*
X146627381Y-115809580D02*
X146675000Y-115857200D01*
X146675000Y-115857200D02*
X146817857Y-115904819D01*
X146817857Y-115904819D02*
X146913095Y-115904819D01*
X146913095Y-115904819D02*
X147055952Y-115857200D01*
X147055952Y-115857200D02*
X147151190Y-115761961D01*
X147151190Y-115761961D02*
X147198809Y-115666723D01*
X147198809Y-115666723D02*
X147246428Y-115476247D01*
X147246428Y-115476247D02*
X147246428Y-115333390D01*
X147246428Y-115333390D02*
X147198809Y-115142914D01*
X147198809Y-115142914D02*
X147151190Y-115047676D01*
X147151190Y-115047676D02*
X147055952Y-114952438D01*
X147055952Y-114952438D02*
X146913095Y-114904819D01*
X146913095Y-114904819D02*
X146817857Y-114904819D01*
X146817857Y-114904819D02*
X146675000Y-114952438D01*
X146675000Y-114952438D02*
X146627381Y-115000057D01*
X146008333Y-114904819D02*
X145817857Y-114904819D01*
X145817857Y-114904819D02*
X145722619Y-114952438D01*
X145722619Y-114952438D02*
X145627381Y-115047676D01*
X145627381Y-115047676D02*
X145579762Y-115238152D01*
X145579762Y-115238152D02*
X145579762Y-115571485D01*
X145579762Y-115571485D02*
X145627381Y-115761961D01*
X145627381Y-115761961D02*
X145722619Y-115857200D01*
X145722619Y-115857200D02*
X145817857Y-115904819D01*
X145817857Y-115904819D02*
X146008333Y-115904819D01*
X146008333Y-115904819D02*
X146103571Y-115857200D01*
X146103571Y-115857200D02*
X146198809Y-115761961D01*
X146198809Y-115761961D02*
X146246428Y-115571485D01*
X146246428Y-115571485D02*
X146246428Y-115238152D01*
X146246428Y-115238152D02*
X146198809Y-115047676D01*
X146198809Y-115047676D02*
X146103571Y-114952438D01*
X146103571Y-114952438D02*
X146008333Y-114904819D01*
X145008333Y-115333390D02*
X145103571Y-115285771D01*
X145103571Y-115285771D02*
X145151190Y-115238152D01*
X145151190Y-115238152D02*
X145198809Y-115142914D01*
X145198809Y-115142914D02*
X145198809Y-115095295D01*
X145198809Y-115095295D02*
X145151190Y-115000057D01*
X145151190Y-115000057D02*
X145103571Y-114952438D01*
X145103571Y-114952438D02*
X145008333Y-114904819D01*
X145008333Y-114904819D02*
X144817857Y-114904819D01*
X144817857Y-114904819D02*
X144722619Y-114952438D01*
X144722619Y-114952438D02*
X144675000Y-115000057D01*
X144675000Y-115000057D02*
X144627381Y-115095295D01*
X144627381Y-115095295D02*
X144627381Y-115142914D01*
X144627381Y-115142914D02*
X144675000Y-115238152D01*
X144675000Y-115238152D02*
X144722619Y-115285771D01*
X144722619Y-115285771D02*
X144817857Y-115333390D01*
X144817857Y-115333390D02*
X145008333Y-115333390D01*
X145008333Y-115333390D02*
X145103571Y-115381009D01*
X145103571Y-115381009D02*
X145151190Y-115428628D01*
X145151190Y-115428628D02*
X145198809Y-115523866D01*
X145198809Y-115523866D02*
X145198809Y-115714342D01*
X145198809Y-115714342D02*
X145151190Y-115809580D01*
X145151190Y-115809580D02*
X145103571Y-115857200D01*
X145103571Y-115857200D02*
X145008333Y-115904819D01*
X145008333Y-115904819D02*
X144817857Y-115904819D01*
X144817857Y-115904819D02*
X144722619Y-115857200D01*
X144722619Y-115857200D02*
X144675000Y-115809580D01*
X144675000Y-115809580D02*
X144627381Y-115714342D01*
X144627381Y-115714342D02*
X144627381Y-115523866D01*
X144627381Y-115523866D02*
X144675000Y-115428628D01*
X144675000Y-115428628D02*
X144722619Y-115381009D01*
X144722619Y-115381009D02*
X144817857Y-115333390D01*
X121249999Y-84754819D02*
X121249999Y-83754819D01*
X120202381Y-84659580D02*
X120250000Y-84707200D01*
X120250000Y-84707200D02*
X120392857Y-84754819D01*
X120392857Y-84754819D02*
X120488095Y-84754819D01*
X120488095Y-84754819D02*
X120630952Y-84707200D01*
X120630952Y-84707200D02*
X120726190Y-84611961D01*
X120726190Y-84611961D02*
X120773809Y-84516723D01*
X120773809Y-84516723D02*
X120821428Y-84326247D01*
X120821428Y-84326247D02*
X120821428Y-84183390D01*
X120821428Y-84183390D02*
X120773809Y-83992914D01*
X120773809Y-83992914D02*
X120726190Y-83897676D01*
X120726190Y-83897676D02*
X120630952Y-83802438D01*
X120630952Y-83802438D02*
X120488095Y-83754819D01*
X120488095Y-83754819D02*
X120392857Y-83754819D01*
X120392857Y-83754819D02*
X120250000Y-83802438D01*
X120250000Y-83802438D02*
X120202381Y-83850057D01*
X119583333Y-83754819D02*
X119392857Y-83754819D01*
X119392857Y-83754819D02*
X119297619Y-83802438D01*
X119297619Y-83802438D02*
X119202381Y-83897676D01*
X119202381Y-83897676D02*
X119154762Y-84088152D01*
X119154762Y-84088152D02*
X119154762Y-84421485D01*
X119154762Y-84421485D02*
X119202381Y-84611961D01*
X119202381Y-84611961D02*
X119297619Y-84707200D01*
X119297619Y-84707200D02*
X119392857Y-84754819D01*
X119392857Y-84754819D02*
X119583333Y-84754819D01*
X119583333Y-84754819D02*
X119678571Y-84707200D01*
X119678571Y-84707200D02*
X119773809Y-84611961D01*
X119773809Y-84611961D02*
X119821428Y-84421485D01*
X119821428Y-84421485D02*
X119821428Y-84088152D01*
X119821428Y-84088152D02*
X119773809Y-83897676D01*
X119773809Y-83897676D02*
X119678571Y-83802438D01*
X119678571Y-83802438D02*
X119583333Y-83754819D01*
X118297619Y-83754819D02*
X118488095Y-83754819D01*
X118488095Y-83754819D02*
X118583333Y-83802438D01*
X118583333Y-83802438D02*
X118630952Y-83850057D01*
X118630952Y-83850057D02*
X118726190Y-83992914D01*
X118726190Y-83992914D02*
X118773809Y-84183390D01*
X118773809Y-84183390D02*
X118773809Y-84564342D01*
X118773809Y-84564342D02*
X118726190Y-84659580D01*
X118726190Y-84659580D02*
X118678571Y-84707200D01*
X118678571Y-84707200D02*
X118583333Y-84754819D01*
X118583333Y-84754819D02*
X118392857Y-84754819D01*
X118392857Y-84754819D02*
X118297619Y-84707200D01*
X118297619Y-84707200D02*
X118250000Y-84659580D01*
X118250000Y-84659580D02*
X118202381Y-84564342D01*
X118202381Y-84564342D02*
X118202381Y-84326247D01*
X118202381Y-84326247D02*
X118250000Y-84231009D01*
X118250000Y-84231009D02*
X118297619Y-84183390D01*
X118297619Y-84183390D02*
X118392857Y-84135771D01*
X118392857Y-84135771D02*
X118583333Y-84135771D01*
X118583333Y-84135771D02*
X118678571Y-84183390D01*
X118678571Y-84183390D02*
X118726190Y-84231009D01*
X118726190Y-84231009D02*
X118773809Y-84326247D01*
X71424999Y-117554819D02*
X71424999Y-116554819D01*
X70377381Y-117459580D02*
X70425000Y-117507200D01*
X70425000Y-117507200D02*
X70567857Y-117554819D01*
X70567857Y-117554819D02*
X70663095Y-117554819D01*
X70663095Y-117554819D02*
X70805952Y-117507200D01*
X70805952Y-117507200D02*
X70901190Y-117411961D01*
X70901190Y-117411961D02*
X70948809Y-117316723D01*
X70948809Y-117316723D02*
X70996428Y-117126247D01*
X70996428Y-117126247D02*
X70996428Y-116983390D01*
X70996428Y-116983390D02*
X70948809Y-116792914D01*
X70948809Y-116792914D02*
X70901190Y-116697676D01*
X70901190Y-116697676D02*
X70805952Y-116602438D01*
X70805952Y-116602438D02*
X70663095Y-116554819D01*
X70663095Y-116554819D02*
X70567857Y-116554819D01*
X70567857Y-116554819D02*
X70425000Y-116602438D01*
X70425000Y-116602438D02*
X70377381Y-116650057D01*
X69758333Y-116554819D02*
X69567857Y-116554819D01*
X69567857Y-116554819D02*
X69472619Y-116602438D01*
X69472619Y-116602438D02*
X69377381Y-116697676D01*
X69377381Y-116697676D02*
X69329762Y-116888152D01*
X69329762Y-116888152D02*
X69329762Y-117221485D01*
X69329762Y-117221485D02*
X69377381Y-117411961D01*
X69377381Y-117411961D02*
X69472619Y-117507200D01*
X69472619Y-117507200D02*
X69567857Y-117554819D01*
X69567857Y-117554819D02*
X69758333Y-117554819D01*
X69758333Y-117554819D02*
X69853571Y-117507200D01*
X69853571Y-117507200D02*
X69948809Y-117411961D01*
X69948809Y-117411961D02*
X69996428Y-117221485D01*
X69996428Y-117221485D02*
X69996428Y-116888152D01*
X69996428Y-116888152D02*
X69948809Y-116697676D01*
X69948809Y-116697676D02*
X69853571Y-116602438D01*
X69853571Y-116602438D02*
X69758333Y-116554819D01*
X68996428Y-116554819D02*
X68377381Y-116554819D01*
X68377381Y-116554819D02*
X68710714Y-116935771D01*
X68710714Y-116935771D02*
X68567857Y-116935771D01*
X68567857Y-116935771D02*
X68472619Y-116983390D01*
X68472619Y-116983390D02*
X68425000Y-117031009D01*
X68425000Y-117031009D02*
X68377381Y-117126247D01*
X68377381Y-117126247D02*
X68377381Y-117364342D01*
X68377381Y-117364342D02*
X68425000Y-117459580D01*
X68425000Y-117459580D02*
X68472619Y-117507200D01*
X68472619Y-117507200D02*
X68567857Y-117554819D01*
X68567857Y-117554819D02*
X68853571Y-117554819D01*
X68853571Y-117554819D02*
X68948809Y-117507200D01*
X68948809Y-117507200D02*
X68996428Y-117459580D01*
X132099999Y-58129819D02*
X132099999Y-57129819D01*
X131052381Y-58034580D02*
X131100000Y-58082200D01*
X131100000Y-58082200D02*
X131242857Y-58129819D01*
X131242857Y-58129819D02*
X131338095Y-58129819D01*
X131338095Y-58129819D02*
X131480952Y-58082200D01*
X131480952Y-58082200D02*
X131576190Y-57986961D01*
X131576190Y-57986961D02*
X131623809Y-57891723D01*
X131623809Y-57891723D02*
X131671428Y-57701247D01*
X131671428Y-57701247D02*
X131671428Y-57558390D01*
X131671428Y-57558390D02*
X131623809Y-57367914D01*
X131623809Y-57367914D02*
X131576190Y-57272676D01*
X131576190Y-57272676D02*
X131480952Y-57177438D01*
X131480952Y-57177438D02*
X131338095Y-57129819D01*
X131338095Y-57129819D02*
X131242857Y-57129819D01*
X131242857Y-57129819D02*
X131100000Y-57177438D01*
X131100000Y-57177438D02*
X131052381Y-57225057D01*
X130433333Y-57129819D02*
X130242857Y-57129819D01*
X130242857Y-57129819D02*
X130147619Y-57177438D01*
X130147619Y-57177438D02*
X130052381Y-57272676D01*
X130052381Y-57272676D02*
X130004762Y-57463152D01*
X130004762Y-57463152D02*
X130004762Y-57796485D01*
X130004762Y-57796485D02*
X130052381Y-57986961D01*
X130052381Y-57986961D02*
X130147619Y-58082200D01*
X130147619Y-58082200D02*
X130242857Y-58129819D01*
X130242857Y-58129819D02*
X130433333Y-58129819D01*
X130433333Y-58129819D02*
X130528571Y-58082200D01*
X130528571Y-58082200D02*
X130623809Y-57986961D01*
X130623809Y-57986961D02*
X130671428Y-57796485D01*
X130671428Y-57796485D02*
X130671428Y-57463152D01*
X130671428Y-57463152D02*
X130623809Y-57272676D01*
X130623809Y-57272676D02*
X130528571Y-57177438D01*
X130528571Y-57177438D02*
X130433333Y-57129819D01*
X129623809Y-57225057D02*
X129576190Y-57177438D01*
X129576190Y-57177438D02*
X129480952Y-57129819D01*
X129480952Y-57129819D02*
X129242857Y-57129819D01*
X129242857Y-57129819D02*
X129147619Y-57177438D01*
X129147619Y-57177438D02*
X129100000Y-57225057D01*
X129100000Y-57225057D02*
X129052381Y-57320295D01*
X129052381Y-57320295D02*
X129052381Y-57415533D01*
X129052381Y-57415533D02*
X129100000Y-57558390D01*
X129100000Y-57558390D02*
X129671428Y-58129819D01*
X129671428Y-58129819D02*
X129052381Y-58129819D01*
X136434649Y-64097200D02*
X136529887Y-64144819D01*
X136529887Y-64144819D02*
X136720363Y-64144819D01*
X136720363Y-64144819D02*
X136815601Y-64097200D01*
X136815601Y-64097200D02*
X136863220Y-64049580D01*
X136863220Y-64049580D02*
X136910839Y-63954342D01*
X136910839Y-63954342D02*
X136910839Y-63668628D01*
X136910839Y-63668628D02*
X136863220Y-63573390D01*
X136863220Y-63573390D02*
X136815601Y-63525771D01*
X136815601Y-63525771D02*
X136720363Y-63478152D01*
X136720363Y-63478152D02*
X136529887Y-63478152D01*
X136529887Y-63478152D02*
X136434649Y-63525771D01*
X135625125Y-64097200D02*
X135720363Y-64144819D01*
X135720363Y-64144819D02*
X135910839Y-64144819D01*
X135910839Y-64144819D02*
X136006077Y-64097200D01*
X136006077Y-64097200D02*
X136053696Y-64001961D01*
X136053696Y-64001961D02*
X136053696Y-63621009D01*
X136053696Y-63621009D02*
X136006077Y-63525771D01*
X136006077Y-63525771D02*
X135910839Y-63478152D01*
X135910839Y-63478152D02*
X135720363Y-63478152D01*
X135720363Y-63478152D02*
X135625125Y-63525771D01*
X135625125Y-63525771D02*
X135577506Y-63621009D01*
X135577506Y-63621009D02*
X135577506Y-63716247D01*
X135577506Y-63716247D02*
X136053696Y-63811485D01*
X139289284Y-133054819D02*
X139289284Y-132054819D01*
X138241666Y-132959580D02*
X138289285Y-133007200D01*
X138289285Y-133007200D02*
X138432142Y-133054819D01*
X138432142Y-133054819D02*
X138527380Y-133054819D01*
X138527380Y-133054819D02*
X138670237Y-133007200D01*
X138670237Y-133007200D02*
X138765475Y-132911961D01*
X138765475Y-132911961D02*
X138813094Y-132816723D01*
X138813094Y-132816723D02*
X138860713Y-132626247D01*
X138860713Y-132626247D02*
X138860713Y-132483390D01*
X138860713Y-132483390D02*
X138813094Y-132292914D01*
X138813094Y-132292914D02*
X138765475Y-132197676D01*
X138765475Y-132197676D02*
X138670237Y-132102438D01*
X138670237Y-132102438D02*
X138527380Y-132054819D01*
X138527380Y-132054819D02*
X138432142Y-132054819D01*
X138432142Y-132054819D02*
X138289285Y-132102438D01*
X138289285Y-132102438D02*
X138241666Y-132150057D01*
X137813094Y-133054819D02*
X137813094Y-132054819D01*
X136813095Y-133054819D02*
X137384523Y-133054819D01*
X137098809Y-133054819D02*
X137098809Y-132054819D01*
X137098809Y-132054819D02*
X137194047Y-132197676D01*
X137194047Y-132197676D02*
X137289285Y-132292914D01*
X137289285Y-132292914D02*
X137384523Y-132340533D01*
X77099999Y-57004819D02*
X77099999Y-56004819D01*
X76052381Y-56909580D02*
X76100000Y-56957200D01*
X76100000Y-56957200D02*
X76242857Y-57004819D01*
X76242857Y-57004819D02*
X76338095Y-57004819D01*
X76338095Y-57004819D02*
X76480952Y-56957200D01*
X76480952Y-56957200D02*
X76576190Y-56861961D01*
X76576190Y-56861961D02*
X76623809Y-56766723D01*
X76623809Y-56766723D02*
X76671428Y-56576247D01*
X76671428Y-56576247D02*
X76671428Y-56433390D01*
X76671428Y-56433390D02*
X76623809Y-56242914D01*
X76623809Y-56242914D02*
X76576190Y-56147676D01*
X76576190Y-56147676D02*
X76480952Y-56052438D01*
X76480952Y-56052438D02*
X76338095Y-56004819D01*
X76338095Y-56004819D02*
X76242857Y-56004819D01*
X76242857Y-56004819D02*
X76100000Y-56052438D01*
X76100000Y-56052438D02*
X76052381Y-56100057D01*
X75433333Y-56004819D02*
X75242857Y-56004819D01*
X75242857Y-56004819D02*
X75147619Y-56052438D01*
X75147619Y-56052438D02*
X75052381Y-56147676D01*
X75052381Y-56147676D02*
X75004762Y-56338152D01*
X75004762Y-56338152D02*
X75004762Y-56671485D01*
X75004762Y-56671485D02*
X75052381Y-56861961D01*
X75052381Y-56861961D02*
X75147619Y-56957200D01*
X75147619Y-56957200D02*
X75242857Y-57004819D01*
X75242857Y-57004819D02*
X75433333Y-57004819D01*
X75433333Y-57004819D02*
X75528571Y-56957200D01*
X75528571Y-56957200D02*
X75623809Y-56861961D01*
X75623809Y-56861961D02*
X75671428Y-56671485D01*
X75671428Y-56671485D02*
X75671428Y-56338152D01*
X75671428Y-56338152D02*
X75623809Y-56147676D01*
X75623809Y-56147676D02*
X75528571Y-56052438D01*
X75528571Y-56052438D02*
X75433333Y-56004819D01*
X74147619Y-56338152D02*
X74147619Y-57004819D01*
X74385714Y-55957200D02*
X74623809Y-56671485D01*
X74623809Y-56671485D02*
X74004762Y-56671485D01*
X85724999Y-85379819D02*
X85724999Y-84379819D01*
X84677381Y-85284580D02*
X84725000Y-85332200D01*
X84725000Y-85332200D02*
X84867857Y-85379819D01*
X84867857Y-85379819D02*
X84963095Y-85379819D01*
X84963095Y-85379819D02*
X85105952Y-85332200D01*
X85105952Y-85332200D02*
X85201190Y-85236961D01*
X85201190Y-85236961D02*
X85248809Y-85141723D01*
X85248809Y-85141723D02*
X85296428Y-84951247D01*
X85296428Y-84951247D02*
X85296428Y-84808390D01*
X85296428Y-84808390D02*
X85248809Y-84617914D01*
X85248809Y-84617914D02*
X85201190Y-84522676D01*
X85201190Y-84522676D02*
X85105952Y-84427438D01*
X85105952Y-84427438D02*
X84963095Y-84379819D01*
X84963095Y-84379819D02*
X84867857Y-84379819D01*
X84867857Y-84379819D02*
X84725000Y-84427438D01*
X84725000Y-84427438D02*
X84677381Y-84475057D01*
X84058333Y-84379819D02*
X83867857Y-84379819D01*
X83867857Y-84379819D02*
X83772619Y-84427438D01*
X83772619Y-84427438D02*
X83677381Y-84522676D01*
X83677381Y-84522676D02*
X83629762Y-84713152D01*
X83629762Y-84713152D02*
X83629762Y-85046485D01*
X83629762Y-85046485D02*
X83677381Y-85236961D01*
X83677381Y-85236961D02*
X83772619Y-85332200D01*
X83772619Y-85332200D02*
X83867857Y-85379819D01*
X83867857Y-85379819D02*
X84058333Y-85379819D01*
X84058333Y-85379819D02*
X84153571Y-85332200D01*
X84153571Y-85332200D02*
X84248809Y-85236961D01*
X84248809Y-85236961D02*
X84296428Y-85046485D01*
X84296428Y-85046485D02*
X84296428Y-84713152D01*
X84296428Y-84713152D02*
X84248809Y-84522676D01*
X84248809Y-84522676D02*
X84153571Y-84427438D01*
X84153571Y-84427438D02*
X84058333Y-84379819D01*
X83296428Y-84379819D02*
X82629762Y-84379819D01*
X82629762Y-84379819D02*
X83058333Y-85379819D01*
X136613220Y-71153152D02*
X136613220Y-72153152D01*
X136613220Y-71200771D02*
X136517982Y-71153152D01*
X136517982Y-71153152D02*
X136327506Y-71153152D01*
X136327506Y-71153152D02*
X136232268Y-71200771D01*
X136232268Y-71200771D02*
X136184649Y-71248390D01*
X136184649Y-71248390D02*
X136137030Y-71343628D01*
X136137030Y-71343628D02*
X136137030Y-71629342D01*
X136137030Y-71629342D02*
X136184649Y-71724580D01*
X136184649Y-71724580D02*
X136232268Y-71772200D01*
X136232268Y-71772200D02*
X136327506Y-71819819D01*
X136327506Y-71819819D02*
X136517982Y-71819819D01*
X136517982Y-71819819D02*
X136613220Y-71772200D01*
X135565601Y-71819819D02*
X135660839Y-71772200D01*
X135660839Y-71772200D02*
X135708458Y-71676961D01*
X135708458Y-71676961D02*
X135708458Y-70819819D01*
X136334649Y-69072200D02*
X136429887Y-69119819D01*
X136429887Y-69119819D02*
X136620363Y-69119819D01*
X136620363Y-69119819D02*
X136715601Y-69072200D01*
X136715601Y-69072200D02*
X136763220Y-69024580D01*
X136763220Y-69024580D02*
X136810839Y-68929342D01*
X136810839Y-68929342D02*
X136810839Y-68643628D01*
X136810839Y-68643628D02*
X136763220Y-68548390D01*
X136763220Y-68548390D02*
X136715601Y-68500771D01*
X136715601Y-68500771D02*
X136620363Y-68453152D01*
X136620363Y-68453152D02*
X136429887Y-68453152D01*
X136429887Y-68453152D02*
X136334649Y-68500771D01*
X135906077Y-68453152D02*
X135906077Y-69453152D01*
X135906077Y-68500771D02*
X135810839Y-68453152D01*
X135810839Y-68453152D02*
X135620363Y-68453152D01*
X135620363Y-68453152D02*
X135525125Y-68500771D01*
X135525125Y-68500771D02*
X135477506Y-68548390D01*
X135477506Y-68548390D02*
X135429887Y-68643628D01*
X135429887Y-68643628D02*
X135429887Y-68929342D01*
X135429887Y-68929342D02*
X135477506Y-69024580D01*
X135477506Y-69024580D02*
X135525125Y-69072200D01*
X135525125Y-69072200D02*
X135620363Y-69119819D01*
X135620363Y-69119819D02*
X135810839Y-69119819D01*
X135810839Y-69119819D02*
X135906077Y-69072200D01*
X136264411Y-83667438D02*
X136359649Y-83619819D01*
X136359649Y-83619819D02*
X136502506Y-83619819D01*
X136502506Y-83619819D02*
X136645363Y-83667438D01*
X136645363Y-83667438D02*
X136740601Y-83762676D01*
X136740601Y-83762676D02*
X136788220Y-83857914D01*
X136788220Y-83857914D02*
X136835839Y-84048390D01*
X136835839Y-84048390D02*
X136835839Y-84191247D01*
X136835839Y-84191247D02*
X136788220Y-84381723D01*
X136788220Y-84381723D02*
X136740601Y-84476961D01*
X136740601Y-84476961D02*
X136645363Y-84572200D01*
X136645363Y-84572200D02*
X136502506Y-84619819D01*
X136502506Y-84619819D02*
X136407268Y-84619819D01*
X136407268Y-84619819D02*
X136264411Y-84572200D01*
X136264411Y-84572200D02*
X136216792Y-84524580D01*
X136216792Y-84524580D02*
X136216792Y-84191247D01*
X136216792Y-84191247D02*
X136407268Y-84191247D01*
X135788220Y-84619819D02*
X135788220Y-83619819D01*
X135788220Y-83619819D02*
X135216792Y-84619819D01*
X135216792Y-84619819D02*
X135216792Y-83619819D01*
X134740601Y-84619819D02*
X134740601Y-83619819D01*
X134740601Y-83619819D02*
X134502506Y-83619819D01*
X134502506Y-83619819D02*
X134359649Y-83667438D01*
X134359649Y-83667438D02*
X134264411Y-83762676D01*
X134264411Y-83762676D02*
X134216792Y-83857914D01*
X134216792Y-83857914D02*
X134169173Y-84048390D01*
X134169173Y-84048390D02*
X134169173Y-84191247D01*
X134169173Y-84191247D02*
X134216792Y-84381723D01*
X134216792Y-84381723D02*
X134264411Y-84476961D01*
X134264411Y-84476961D02*
X134359649Y-84572200D01*
X134359649Y-84572200D02*
X134502506Y-84619819D01*
X134502506Y-84619819D02*
X134740601Y-84619819D01*
D12*
X91241089Y-79645800D02*
X90098232Y-79645800D01*
X90669660Y-80217228D02*
X90669660Y-79074371D01*
D11*
X136670363Y-79494819D02*
X136765601Y-79447200D01*
X136765601Y-79447200D02*
X136813220Y-79399580D01*
X136813220Y-79399580D02*
X136860839Y-79304342D01*
X136860839Y-79304342D02*
X136860839Y-79018628D01*
X136860839Y-79018628D02*
X136813220Y-78923390D01*
X136813220Y-78923390D02*
X136765601Y-78875771D01*
X136765601Y-78875771D02*
X136670363Y-78828152D01*
X136670363Y-78828152D02*
X136527506Y-78828152D01*
X136527506Y-78828152D02*
X136432268Y-78875771D01*
X136432268Y-78875771D02*
X136384649Y-78923390D01*
X136384649Y-78923390D02*
X136337030Y-79018628D01*
X136337030Y-79018628D02*
X136337030Y-79304342D01*
X136337030Y-79304342D02*
X136384649Y-79399580D01*
X136384649Y-79399580D02*
X136432268Y-79447200D01*
X136432268Y-79447200D02*
X136527506Y-79494819D01*
X136527506Y-79494819D02*
X136670363Y-79494819D01*
X135527506Y-79447200D02*
X135622744Y-79494819D01*
X135622744Y-79494819D02*
X135813220Y-79494819D01*
X135813220Y-79494819D02*
X135908458Y-79447200D01*
X135908458Y-79447200D02*
X135956077Y-79351961D01*
X135956077Y-79351961D02*
X135956077Y-78971009D01*
X135956077Y-78971009D02*
X135908458Y-78875771D01*
X135908458Y-78875771D02*
X135813220Y-78828152D01*
X135813220Y-78828152D02*
X135622744Y-78828152D01*
X135622744Y-78828152D02*
X135527506Y-78875771D01*
X135527506Y-78875771D02*
X135479887Y-78971009D01*
X135479887Y-78971009D02*
X135479887Y-79066247D01*
X135479887Y-79066247D02*
X135956077Y-79161485D01*
D13*
X88869990Y-80909800D02*
X88822371Y-80766943D01*
X88822371Y-80766943D02*
X88774752Y-80719324D01*
X88774752Y-80719324D02*
X88679514Y-80671705D01*
X88679514Y-80671705D02*
X88536657Y-80671705D01*
X88536657Y-80671705D02*
X88441419Y-80719324D01*
X88441419Y-80719324D02*
X88393800Y-80766943D01*
X88393800Y-80766943D02*
X88346180Y-80862181D01*
X88346180Y-80862181D02*
X88346180Y-81243133D01*
X88346180Y-81243133D02*
X89346180Y-81243133D01*
X89346180Y-81243133D02*
X89346180Y-80909800D01*
X89346180Y-80909800D02*
X89298561Y-80814562D01*
X89298561Y-80814562D02*
X89250942Y-80766943D01*
X89250942Y-80766943D02*
X89155704Y-80719324D01*
X89155704Y-80719324D02*
X89060466Y-80719324D01*
X89060466Y-80719324D02*
X88965228Y-80766943D01*
X88965228Y-80766943D02*
X88917609Y-80814562D01*
X88917609Y-80814562D02*
X88869990Y-80909800D01*
X88869990Y-80909800D02*
X88869990Y-81243133D01*
X88631895Y-80290752D02*
X88631895Y-79814562D01*
X88346180Y-80385990D02*
X89346180Y-80052657D01*
X89346180Y-80052657D02*
X88346180Y-79719324D01*
X89346180Y-79528847D02*
X89346180Y-78957419D01*
X88346180Y-79243133D02*
X89346180Y-79243133D01*
X89346180Y-78766942D02*
X89346180Y-78195514D01*
X88346180Y-78481228D02*
X89346180Y-78481228D01*
X88869990Y-77862180D02*
X88869990Y-77528847D01*
X88346180Y-77385990D02*
X88346180Y-77862180D01*
X88346180Y-77862180D02*
X89346180Y-77862180D01*
X89346180Y-77862180D02*
X89346180Y-77385990D01*
X88346180Y-76385990D02*
X88822371Y-76719323D01*
X88346180Y-76957418D02*
X89346180Y-76957418D01*
X89346180Y-76957418D02*
X89346180Y-76576466D01*
X89346180Y-76576466D02*
X89298561Y-76481228D01*
X89298561Y-76481228D02*
X89250942Y-76433609D01*
X89250942Y-76433609D02*
X89155704Y-76385990D01*
X89155704Y-76385990D02*
X89012847Y-76385990D01*
X89012847Y-76385990D02*
X88917609Y-76433609D01*
X88917609Y-76433609D02*
X88869990Y-76481228D01*
X88869990Y-76481228D02*
X88822371Y-76576466D01*
X88822371Y-76576466D02*
X88822371Y-76957418D01*
X88822371Y-75766942D02*
X88346180Y-75766942D01*
X89346180Y-76100275D02*
X88822371Y-75766942D01*
X88822371Y-75766942D02*
X89346180Y-75433609D01*
X98851819Y-83875810D02*
X97851819Y-83875810D01*
X97851819Y-83875810D02*
X97851819Y-84113905D01*
X97851819Y-84113905D02*
X97899438Y-84256762D01*
X97899438Y-84256762D02*
X97994676Y-84352000D01*
X97994676Y-84352000D02*
X98089914Y-84399619D01*
X98089914Y-84399619D02*
X98280390Y-84447238D01*
X98280390Y-84447238D02*
X98423247Y-84447238D01*
X98423247Y-84447238D02*
X98613723Y-84399619D01*
X98613723Y-84399619D02*
X98708961Y-84352000D01*
X98708961Y-84352000D02*
X98804200Y-84256762D01*
X98804200Y-84256762D02*
X98851819Y-84113905D01*
X98851819Y-84113905D02*
X98851819Y-83875810D01*
X98851819Y-84875810D02*
X97851819Y-84875810D01*
X97851819Y-85542476D02*
X97851819Y-85732952D01*
X97851819Y-85732952D02*
X97899438Y-85828190D01*
X97899438Y-85828190D02*
X97994676Y-85923428D01*
X97994676Y-85923428D02*
X98185152Y-85971047D01*
X98185152Y-85971047D02*
X98518485Y-85971047D01*
X98518485Y-85971047D02*
X98708961Y-85923428D01*
X98708961Y-85923428D02*
X98804200Y-85828190D01*
X98804200Y-85828190D02*
X98851819Y-85732952D01*
X98851819Y-85732952D02*
X98851819Y-85542476D01*
X98851819Y-85542476D02*
X98804200Y-85447238D01*
X98804200Y-85447238D02*
X98708961Y-85352000D01*
X98708961Y-85352000D02*
X98518485Y-85304381D01*
X98518485Y-85304381D02*
X98185152Y-85304381D01*
X98185152Y-85304381D02*
X97994676Y-85352000D01*
X97994676Y-85352000D02*
X97899438Y-85447238D01*
X97899438Y-85447238D02*
X97851819Y-85542476D01*
X98851819Y-86399619D02*
X97851819Y-86399619D01*
X97851819Y-86399619D02*
X97851819Y-86637714D01*
X97851819Y-86637714D02*
X97899438Y-86780571D01*
X97899438Y-86780571D02*
X97994676Y-86875809D01*
X97994676Y-86875809D02*
X98089914Y-86923428D01*
X98089914Y-86923428D02*
X98280390Y-86971047D01*
X98280390Y-86971047D02*
X98423247Y-86971047D01*
X98423247Y-86971047D02*
X98613723Y-86923428D01*
X98613723Y-86923428D02*
X98708961Y-86875809D01*
X98708961Y-86875809D02*
X98804200Y-86780571D01*
X98804200Y-86780571D02*
X98851819Y-86637714D01*
X98851819Y-86637714D02*
X98851819Y-86399619D01*
X98328009Y-87399619D02*
X98328009Y-87732952D01*
X98851819Y-87875809D02*
X98851819Y-87399619D01*
X98851819Y-87399619D02*
X97851819Y-87399619D01*
X97851819Y-87399619D02*
X97851819Y-87875809D01*
G04 #@! TO.C,BATTERY*
D14*
X95295800Y-148575200D02*
X65295800Y-148575200D01*
X65295800Y-48875200D01*
X95295800Y-48875200D01*
X95295800Y-148575200D01*
D15*
G04 #@! TO.C,a1*
X137250000Y-52300000D02*
X142330000Y-52300000D01*
X137250000Y-90530000D02*
X137250000Y-52300000D01*
X137250000Y-95740000D02*
X137250000Y-93070000D01*
X139920000Y-54970000D02*
X137250000Y-54970000D01*
X139920000Y-90530000D02*
X137250000Y-90530000D01*
X139920000Y-90530000D02*
X139920000Y-54970000D01*
X139920000Y-90530000D02*
X139920000Y-93070000D01*
X139920000Y-93070000D02*
X137250000Y-93070000D01*
X142330000Y-49760000D02*
X142330000Y-54760000D01*
X150210000Y-49760000D02*
X142330000Y-49760000D01*
X150210000Y-54800000D02*
X150210000Y-49800000D01*
X152620000Y-54970000D02*
X155290000Y-54970000D01*
X152620000Y-93070000D02*
X152620000Y-54970000D01*
X152620000Y-93070000D02*
X155290000Y-93070000D01*
X155290000Y-52300000D02*
X150210000Y-52300000D01*
X155290000Y-52300000D02*
X155290000Y-95740000D01*
X155290000Y-95740000D02*
X137250000Y-95740000D01*
G04 #@! TO.C,DIODE*
X91822000Y-89304600D02*
X91822000Y-83794600D01*
X95122000Y-89304600D02*
X91822000Y-89304600D01*
X95122000Y-89304600D02*
X95122000Y-83794600D01*
G04 #@! TD*
%LPC*%
D16*
G04 #@! TO.C,REF\u002A\u002A*
X67110000Y-50670000D03*
G04 #@! TD*
G04 #@! TO.C,REF\u002A\u002A*
X93210000Y-146460000D03*
G04 #@! TD*
D17*
G04 #@! TO.C,BATTERY*
X93395800Y-77165200D03*
D18*
X93395800Y-79705200D03*
G04 #@! TD*
D19*
G04 #@! TO.C,sw1*
X123342400Y-143738600D03*
D20*
X120802400Y-143738600D03*
D21*
X118262400Y-143738600D03*
G04 #@! TD*
G04 #@! TO.C,J1*
X141260000Y-53600000D03*
D19*
X143800000Y-53600000D03*
X146340000Y-53600000D03*
X148880000Y-53600000D03*
X151420000Y-53600000D03*
G04 #@! TD*
D22*
G04 #@! TO.C,a1*
X138650000Y-91800000D03*
X138650000Y-89260000D03*
X138650000Y-86720000D03*
D21*
X138650000Y-84180000D03*
D22*
X138650000Y-81640000D03*
X138650000Y-79100000D03*
X138650000Y-76560000D03*
X138650000Y-74020000D03*
X138650000Y-71480000D03*
X138650000Y-68940000D03*
X138650000Y-66400000D03*
X138650000Y-63860000D03*
X138650000Y-61320000D03*
X138650000Y-58780000D03*
X138650000Y-56240000D03*
X153890000Y-56240000D03*
X153890000Y-58780000D03*
X153890000Y-61320000D03*
X153890000Y-63860000D03*
X153890000Y-66400000D03*
X153890000Y-68940000D03*
X153890000Y-71480000D03*
X153890000Y-74020000D03*
X153890000Y-76560000D03*
X153890000Y-79100000D03*
X153890000Y-81640000D03*
X153890000Y-84180000D03*
X153890000Y-86720000D03*
D21*
X153890000Y-89260000D03*
D22*
X153890000Y-91800000D03*
G04 #@! TD*
D23*
G04 #@! TO.C,DIODE*
X93472000Y-87794600D03*
X93472000Y-83794600D03*
G04 #@! TD*
%LPD*%
M02*
