G04 #@! TF.GenerationSoftware,KiCad,Pcbnew,9.0.6*
G04 #@! TF.CreationDate,2025-11-26T10:40:33-06:00*
G04 #@! TF.ProjectId,slu,736c752e-6b69-4636-9164-5f7063625858,rev?*
G04 #@! TF.SameCoordinates,Original*
G04 #@! TF.FileFunction,Copper,L2,Bot*
G04 #@! TF.FilePolarity,Positive*
%FSLAX46Y46*%
G04 Gerber Fmt 4.6, Leading zero omitted, Abs format (unit mm)*
G04 Created by KiCad (PCBNEW 9.0.6) date 2025-11-26 10:40:33*
%MOMM*%
%LPD*%
G01*
G04 APERTURE LIST*
G04 Aperture macros list*
%AMRoundRect*
0 Rectangle with rounded corners*
0 $1 Rounding radius*
0 $2 $3 $4 $5 $6 $7 $8 $9 X,Y pos of 4 corners*
0 Add a 4 corners polygon primitive as box body*
4,1,4,$2,$3,$4,$5,$6,$7,$8,$9,$2,$3,0*
0 Add four circle primitives for the rounded corners*
1,1,$1+$1,$2,$3*
1,1,$1+$1,$4,$5*
1,1,$1+$1,$6,$7*
1,1,$1+$1,$8,$9*
0 Add four rect primitives between the rounded corners*
20,1,$1+$1,$2,$3,$4,$5,0*
20,1,$1+$1,$4,$5,$6,$7,0*
20,1,$1+$1,$6,$7,$8,$9,0*
20,1,$1+$1,$8,$9,$2,$3,0*%
G04 Aperture macros list end*
G04 #@! TA.AperFunction,SMDPad,CuDef*
%ADD10O,1.400000X1.400000*%
G04 #@! TD*
G04 #@! TA.AperFunction,SMDPad,CuDef*
%ADD11R,1.400000X1.400000*%
G04 #@! TD*
G04 #@! TA.AperFunction,ComponentPad*
%ADD12C,1.600000*%
G04 #@! TD*
G04 #@! TA.AperFunction,ComponentPad*
%ADD13O,1.500000X1.500000*%
G04 #@! TD*
G04 #@! TA.AperFunction,ComponentPad*
%ADD14R,1.600000X1.600000*%
G04 #@! TD*
G04 #@! TA.AperFunction,ComponentPad*
%ADD15O,1.600000X1.600000*%
G04 #@! TD*
G04 #@! TA.AperFunction,SMDPad,CuDef*
%ADD16RoundRect,0.250000X0.650000X-1.000000X0.650000X1.000000X-0.650000X1.000000X-0.650000X-1.000000X0*%
G04 #@! TD*
G04 #@! TA.AperFunction,ViaPad*
%ADD17C,0.600000*%
G04 #@! TD*
G04 #@! TA.AperFunction,ViaPad*
%ADD18C,1.200000*%
G04 #@! TD*
G04 #@! TA.AperFunction,ViaPad*
%ADD19C,1.000000*%
G04 #@! TD*
G04 #@! TA.AperFunction,ViaPad*
%ADD20C,0.800000*%
G04 #@! TD*
G04 #@! TA.AperFunction,Conductor*
%ADD21C,0.200000*%
G04 #@! TD*
G04 #@! TA.AperFunction,Conductor*
%ADD22C,0.800000*%
G04 #@! TD*
G04 #@! TA.AperFunction,Conductor*
%ADD23C,1.000000*%
G04 #@! TD*
G04 #@! TA.AperFunction,Conductor*
%ADD24C,0.600000*%
G04 #@! TD*
G04 #@! TA.AperFunction,Conductor*
%ADD25C,0.300000*%
G04 #@! TD*
G04 #@! TA.AperFunction,Conductor*
%ADD26C,0.400000*%
G04 #@! TD*
G04 APERTURE END LIST*
D10*
G04 #@! TO.P,BATTERY,2,-*
G04 #@! TO.N,GND*
X93395800Y-77165200D03*
D11*
G04 #@! TO.P,BATTERY,1,+*
G04 #@! TO.N,/battery power*
X93395800Y-79705200D03*
G04 #@! TD*
D12*
G04 #@! TO.P,sw1,1,A*
G04 #@! TO.N,+5V*
X123342400Y-143738600D03*
D13*
G04 #@! TO.P,sw1,2,B*
G04 #@! TO.N,Net-(a1-D13)*
X120802400Y-143738600D03*
D14*
G04 #@! TO.P,sw1,3,C*
G04 #@! TO.N,GND*
X118262400Y-143738600D03*
G04 #@! TD*
G04 #@! TO.P,J1,1,Pin_1*
G04 #@! TO.N,GND*
X141260000Y-53600000D03*
D12*
G04 #@! TO.P,J1,2,Pin_2*
G04 #@! TO.N,/LCD_SERIAL*
X143800000Y-53600000D03*
G04 #@! TO.P,J1,3,Pin_3*
G04 #@! TO.N,/LCD_CLOCK*
X146340000Y-53600000D03*
G04 #@! TO.P,J1,4,Pin_4*
G04 #@! TO.N,/LCD_LATCH*
X148880000Y-53600000D03*
G04 #@! TO.P,J1,5,Pin_5*
G04 #@! TO.N,+5V*
X151420000Y-53600000D03*
G04 #@! TD*
D15*
G04 #@! TO.P,a1,1,D1/TX*
G04 #@! TO.N,unconnected-(a1-D1{slash}TX-Pad1)*
X138650000Y-91800000D03*
G04 #@! TO.P,a1,2,D0/RX*
G04 #@! TO.N,unconnected-(a1-D0{slash}RX-Pad2)*
X138650000Y-89260000D03*
G04 #@! TO.P,a1,3,~{RESET}*
G04 #@! TO.N,unconnected-(a1-~{RESET}-Pad3)*
X138650000Y-86720000D03*
D14*
G04 #@! TO.P,a1,4,GND*
G04 #@! TO.N,GND*
X138650000Y-84180000D03*
D15*
G04 #@! TO.P,a1,5,D2*
G04 #@! TO.N,/SERIAL*
X138650000Y-81640000D03*
G04 #@! TO.P,a1,6,D3*
G04 #@! TO.N,/OE*
X138650000Y-79100000D03*
G04 #@! TO.P,a1,7,D4*
G04 #@! TO.N,/LATCH*
X138650000Y-76560000D03*
G04 #@! TO.P,a1,8,D5*
G04 #@! TO.N,/CLOCK*
X138650000Y-74020000D03*
G04 #@! TO.P,a1,9,D6*
G04 #@! TO.N,/LOAD(PL)*
X138650000Y-71480000D03*
G04 #@! TO.P,a1,10,D7*
G04 #@! TO.N,/SCK(CP)*
X138650000Y-68940000D03*
G04 #@! TO.P,a1,11,D8*
G04 #@! TO.N,/SEROUT*
X138650000Y-66400000D03*
G04 #@! TO.P,a1,12,D9*
G04 #@! TO.N,/CE*
X138650000Y-63860000D03*
G04 #@! TO.P,a1,13,D10*
G04 #@! TO.N,/LCD_LATCH*
X138650000Y-61320000D03*
G04 #@! TO.P,a1,14,D11*
G04 #@! TO.N,/LCD_CLOCK*
X138650000Y-58780000D03*
G04 #@! TO.P,a1,15,D12*
G04 #@! TO.N,/LCD_SERIAL*
X138650000Y-56240000D03*
G04 #@! TO.P,a1,16,D13*
G04 #@! TO.N,Net-(a1-D13)*
X153890000Y-56240000D03*
G04 #@! TO.P,a1,17,3V3*
G04 #@! TO.N,unconnected-(a1-3V3-Pad17)*
X153890000Y-58780000D03*
G04 #@! TO.P,a1,18,AREF*
G04 #@! TO.N,unconnected-(a1-AREF-Pad18)*
X153890000Y-61320000D03*
G04 #@! TO.P,a1,19,A0*
G04 #@! TO.N,unconnected-(a1-A0-Pad19)*
X153890000Y-63860000D03*
G04 #@! TO.P,a1,20,A1*
G04 #@! TO.N,unconnected-(a1-A1-Pad20)*
X153890000Y-66400000D03*
G04 #@! TO.P,a1,21,A2*
G04 #@! TO.N,unconnected-(a1-A2-Pad21)*
X153890000Y-68940000D03*
G04 #@! TO.P,a1,22,A3*
G04 #@! TO.N,unconnected-(a1-A3-Pad22)*
X153890000Y-71480000D03*
G04 #@! TO.P,a1,23,A4*
G04 #@! TO.N,unconnected-(a1-A4-Pad23)*
X153890000Y-74020000D03*
G04 #@! TO.P,a1,24,A5*
G04 #@! TO.N,unconnected-(a1-A5-Pad24)*
X153890000Y-76560000D03*
G04 #@! TO.P,a1,25,A6*
G04 #@! TO.N,unconnected-(a1-A6-Pad25)*
X153890000Y-79100000D03*
G04 #@! TO.P,a1,26,A7*
G04 #@! TO.N,unconnected-(a1-A7-Pad26)*
X153890000Y-81640000D03*
G04 #@! TO.P,a1,27,+5V*
G04 #@! TO.N,+5V*
X153890000Y-84180000D03*
G04 #@! TO.P,a1,28,~{RESET}*
G04 #@! TO.N,unconnected-(a1-~{RESET}-Pad28)*
X153890000Y-86720000D03*
D14*
G04 #@! TO.P,a1,29,GND*
G04 #@! TO.N,GND*
X153890000Y-89260000D03*
D15*
G04 #@! TO.P,a1,30,VIN*
G04 #@! TO.N,unconnected-(a1-VIN-Pad30)*
X153890000Y-91800000D03*
G04 #@! TD*
D16*
G04 #@! TO.P,DIODE,1,K*
G04 #@! TO.N,+5V*
X93472000Y-87794600D03*
G04 #@! TO.P,DIODE,2,A*
G04 #@! TO.N,/battery power*
X93472000Y-83794600D03*
G04 #@! TD*
D17*
G04 #@! TO.N,/SER3-4*
X75552972Y-54369442D03*
D18*
G04 #@! TO.N,GND*
X93395800Y-77165200D03*
D17*
G04 #@! TO.N,/SERIAL*
X141337500Y-120052500D03*
X142134856Y-92038088D03*
G04 #@! TO.N,/LOAD(PL)*
X143003000Y-89104752D03*
X131572000Y-136931400D03*
G04 #@! TO.N,/LATCH*
X127929849Y-62631320D03*
X125020028Y-65998400D03*
X135500003Y-55850000D03*
X85862000Y-68542243D03*
X129532261Y-54150000D03*
X129997194Y-52119000D03*
X86160000Y-55510000D03*
X85338536Y-60890000D03*
X79632500Y-77795000D03*
X61718819Y-117648548D03*
X116184592Y-75315676D03*
D19*
X136650000Y-113350000D03*
D17*
X83775804Y-55424690D03*
X119189367Y-72418000D03*
X93791214Y-50937750D03*
X124497500Y-53348000D03*
X82977292Y-53502590D03*
X142201000Y-90528396D03*
D19*
X69077864Y-127357864D03*
D17*
X150355162Y-114278733D03*
X149527837Y-115478733D03*
X148148600Y-107137200D03*
X89675000Y-52975000D03*
D19*
X135300000Y-60000000D03*
D17*
X68070000Y-127350000D03*
X133900000Y-60579265D03*
D19*
X87160000Y-55180000D03*
D17*
X132401392Y-63334945D03*
X137641000Y-113475000D03*
X78130000Y-55085000D03*
X123085528Y-69984045D03*
G04 #@! TO.N,/CE*
X153696401Y-120712401D03*
X132475000Y-130352500D03*
X144060000Y-87275735D03*
X151293827Y-120973222D03*
D18*
G04 #@! TO.N,+5V*
X70700000Y-56675000D03*
X60000000Y-123000000D03*
X153441400Y-136906000D03*
X81265000Y-86182200D03*
X143450000Y-146910000D03*
X138450000Y-146910000D03*
X134450000Y-99950000D03*
D17*
X148900000Y-84300000D03*
X149475000Y-65200000D03*
X149504400Y-75209400D03*
X150780000Y-136890000D03*
X150890000Y-85870000D03*
X123306800Y-147116800D03*
X110140000Y-143160000D03*
D18*
X130900000Y-130300000D03*
X122500000Y-132050000D03*
X133502400Y-146913600D03*
X134632953Y-106317047D03*
X118875000Y-53900000D03*
D17*
X134315200Y-94234000D03*
D18*
X116980002Y-54785000D03*
D17*
X125476000Y-75234800D03*
D18*
X148183600Y-136880600D03*
X79832200Y-83235800D03*
X80000000Y-140900000D03*
X65532500Y-140985000D03*
X76352400Y-133530000D03*
X138400000Y-120050000D03*
X116500000Y-88400000D03*
X62390000Y-125040000D03*
X136300000Y-121625000D03*
X115050000Y-82700000D03*
X72640000Y-56190000D03*
D20*
X147375000Y-99900000D03*
D18*
X90271600Y-87833200D03*
X67132500Y-143635000D03*
D17*
X150810000Y-146930000D03*
X66146000Y-133350000D03*
D18*
X153416000Y-146913600D03*
D20*
X148005800Y-102565200D03*
D18*
X116545000Y-84590000D03*
X67995800Y-59766200D03*
X123700000Y-118000000D03*
X132500000Y-107200000D03*
X128320800Y-146913600D03*
X133850000Y-121500000D03*
X128727200Y-132281400D03*
X116433600Y-61874400D03*
X148336000Y-146964400D03*
D17*
G04 #@! TO.N,/SEROUT*
X143805000Y-84307887D03*
X138988800Y-135585200D03*
G04 #@! TO.N,/OE*
X122926178Y-75147489D03*
X134700000Y-55850000D03*
D19*
X68930000Y-129920000D03*
D17*
X128940165Y-61895000D03*
X148148600Y-106070400D03*
X123227500Y-53348000D03*
X125818893Y-66041036D03*
X86415000Y-58465000D03*
X61798200Y-118541800D03*
D19*
X85680000Y-57860000D03*
D17*
X84830000Y-60272325D03*
X137659535Y-116188047D03*
X116400932Y-74545481D03*
X128448056Y-54425000D03*
X133700000Y-62800000D03*
D19*
X136870000Y-115550000D03*
X134600000Y-62800000D03*
D17*
X93103815Y-51347000D03*
X83300000Y-54234827D03*
X149557631Y-114215902D03*
X68050000Y-129960000D03*
X125870000Y-72280000D03*
X89472556Y-54060765D03*
X129143691Y-52119000D03*
X86274155Y-69677318D03*
X80907891Y-77226650D03*
X83262500Y-56700000D03*
X141900000Y-91269612D03*
X77200000Y-55500000D03*
X148567335Y-114922665D03*
G04 #@! TO.N,/CLOCK*
X151146402Y-114160650D03*
X130797195Y-52119000D03*
X86060000Y-53370000D03*
X130206873Y-53720000D03*
X118391125Y-72364981D03*
D19*
X85490000Y-52530000D03*
D17*
X150317819Y-115604935D03*
X133574000Y-57682815D03*
X127315705Y-62017176D03*
X148234400Y-108285000D03*
X125767500Y-53348000D03*
X142629821Y-89853034D03*
X136700000Y-111400000D03*
D19*
X135425000Y-57675000D03*
D17*
X79400000Y-55085000D03*
X84564596Y-61096322D03*
D19*
X135775000Y-111350000D03*
D17*
X115419676Y-75550000D03*
X90070171Y-51700999D03*
X85073155Y-69742703D03*
X94486431Y-50541926D03*
X132370436Y-62535542D03*
D19*
X68680000Y-125340000D03*
D17*
X61747400Y-115874800D03*
X122750958Y-69257363D03*
X79632500Y-76525000D03*
X67610000Y-125340000D03*
X124565999Y-65314429D03*
G04 #@! TO.N,/SCK(CP)*
X143404000Y-88386672D03*
X132475000Y-136527500D03*
G04 #@! TO.N,Net-(d8-A)*
X126000000Y-91300000D03*
X128357800Y-92442200D03*
G04 #@! TO.N,Net-(d33-A)*
X63600000Y-143400000D03*
X99790000Y-145300000D03*
G04 #@! TO.N,Net-(d34-A)*
X99280000Y-140190000D03*
X100270000Y-137140000D03*
X78130400Y-143880000D03*
X98954523Y-145373260D03*
G04 #@! TO.N,Net-(d35-A)*
X94687340Y-133034738D03*
X101701600Y-131470400D03*
X79192899Y-137423156D03*
X105460800Y-132384800D03*
G04 #@! TO.N,Net-(d36-A)*
X79478218Y-136675762D03*
X95300800Y-132435600D03*
G04 #@! TO.N,Net-(d40-A)*
X101812500Y-114210000D03*
X100250000Y-118920000D03*
G04 #@! TO.N,Net-(d57-A)*
X98200000Y-97900000D03*
X96119643Y-101502400D03*
G04 #@! TO.N,Net-(d58-A)*
X104709345Y-101517694D03*
X102500000Y-98000000D03*
G04 #@! TO.N,Net-(d60-A)*
X94089643Y-93302400D03*
X96400000Y-89700000D03*
G04 #@! TO.N,/SER1-2*
X153696400Y-119910000D03*
X138364139Y-60048184D03*
X121957500Y-53012500D03*
X144206000Y-86451469D03*
X151292400Y-120173221D03*
X147687500Y-120052500D03*
G04 #@! TO.N,/SER2-3*
X61259872Y-119626432D03*
X128307500Y-52546000D03*
G04 #@! TO.N,/SER3-4*
X61695835Y-113970565D03*
G04 #@! TO.N,/SER4-5*
X68300000Y-131640000D03*
X80095959Y-52281000D03*
G04 #@! TO.N,/SER5-6*
X66146000Y-130330000D03*
X113133544Y-79818214D03*
X110725000Y-52145000D03*
X112760735Y-74819265D03*
X114351500Y-79815830D03*
X110501001Y-54952000D03*
G04 #@! TO.N,/SER6-7*
X111215558Y-53350000D03*
X91965000Y-53750000D03*
X86917136Y-69201316D03*
X86663156Y-61448579D03*
X81492260Y-77860600D03*
X91831211Y-52339968D03*
X111301004Y-54952000D03*
X114390000Y-73190000D03*
G04 #@! TO.N,/SER7-8*
X80238600Y-73831600D03*
X84287585Y-69962585D03*
X138040000Y-57460000D03*
X84489736Y-61903066D03*
X81778302Y-53059608D03*
X145303670Y-83554799D03*
X82321611Y-57245140D03*
X148148600Y-104622600D03*
G04 #@! TO.N,/btn1*
X137555000Y-129692400D03*
X148190000Y-132492200D03*
G04 #@! TO.N,/btn2*
X150019935Y-132265335D03*
X136285000Y-130103000D03*
G04 #@! TO.N,/btn3*
X135026400Y-131013200D03*
X130350000Y-139650000D03*
X130438879Y-141491891D03*
X128400000Y-142710000D03*
G04 #@! TO.N,/btn4*
X135850000Y-140050000D03*
X133926300Y-131046500D03*
G04 #@! TO.N,/btn5*
X139699000Y-140660000D03*
X133959237Y-136741736D03*
G04 #@! TO.N,/btn6*
X143450000Y-142710000D03*
X135015000Y-136527500D03*
G04 #@! TO.N,/btn7*
X148325000Y-142710000D03*
X136285000Y-136527500D03*
G04 #@! TO.N,/btn8*
X137555000Y-136388200D03*
X151790000Y-142740000D03*
G04 #@! TO.N,/ICD3*
X140067500Y-126227500D03*
X119590000Y-127410000D03*
G04 #@! TO.N,/ICD7*
X145147500Y-126227500D03*
X145785020Y-118831062D03*
X137282476Y-108885923D03*
X126080000Y-102132500D03*
G04 #@! TO.N,/ICD6*
X131090000Y-114320000D03*
X139317768Y-124919770D03*
G04 #@! TO.N,/ICD1*
X140067500Y-120052500D03*
X106608004Y-137669846D03*
G04 #@! TO.N,/ICD4*
X128010000Y-125426500D03*
X123750000Y-121200000D03*
X128150000Y-127428500D03*
X141337500Y-126227500D03*
G04 #@! TO.N,/ICD2*
X113493763Y-132560514D03*
X138797500Y-126227500D03*
G04 #@! TO.N,/ICD8*
X138071205Y-109019734D03*
X146417500Y-126227500D03*
X128004309Y-96265876D03*
X146541309Y-118570234D03*
G04 #@! TO.N,/ICD5*
X134214615Y-116838985D03*
X129830000Y-115010000D03*
X142607500Y-126227500D03*
X133454985Y-117776415D03*
G04 #@! TO.N,/ICD16*
X127037500Y-59187500D03*
X107022500Y-53750000D03*
G04 #@! TO.N,/ICD9*
X125775000Y-57775001D03*
X134205972Y-65691028D03*
X133060000Y-82507500D03*
X127000000Y-57675000D03*
X137728423Y-80582588D03*
X127585602Y-63898000D03*
X120399235Y-53756000D03*
G04 #@! TO.N,/ICD15*
X115400000Y-59600000D03*
X125388900Y-62778370D03*
X125767500Y-59187500D03*
X114211200Y-57850000D03*
X124268000Y-64572000D03*
X112072667Y-59608523D03*
G04 #@! TO.N,/ICD14*
X122998250Y-65195999D03*
X111730000Y-69620000D03*
X124497500Y-59187500D03*
X123709342Y-62570000D03*
X117303214Y-71343214D03*
X121505088Y-68834592D03*
G04 #@! TO.N,/ICD10*
X119417500Y-59187500D03*
X128400000Y-64977000D03*
X132060000Y-73997500D03*
X135687200Y-73354865D03*
X133221527Y-64977000D03*
G04 #@! TO.N,/ICD11*
X120687500Y-59187500D03*
X129550000Y-64575000D03*
G04 #@! TO.N,/ICD12*
X118572500Y-64225000D03*
X119600321Y-61673851D03*
G04 #@! TO.N,/ICD13*
X123770942Y-65403246D03*
X108410000Y-74360000D03*
X123227500Y-59187500D03*
X118110000Y-71616000D03*
X124509345Y-62570000D03*
X113746090Y-74045000D03*
X112119000Y-74170003D03*
X122273407Y-68611686D03*
G04 #@! TO.N,/ICD19*
X79400000Y-119670000D03*
X82830000Y-125550000D03*
X66590528Y-120860000D03*
X73692500Y-118320000D03*
G04 #@! TO.N,/ICD21*
X67663640Y-119191990D03*
X70128750Y-119691250D03*
G04 #@! TO.N,/ICD23*
X72340735Y-111879000D03*
X67042500Y-116225000D03*
X66230000Y-111510000D03*
X69062600Y-102336600D03*
G04 #@! TO.N,/ICD18*
X67390465Y-122227035D03*
X87780000Y-131650000D03*
X73120000Y-133356495D03*
X79206740Y-133539690D03*
G04 #@! TO.N,/ICD17*
X59455000Y-113541157D03*
X62860691Y-111658400D03*
X60030000Y-120980200D03*
X84586132Y-128098281D03*
X87050000Y-128850000D03*
X79639974Y-120455112D03*
X92923285Y-136560000D03*
X74155000Y-119224616D03*
G04 #@! TO.N,/ICD20*
X72051921Y-123034525D03*
X67620000Y-120069764D03*
G04 #@! TO.N,/ICD22*
X67042500Y-117495000D03*
X69470000Y-114450000D03*
G04 #@! TO.N,/ICD24*
X62860691Y-93700000D03*
X66268600Y-114955000D03*
G04 #@! TO.N,/ICD26*
X70332600Y-62950000D03*
X73050000Y-61341000D03*
X65786000Y-62950000D03*
X65989200Y-73075800D03*
G04 #@! TO.N,/ICD28*
X75590000Y-61210000D03*
X80525000Y-64071000D03*
G04 #@! TO.N,/ICD31*
X89930000Y-60540000D03*
X79400000Y-61210000D03*
G04 #@! TO.N,/ICD27*
X74320000Y-61210000D03*
X70789800Y-65130000D03*
G04 #@! TO.N,/ICD30*
X89614792Y-69674792D03*
X78130000Y-61210000D03*
X87555167Y-62830463D03*
X88185793Y-67840185D03*
G04 #@! TO.N,/ICD25*
X62860691Y-82450000D03*
X74190000Y-55840000D03*
G04 #@! TO.N,/ICD29*
X76860000Y-61210000D03*
X87464253Y-68185704D03*
X96520000Y-77510000D03*
X87105314Y-63492000D03*
G04 #@! TO.N,/ICD32*
X93027500Y-53750000D03*
X80670000Y-61210000D03*
G04 #@! TO.N,/ICD38*
X105910000Y-122050000D03*
X80770000Y-135434000D03*
X85787132Y-128256548D03*
X85591801Y-129463904D03*
G04 #@! TO.N,/ICD40*
X98704259Y-119950000D03*
X98700000Y-121250000D03*
X79968000Y-133785630D03*
X98887500Y-114210000D03*
G04 #@! TO.N,/ICD37*
X90370000Y-124200000D03*
X86607611Y-129516555D03*
X81370000Y-136060000D03*
X86400000Y-127680000D03*
G04 #@! TO.N,/ICD34*
X71707500Y-140985000D03*
X74701400Y-141198600D03*
G04 #@! TO.N,/ICD36*
X74510000Y-137360000D03*
X71805800Y-138506200D03*
G04 #@! TO.N,/ICD35*
X71780400Y-139750800D03*
X74701400Y-138785600D03*
G04 #@! TO.N,/ICD39*
X97770000Y-127880000D03*
X80350635Y-134570635D03*
G04 #@! TO.N,/ICD47*
X118950000Y-97530000D03*
X123367336Y-94629473D03*
X122910600Y-98160600D03*
X122914587Y-92148540D03*
G04 #@! TO.N,/ICD43*
X110449997Y-97530000D03*
X107671226Y-100570204D03*
X120810000Y-81360000D03*
X111290507Y-83192866D03*
X95030000Y-120580000D03*
X107621329Y-103915646D03*
G04 #@! TO.N,/ICD42*
X108381365Y-103281365D03*
X111569031Y-83942818D03*
X121140000Y-82300000D03*
X111250000Y-97530000D03*
X108913265Y-99895265D03*
X121932500Y-113920000D03*
G04 #@! TO.N,/ICD45*
X116781250Y-110773438D03*
X117850000Y-94726000D03*
X117050000Y-98450000D03*
X122123200Y-91897200D03*
G04 #@! TO.N,/ICD44*
X106405349Y-104731199D03*
X108849991Y-97530000D03*
X105204349Y-104914095D03*
X83007200Y-112750600D03*
X110732432Y-81687568D03*
X121100000Y-80150000D03*
G04 #@! TO.N,/ICD46*
X123967336Y-95250464D03*
X123727872Y-92318611D03*
X121397775Y-98913345D03*
X120354144Y-102715856D03*
G04 #@! TO.N,/ICD48*
X116700000Y-94500000D03*
X124617251Y-92446205D03*
G04 #@! TO.N,/ICD41*
X106821527Y-103933549D03*
X108102500Y-113900000D03*
X107483584Y-101347887D03*
X109649994Y-97530000D03*
X115920000Y-81080000D03*
X111058092Y-82427368D03*
G04 #@! TO.N,/ICD51*
X93825000Y-108575000D03*
X85807500Y-81605000D03*
G04 #@! TO.N,/ICD53*
X86267714Y-78901714D03*
X76540001Y-107120000D03*
G04 #@! TO.N,/ICD56*
X86436200Y-75336400D03*
X83190800Y-98300000D03*
G04 #@! TO.N,/ICD49*
X108822329Y-103976307D03*
X79612300Y-81584800D03*
G04 #@! TO.N,/ICD50*
X106419998Y-107109998D03*
X85807500Y-82875000D03*
G04 #@! TO.N,/ICD52*
X88535856Y-107445856D03*
X85807500Y-80335000D03*
G04 #@! TO.N,/ICD55*
X85807500Y-76525000D03*
X82782378Y-95716504D03*
G04 #@! TO.N,/ICD54*
X76657200Y-93167200D03*
X85122935Y-77782335D03*
G04 #@! TO.N,/ICD64*
X101552500Y-58380000D03*
X128778000Y-96062400D03*
X113319000Y-73368542D03*
X142213630Y-109554999D03*
X123452313Y-75750138D03*
X112119000Y-73370000D03*
X127500000Y-92700000D03*
X124767690Y-91660475D03*
G04 #@! TO.N,/ICD58*
X103370000Y-103052069D03*
X141789000Y-102750000D03*
X139192066Y-108443536D03*
X136220486Y-109079514D03*
G04 #@! TO.N,/ICD59*
X103211477Y-93112667D03*
X143395220Y-103976453D03*
X136700000Y-95700000D03*
X132273735Y-95708206D03*
G04 #@! TO.N,/ICD57*
X148148600Y-103784400D03*
X126625984Y-94810114D03*
X104168895Y-103094156D03*
X127397655Y-96787389D03*
X136700000Y-94899997D03*
X132312145Y-94909126D03*
G04 #@! TO.N,/ICD63*
X133939634Y-64624406D03*
X141159000Y-93827275D03*
X122198247Y-65195999D03*
X116698414Y-70817249D03*
X121153324Y-67948146D03*
X142810000Y-108730000D03*
X111860335Y-64415663D03*
X144900942Y-96896582D03*
X139408550Y-80289400D03*
X122689708Y-63881504D03*
X145214766Y-94866034D03*
X109520112Y-64797445D03*
X101552500Y-68030000D03*
X142811689Y-92464584D03*
G04 #@! TO.N,/ICD61*
X132279011Y-97305216D03*
X142810000Y-106190000D03*
X136700000Y-97300006D03*
X100900000Y-88200000D03*
G04 #@! TO.N,/ICD62*
X142810000Y-107460000D03*
X104770000Y-87700000D03*
X132295566Y-94109296D03*
X137586352Y-94867823D03*
G04 #@! TO.N,/ICD60*
X97960000Y-92620000D03*
X136700000Y-96500003D03*
X142810000Y-104920000D03*
X132325234Y-96506550D03*
G04 #@! TO.N,Net-(a1-D13)*
X131035000Y-140958371D03*
X152900000Y-80400000D03*
X131150003Y-139650000D03*
G04 #@! TD*
D21*
G04 #@! TO.N,Net-(d34-A)*
X78130400Y-143880000D02*
X78772900Y-143880000D01*
X78772900Y-143880000D02*
X79422900Y-144530000D01*
X79422900Y-144530000D02*
X98111263Y-144530000D01*
X98111263Y-144530000D02*
X98954523Y-145373260D01*
G04 #@! TO.N,Net-(d33-A)*
X99790000Y-145300000D02*
X99790000Y-145290000D01*
X79580000Y-144120000D02*
X78561000Y-143101000D01*
X98620000Y-144120000D02*
X79580000Y-144120000D01*
X99790000Y-145290000D02*
X98620000Y-144120000D01*
X78561000Y-143101000D02*
X70909000Y-143101000D01*
X70909000Y-143101000D02*
X69040000Y-144970000D01*
X69040000Y-144970000D02*
X65170000Y-144970000D01*
X65170000Y-144970000D02*
X63600000Y-143400000D01*
G04 #@! TO.N,/SER4-5*
X79630000Y-52480000D02*
X76124272Y-52480000D01*
X68487300Y-52623000D02*
X62487000Y-52623000D01*
X65290000Y-130490000D02*
X66440000Y-131640000D01*
X59854689Y-55255649D02*
X59854691Y-81203457D01*
X59854691Y-55255309D02*
X59854691Y-55255647D01*
X69047300Y-52063000D02*
X68487300Y-52623000D01*
X59853691Y-112903943D02*
X60254200Y-113304452D01*
X79829000Y-52281000D02*
X79630000Y-52480000D01*
X76124272Y-52480000D02*
X75707272Y-52063000D01*
X59854691Y-83696543D02*
X59854691Y-110411857D01*
X59854691Y-81203457D02*
X59853691Y-81204457D01*
X60257872Y-120041475D02*
X60844829Y-120628432D01*
X59853691Y-81204457D02*
X59853691Y-83695543D01*
X59853691Y-83695543D02*
X59854691Y-83696543D01*
X80095959Y-52281000D02*
X79829000Y-52281000D01*
X60844829Y-120628432D02*
X60846242Y-120628432D01*
X59854691Y-110411857D02*
X59853691Y-110412857D01*
X59853691Y-110412857D02*
X59853691Y-112903943D01*
X60254200Y-113304452D02*
X60254200Y-120036390D01*
X62487000Y-52623000D02*
X59854691Y-55255309D01*
X75707272Y-52063000D02*
X69047300Y-52063000D01*
X60254200Y-120036390D02*
X60257872Y-120040062D01*
X60257872Y-120040062D02*
X60257872Y-120041475D01*
X59854691Y-55255647D02*
X59854689Y-55255649D01*
X60846242Y-120628432D02*
X65290000Y-125072190D01*
X65290000Y-125072190D02*
X65290000Y-130490000D01*
X66440000Y-131640000D02*
X68300000Y-131640000D01*
G04 #@! TO.N,/SER3-4*
X61695835Y-113970565D02*
X61695835Y-113044787D01*
X61056691Y-112405643D02*
X61056691Y-110911157D01*
X61056691Y-110911157D02*
X61057691Y-110910157D01*
X61057691Y-110910157D02*
X61057691Y-83198243D01*
X62897542Y-53917000D02*
X62988542Y-53826000D01*
X61057691Y-83198243D02*
X61056691Y-83197243D01*
X61056691Y-83197243D02*
X61056691Y-81702757D01*
X75552972Y-53610000D02*
X75552972Y-54369442D01*
X61056691Y-81702757D02*
X61057691Y-81701757D01*
X61057691Y-81701757D02*
X61057691Y-55753949D01*
X75208972Y-53266000D02*
X75552972Y-53610000D01*
X61057691Y-55753949D02*
X62894643Y-53917000D01*
X62894643Y-53917000D02*
X62897542Y-53917000D01*
X61695835Y-113044787D02*
X61056691Y-112405643D01*
X62988542Y-53826000D02*
X68985600Y-53826000D01*
X69545600Y-53266000D02*
X75208972Y-53266000D01*
X68985600Y-53826000D02*
X69545600Y-53266000D01*
G04 #@! TO.N,/ICD25*
X69650000Y-55430000D02*
X63652942Y-55430000D01*
G04 #@! TO.N,/CLOCK*
X82193360Y-53683000D02*
X82376292Y-53500068D01*
X68222900Y-123660000D02*
X66840702Y-123660000D01*
G04 #@! TO.N,/ICD25*
X62750000Y-82450000D02*
X62860691Y-82450000D01*
G04 #@! TO.N,/CLOCK*
X69711700Y-53667000D02*
X73999773Y-53667000D01*
G04 #@! TO.N,/LATCH*
X63320742Y-54628000D02*
X69317800Y-54628000D01*
G04 #@! TO.N,/CLOCK*
X63322200Y-120141500D02*
X63322200Y-117423698D01*
G04 #@! TO.N,/ICD25*
X63652942Y-55430000D02*
X62667200Y-56415742D01*
G04 #@! TO.N,/OE*
X62259691Y-111409457D02*
X62260691Y-111408457D01*
G04 #@! TO.N,/LATCH*
X82779302Y-53540000D02*
X82939882Y-53540000D01*
G04 #@! TO.N,/OE*
X62260691Y-111408457D02*
X62260691Y-82699943D01*
G04 #@! TO.N,/LATCH*
X82777292Y-53666168D02*
X82777292Y-53613279D01*
G04 #@! TO.N,/CLOCK*
X68618200Y-125278200D02*
X68618200Y-124055300D01*
X83449300Y-51502000D02*
X84712000Y-51502000D01*
G04 #@! TO.N,/OE*
X67142937Y-122828035D02*
X67141522Y-122828035D01*
G04 #@! TO.N,/LATCH*
X61859691Y-82866043D02*
X61858691Y-82865043D01*
G04 #@! TO.N,/ICD25*
X70210000Y-54870000D02*
X69650000Y-55430000D01*
G04 #@! TO.N,/OE*
X63392942Y-55120000D02*
X63395842Y-55120000D01*
G04 #@! TO.N,/LATCH*
X61858691Y-111243357D02*
X61859691Y-111242357D01*
G04 #@! TO.N,/OE*
X64124200Y-119809300D02*
X64124200Y-117091498D01*
G04 #@! TO.N,/ICD25*
X62667200Y-81945800D02*
X62661691Y-81951309D01*
X74190000Y-55840000D02*
X74190000Y-55558527D01*
X62661691Y-82361691D02*
X62750000Y-82450000D01*
G04 #@! TO.N,/LATCH*
X62800000Y-116334400D02*
X62800000Y-113014752D01*
G04 #@! TO.N,/OE*
X64124200Y-117091498D02*
X63201000Y-116168300D01*
X67172902Y-122858000D02*
X67142937Y-122828035D01*
X70883550Y-128936450D02*
X70883550Y-123970650D01*
X63201000Y-112848652D02*
X62259691Y-111907343D01*
X62259691Y-82201057D02*
X62260691Y-82200057D01*
X62259691Y-111907343D02*
X62259691Y-111409457D01*
X63486842Y-55029000D02*
X69483900Y-55029000D01*
G04 #@! TO.N,/LATCH*
X61858691Y-112073443D02*
X61858691Y-111243357D01*
X69317800Y-54628000D02*
X69877800Y-54068000D01*
G04 #@! TO.N,/OE*
X73667573Y-54469000D02*
X74318573Y-55120000D01*
G04 #@! TO.N,/CLOCK*
X66810737Y-123630035D02*
X66809322Y-123630035D01*
G04 #@! TO.N,/OE*
X74318573Y-55120000D02*
X74320000Y-55120000D01*
G04 #@! TO.N,/ICD25*
X73501473Y-54870000D02*
X70210000Y-54870000D01*
G04 #@! TO.N,/OE*
X69150000Y-129700000D02*
X70120000Y-129700000D01*
G04 #@! TO.N,/LATCH*
X74486100Y-54719000D02*
X75206100Y-55439000D01*
X69077864Y-127357864D02*
X69922136Y-127357864D01*
G04 #@! TO.N,/ICD25*
X62667200Y-56415742D02*
X62667200Y-81945800D01*
G04 #@! TO.N,/CLOCK*
X65987465Y-122806765D02*
X63322200Y-120141500D01*
G04 #@! TO.N,/OE*
X63395842Y-55120000D02*
X63486842Y-55029000D01*
G04 #@! TO.N,/LATCH*
X69922136Y-127357864D02*
X70482550Y-126797450D01*
G04 #@! TO.N,/OE*
X69483900Y-55029000D02*
X70043900Y-54469000D01*
G04 #@! TO.N,/LATCH*
X70482550Y-124136750D02*
X69604800Y-123259000D01*
G04 #@! TO.N,/OE*
X62259691Y-82698943D02*
X62259691Y-82201057D01*
G04 #@! TO.N,/CLOCK*
X85480000Y-52270000D02*
X85480000Y-52540000D01*
G04 #@! TO.N,/OE*
X77420143Y-54485000D02*
X82525560Y-54485000D01*
G04 #@! TO.N,/LATCH*
X63226842Y-54719000D02*
X63229742Y-54719000D01*
X69604800Y-123259000D02*
X67006802Y-123259000D01*
X66976837Y-123229035D02*
X66975422Y-123229035D01*
X82777292Y-53613279D02*
X82779302Y-53611269D01*
G04 #@! TO.N,/ICD25*
X62661691Y-81951309D02*
X62661691Y-82361691D01*
G04 #@! TO.N,/LATCH*
X66975422Y-123229035D02*
X66388465Y-122642078D01*
G04 #@! TO.N,/OE*
X63201000Y-116168300D02*
X63201000Y-112848652D01*
G04 #@! TO.N,/LATCH*
X66388465Y-122642078D02*
X66388465Y-122640665D01*
X62800000Y-113014752D02*
X61858691Y-112073443D01*
X66388465Y-122640665D02*
X63723200Y-119975400D01*
X82779302Y-53611269D02*
X82779302Y-53540000D01*
X70482550Y-126797450D02*
X70482550Y-124136750D01*
G04 #@! TO.N,/OE*
X82775733Y-54234827D02*
X83300000Y-54234827D01*
G04 #@! TO.N,/CLOCK*
X66809322Y-123630035D02*
X65987465Y-122808178D01*
G04 #@! TO.N,/OE*
X62260691Y-56252251D02*
X63392942Y-55120000D01*
G04 #@! TO.N,/CLOCK*
X61458691Y-111076257D02*
X61458691Y-83032143D01*
G04 #@! TO.N,/LATCH*
X63723200Y-117257598D02*
X62800000Y-116334400D01*
G04 #@! TO.N,/OE*
X70043900Y-54469000D02*
X73667573Y-54469000D01*
G04 #@! TO.N,/LATCH*
X61859691Y-111242357D02*
X61859691Y-82866043D01*
X74484673Y-54719000D02*
X74486100Y-54719000D01*
G04 #@! TO.N,/CLOCK*
X68618200Y-124055300D02*
X68222900Y-123660000D01*
G04 #@! TO.N,/LATCH*
X61858691Y-82865043D02*
X61858691Y-82034957D01*
G04 #@! TO.N,/OE*
X70883550Y-123970650D02*
X69770900Y-122858000D01*
X76065143Y-55840000D02*
X77420143Y-54485000D01*
G04 #@! TO.N,/LATCH*
X61859691Y-56086151D02*
X63226842Y-54719000D01*
X63229742Y-54719000D02*
X63320742Y-54628000D01*
G04 #@! TO.N,/OE*
X66789465Y-122475978D02*
X66789465Y-122474565D01*
X74320000Y-55120000D02*
X75040000Y-55840000D01*
G04 #@! TO.N,/CLOCK*
X66840702Y-123660000D02*
X66810737Y-123630035D01*
G04 #@! TO.N,/LATCH*
X61859691Y-82033957D02*
X61859691Y-56086151D01*
X69877800Y-54068000D02*
X73833673Y-54068000D01*
G04 #@! TO.N,/OE*
X70120000Y-129700000D02*
X70883550Y-128936450D01*
G04 #@! TO.N,/LATCH*
X73833673Y-54068000D02*
X74484673Y-54719000D01*
X75206100Y-55439000D02*
X75899043Y-55439000D01*
G04 #@! TO.N,/ICD25*
X74190000Y-55558527D02*
X73501473Y-54870000D01*
G04 #@! TO.N,/OE*
X75040000Y-55840000D02*
X76065143Y-55840000D01*
G04 #@! TO.N,/LATCH*
X75899043Y-55439000D02*
X77254043Y-54084000D01*
X82359460Y-54084000D02*
X82777292Y-53666168D01*
G04 #@! TO.N,/CLOCK*
X61457691Y-112239543D02*
X61457691Y-111077257D01*
G04 #@! TO.N,/LATCH*
X77254043Y-54084000D02*
X82359460Y-54084000D01*
X61858691Y-82034957D02*
X61859691Y-82033957D01*
G04 #@! TO.N,/OE*
X68930000Y-129920000D02*
X69150000Y-129700000D01*
G04 #@! TO.N,/CLOCK*
X74665000Y-54330000D02*
X75365342Y-55030342D01*
X62399000Y-116500500D02*
X62399000Y-113180852D01*
X68680000Y-125340000D02*
X68618200Y-125278200D01*
X62399000Y-113180852D02*
X61457691Y-112239543D01*
G04 #@! TO.N,/LATCH*
X82939882Y-53540000D02*
X82977292Y-53502590D01*
G04 #@! TO.N,/CLOCK*
X61457691Y-111077257D02*
X61458691Y-111076257D01*
X61457691Y-83031143D02*
X61457691Y-81868857D01*
X61457691Y-81868857D02*
X61458691Y-81867857D01*
G04 #@! TO.N,/LATCH*
X63723200Y-119975400D02*
X63723200Y-117257598D01*
G04 #@! TO.N,/CLOCK*
X61458691Y-81867857D02*
X61458691Y-55920049D01*
X61458691Y-55920049D02*
X63060742Y-54318000D01*
X63063642Y-54318000D02*
X63154642Y-54227000D01*
G04 #@! TO.N,/OE*
X82525560Y-54485000D02*
X82775733Y-54234827D01*
G04 #@! TO.N,/CLOCK*
X63154642Y-54227000D02*
X69151700Y-54227000D01*
X69151700Y-54227000D02*
X69711700Y-53667000D01*
X73999773Y-53667000D02*
X74650773Y-54318000D01*
G04 #@! TO.N,/OE*
X62260691Y-82699943D02*
X62259691Y-82698943D01*
G04 #@! TO.N,/CLOCK*
X74650773Y-54318000D02*
X74652200Y-54318000D01*
X74652200Y-54318000D02*
X74664200Y-54330000D01*
G04 #@! TO.N,/OE*
X62260691Y-82200057D02*
X62260691Y-56252251D01*
G04 #@! TO.N,/CLOCK*
X75365342Y-55030342D02*
X75740601Y-55030342D01*
X77087943Y-53683000D02*
X82193360Y-53683000D01*
X82376292Y-53500068D02*
X82376292Y-53253647D01*
X82376292Y-53253647D02*
X82379302Y-53250637D01*
X82377302Y-52808665D02*
X82377302Y-52573998D01*
X65987465Y-122808178D02*
X65987465Y-122806765D01*
X63322200Y-117423698D02*
X62399000Y-116500500D01*
X82379302Y-53250637D02*
X82379302Y-52810665D01*
X61458691Y-83032143D02*
X61457691Y-83031143D01*
X82379302Y-52810665D02*
X82377302Y-52808665D01*
G04 #@! TO.N,/OE*
X69770900Y-122858000D02*
X67172902Y-122858000D01*
G04 #@! TO.N,/CLOCK*
X84712000Y-51502000D02*
X85480000Y-52270000D01*
X85480000Y-52540000D02*
X85490000Y-52530000D01*
X75740601Y-55030342D02*
X77087943Y-53683000D01*
G04 #@! TO.N,/OE*
X67141522Y-122828035D02*
X66789465Y-122475978D01*
G04 #@! TO.N,/CLOCK*
X74664200Y-54330000D02*
X74665000Y-54330000D01*
G04 #@! TO.N,/OE*
X66789465Y-122474565D02*
X64124200Y-119809300D01*
G04 #@! TO.N,/CLOCK*
X82377302Y-52573998D02*
X83449300Y-51502000D01*
G04 #@! TO.N,/LATCH*
X67006802Y-123259000D02*
X66976837Y-123229035D01*
G04 #@! TO.N,/CLOCK*
X63060742Y-54318000D02*
X63063642Y-54318000D01*
G04 #@! TO.N,+5V*
X72640000Y-56190000D02*
X72640000Y-55890000D01*
X72640000Y-55890000D02*
X72745600Y-55784400D01*
G04 #@! TO.N,Net-(d34-A)*
X99280000Y-140190000D02*
X99530000Y-139940000D01*
X99530000Y-139940000D02*
X99759800Y-139940000D01*
X99759800Y-139940000D02*
X100270000Y-139429800D01*
X100270000Y-139429800D02*
X100270000Y-137140000D01*
G04 #@! TO.N,/ICD38*
X80770000Y-135434000D02*
X80969000Y-135434000D01*
X80969000Y-135434000D02*
X80969000Y-133785472D01*
X80969000Y-133785472D02*
X85290568Y-129463904D01*
X85290568Y-129463904D02*
X85591801Y-129463904D01*
G04 #@! TO.N,Net-(d36-A)*
X79478218Y-136675762D02*
X80405762Y-136675762D01*
X91931450Y-134548550D02*
X91931450Y-136761450D01*
X94001250Y-136393850D02*
X94001250Y-132815993D01*
X95148743Y-132283543D02*
X95300800Y-132435600D01*
X80890000Y-137160000D02*
X81687043Y-137160000D01*
X81687043Y-137160000D02*
X82372000Y-136475043D01*
X82372000Y-134083772D02*
X83464849Y-132990923D01*
X90373823Y-132990923D02*
X91931450Y-134548550D01*
X82372000Y-136475043D02*
X82372000Y-134083772D01*
X83464849Y-132990923D02*
X90373823Y-132990923D01*
X91931450Y-136761450D02*
X92330000Y-137160000D01*
X92330000Y-137160000D02*
X93235100Y-137160000D01*
X80405762Y-136675762D02*
X80890000Y-137160000D01*
X93235100Y-137160000D02*
X94001250Y-136393850D01*
X94001250Y-132815993D02*
X94533700Y-132283543D01*
X94533700Y-132283543D02*
X95148743Y-132283543D01*
G04 #@! TO.N,Net-(d35-A)*
X79192899Y-137423156D02*
X79330743Y-137561000D01*
X93401200Y-137561000D02*
X94402250Y-136559950D01*
X82773000Y-136641143D02*
X82773000Y-134249872D01*
X90207723Y-133391923D02*
X91530450Y-134714650D01*
X82773000Y-134249872D02*
X83630949Y-133391923D01*
X79330743Y-137561000D02*
X81853143Y-137561000D01*
X94687340Y-133201460D02*
X94687340Y-133034738D01*
X81853143Y-137561000D02*
X82773000Y-136641143D01*
X92163900Y-137561000D02*
X93401200Y-137561000D01*
X91530450Y-134714650D02*
X91530450Y-136927550D01*
X83630949Y-133391923D02*
X90207723Y-133391923D01*
X91530450Y-136927550D02*
X92163900Y-137561000D01*
X94402250Y-136559950D02*
X94402250Y-133451600D01*
X94402250Y-133451600D02*
X94437200Y-133451600D01*
X94437200Y-133451600D02*
X94687340Y-133201460D01*
G04 #@! TO.N,/ICD18*
X87780000Y-131650000D02*
X87589660Y-131840340D01*
G04 #@! TO.N,/ICD17*
X92923285Y-136560000D02*
X92590000Y-136560000D01*
X92332450Y-134382450D02*
X87050000Y-129100000D01*
X92590000Y-136560000D02*
X92332450Y-136302450D01*
X92332450Y-136302450D02*
X92332450Y-134382450D01*
X87050000Y-129100000D02*
X87050000Y-128850000D01*
G04 #@! TO.N,/ICD43*
X95698000Y-121248000D02*
X97860000Y-121248000D01*
X106599000Y-121449000D02*
X106600000Y-121450000D01*
X105461057Y-121649000D02*
X105661057Y-121449000D01*
X107621329Y-104008671D02*
X107621329Y-103915646D01*
X97860000Y-121240057D02*
X98471057Y-120629000D01*
X99320000Y-120960000D02*
X99320000Y-121460000D01*
X98989000Y-120629000D02*
X99320000Y-120960000D01*
X99320000Y-121460000D02*
X99509000Y-121649000D01*
X109165000Y-114112557D02*
X107222527Y-112170084D01*
X107222527Y-112170084D02*
X107222527Y-108291612D01*
X99509000Y-121649000D02*
X105461057Y-121649000D01*
X95030000Y-120580000D02*
X95698000Y-121248000D01*
X105661057Y-121449000D02*
X106599000Y-121449000D01*
X107822998Y-107691141D02*
X107822998Y-106528855D01*
X107822998Y-106528855D02*
X107570000Y-106275857D01*
X98471057Y-120629000D02*
X98989000Y-120629000D01*
X109165000Y-118885000D02*
X109165000Y-114112557D01*
X107222527Y-108291612D02*
X107822998Y-107691141D01*
X97860000Y-121248000D02*
X97860000Y-121240057D01*
X107570000Y-106275857D02*
X107570000Y-104060000D01*
X107570000Y-104060000D02*
X107621329Y-104008671D01*
X106600000Y-121450000D02*
X109165000Y-118885000D01*
G04 #@! TO.N,/ICD19*
X79400000Y-119670000D02*
X79293802Y-119670000D01*
X80758398Y-121675498D02*
X82720000Y-123637100D01*
X79020000Y-119943802D02*
X79020000Y-120685081D01*
X80293260Y-121675498D02*
X80758398Y-121675498D01*
X79020000Y-120685081D02*
X79391031Y-121056112D01*
X79391031Y-121056112D02*
X79673874Y-121056112D01*
X79293802Y-119670000D02*
X79020000Y-119943802D01*
X79673874Y-121056112D02*
X80293260Y-121675498D01*
X82720000Y-123637100D02*
X82720000Y-125440000D01*
X82720000Y-125440000D02*
X82830000Y-125550000D01*
G04 #@! TO.N,/ICD17*
X84586132Y-127476337D02*
X83431000Y-126321205D01*
X83431000Y-126321205D02*
X83431000Y-125301057D01*
X83121000Y-124991057D02*
X83121000Y-123471000D01*
X84586132Y-128098281D02*
X84586132Y-127476337D01*
X80924498Y-121274498D02*
X80459360Y-121274498D01*
X83431000Y-125301057D02*
X83121000Y-124991057D01*
X83121000Y-123471000D02*
X80924498Y-121274498D01*
X80459360Y-121274498D02*
X79639974Y-120455112D01*
X64525201Y-116925398D02*
X63602000Y-116002200D01*
X73941637Y-119051000D02*
X70055600Y-119051000D01*
X67191528Y-121108943D02*
X66839471Y-121461000D01*
X62738000Y-111781091D02*
X62860691Y-111658400D01*
X67062640Y-118943047D02*
X67062640Y-119029740D01*
X67020000Y-120439529D02*
X67191528Y-120611057D01*
X67062640Y-119029740D02*
X67020000Y-118987100D01*
X63602000Y-112420800D02*
X62962291Y-111781091D01*
X74155000Y-119224616D02*
X74115253Y-119224616D01*
X69595590Y-118590990D02*
X67414697Y-118590990D01*
X70055600Y-119051000D02*
X69595590Y-118590990D01*
X74115253Y-119224616D02*
X73941637Y-119051000D01*
X63602000Y-116002200D02*
X63602000Y-112420800D01*
X67020000Y-118987100D02*
X67020000Y-120439529D01*
X66839471Y-121461000D02*
X66341585Y-121461000D01*
X66341585Y-121461000D02*
X65989528Y-121108943D01*
X67414697Y-118590990D02*
X67062640Y-118943047D01*
X65989528Y-121107528D02*
X64525200Y-119643200D01*
X64525200Y-119643200D02*
X64525201Y-116925398D01*
X62962291Y-111781091D02*
X62738000Y-111781091D01*
X65989528Y-121108943D02*
X65989528Y-121107528D01*
X67191528Y-120611057D02*
X67191528Y-121108943D01*
G04 #@! TO.N,/ICD19*
X66790528Y-120777157D02*
X66790528Y-120860000D01*
X73362500Y-118650000D02*
X70221700Y-118650000D01*
X67248597Y-118189990D02*
X66661640Y-118776947D01*
X66661640Y-118778360D02*
X66619000Y-118821000D01*
X70221700Y-118650000D02*
X69761690Y-118189990D01*
X66619000Y-118821000D02*
X66619000Y-120605629D01*
X66619000Y-120605629D02*
X66790528Y-120777157D01*
X73692500Y-118320000D02*
X73362500Y-118650000D01*
X69761690Y-118189990D02*
X67248597Y-118189990D01*
X66661640Y-118776947D02*
X66661640Y-118778360D01*
X66790528Y-120860000D02*
X66590528Y-120860000D01*
G04 #@! TO.N,/ICD36*
X72999600Y-138506200D02*
X71805800Y-138506200D01*
X74510000Y-137360000D02*
X74145800Y-137360000D01*
X74145800Y-137360000D02*
X72999600Y-138506200D01*
D22*
G04 #@! TO.N,+5V*
X110140000Y-143160000D02*
X110140000Y-144470000D01*
X110140000Y-144470000D02*
X111350000Y-145680000D01*
X111350000Y-145680000D02*
X121870000Y-145680000D01*
X121870000Y-145680000D02*
X123306800Y-147116800D01*
D21*
G04 #@! TO.N,/LATCH*
X87160000Y-55180000D02*
X86820000Y-54840000D01*
X86820000Y-54840000D02*
X84360494Y-54840000D01*
X84360494Y-54840000D02*
X83775804Y-55424690D01*
G04 #@! TO.N,/OE*
X85868950Y-60218950D02*
X84883375Y-60218950D01*
X84883375Y-60218950D02*
X84830000Y-60272325D01*
X86550000Y-59537900D02*
X86550000Y-58600000D01*
X86550000Y-58600000D02*
X86415000Y-58465000D01*
X85868950Y-60218950D02*
X86550000Y-59537900D01*
G04 #@! TO.N,/ICD30*
X77978000Y-61362000D02*
X78130000Y-61210000D01*
X78634000Y-61362000D02*
X77978000Y-61362000D01*
X85081000Y-63389000D02*
X82270000Y-63389000D01*
X82270000Y-63389000D02*
X81951000Y-63070000D01*
X87555167Y-62830463D02*
X87493630Y-62892000D01*
X87493630Y-62892000D02*
X85578000Y-62892000D01*
X85578000Y-62892000D02*
X85081000Y-63389000D01*
X81951000Y-63070000D02*
X80342000Y-63070000D01*
X80342000Y-63070000D02*
X78634000Y-61362000D01*
G04 #@! TO.N,/SER6-7*
X87020735Y-61092000D02*
X87752843Y-61092000D01*
X86663156Y-61448579D02*
X86813966Y-61297769D01*
X87752843Y-61092000D02*
X91177000Y-57667843D01*
X91177000Y-57667843D02*
X91177000Y-54074470D01*
X91502885Y-53750000D02*
X91965000Y-53750000D01*
X91177000Y-54074470D02*
X91375999Y-53875471D01*
X86813966Y-61297769D02*
X86814966Y-61297769D01*
X86814966Y-61297769D02*
X87020735Y-61092000D01*
X91375999Y-53875471D02*
X91377414Y-53875471D01*
X91377414Y-53875471D02*
X91502885Y-53750000D01*
G04 #@! TO.N,/ICD29*
X87064000Y-63450686D02*
X87064000Y-63442000D01*
X87064000Y-63442000D02*
X86915000Y-63293000D01*
X85247100Y-63790000D02*
X82103900Y-63790000D01*
X85744100Y-63293000D02*
X85247100Y-63790000D01*
X82103900Y-63790000D02*
X81784900Y-63471000D01*
X81784900Y-63471000D02*
X81704879Y-63471000D01*
X81704711Y-63471168D02*
X80542425Y-63471168D01*
X86915000Y-63293000D02*
X85744100Y-63293000D01*
X80542425Y-63471168D02*
X80542257Y-63471000D01*
X80542257Y-63471000D02*
X80175900Y-63471000D01*
X80175900Y-63471000D02*
X78583450Y-61878550D01*
X78583450Y-61878550D02*
X77436050Y-61878550D01*
X81704879Y-63471000D02*
X81704711Y-63471168D01*
X76860000Y-61302500D02*
X76860000Y-61210000D01*
X77436050Y-61878550D02*
X76860000Y-61302500D01*
X87105314Y-63492000D02*
X87064000Y-63450686D01*
G04 #@! TO.N,/ICD31*
X85386100Y-62491000D02*
X84889100Y-62988000D01*
X89730000Y-60740000D02*
X89239043Y-60740000D01*
X88085043Y-61894000D02*
X87643100Y-61894000D01*
X82117100Y-62669000D02*
X80703000Y-62669000D01*
X87643100Y-61894000D02*
X87046100Y-62491000D01*
X89239043Y-60740000D02*
X88085043Y-61894000D01*
X82436100Y-62988000D02*
X82117100Y-62669000D01*
X80703000Y-62669000D02*
X79400000Y-61366000D01*
X84889100Y-62988000D02*
X82436100Y-62988000D01*
X87046100Y-62491000D02*
X85386100Y-62491000D01*
X89930000Y-60540000D02*
X89730000Y-60740000D01*
X79400000Y-61366000D02*
X79400000Y-61210000D01*
G04 #@! TO.N,/ICD32*
X80670000Y-61210000D02*
X80670000Y-62068900D01*
X87918943Y-61493000D02*
X91578000Y-57833943D01*
X80670000Y-62068900D02*
X80869100Y-62268000D01*
X80869100Y-62268000D02*
X82283200Y-62268000D01*
X87477000Y-61493000D02*
X87918943Y-61493000D01*
X82283200Y-62268000D02*
X82602200Y-62587000D01*
X86880000Y-62090000D02*
X87477000Y-61493000D01*
X82602200Y-62587000D02*
X84723000Y-62587000D01*
X84723000Y-62587000D02*
X85220000Y-62090000D01*
X91578000Y-57833943D02*
X91578000Y-55199500D01*
X85220000Y-62090000D02*
X86880000Y-62090000D01*
X91578000Y-55199500D02*
X93027500Y-53750000D01*
G04 #@! TO.N,/ICD9*
X134540634Y-64345634D02*
X134540634Y-65356366D01*
X134220000Y-64025000D02*
X134540634Y-64345634D01*
X134540634Y-65356366D02*
X134205972Y-65691028D01*
X129798943Y-63974000D02*
X127661602Y-63974000D01*
X133466456Y-64025000D02*
X133325000Y-64025000D01*
X134220000Y-64025000D02*
X133966342Y-64025000D01*
X133467456Y-64024000D02*
X133466456Y-64025000D01*
X133966342Y-64025000D02*
X133965342Y-64024000D01*
X133965342Y-64024000D02*
X133467456Y-64024000D01*
X133325000Y-64025000D02*
X132575000Y-64775000D01*
X127661602Y-63974000D02*
X127585602Y-63898000D01*
X132575000Y-64775000D02*
X130599943Y-64775000D01*
X130599943Y-64775000D02*
X129798943Y-63974000D01*
G04 #@! TO.N,/ICD63*
X133822527Y-65225943D02*
X133470470Y-65578000D01*
X133939634Y-64624406D02*
X133822527Y-64741513D01*
X122689708Y-63971709D02*
X122689708Y-63881504D01*
X133822527Y-64741513D02*
X133822527Y-65225943D01*
X133470470Y-65578000D02*
X132972584Y-65578000D01*
X132972584Y-65578000D02*
X132971584Y-65577000D01*
X128648943Y-65578000D02*
X128151057Y-65578000D01*
X132971584Y-65577000D02*
X128649943Y-65577000D01*
X128649943Y-65577000D02*
X128648943Y-65578000D01*
X128150057Y-65577000D02*
X126204800Y-65577000D01*
X126204800Y-65577000D02*
X124599800Y-63972000D01*
X128151057Y-65578000D02*
X128150057Y-65577000D01*
X124599800Y-63972000D02*
X122689999Y-63972000D01*
X122689999Y-63972000D02*
X122689708Y-63971709D01*
G04 #@! TO.N,/ICD10*
X128599000Y-65176000D02*
X128400000Y-64977000D01*
X133221527Y-65119872D02*
X133165399Y-65176000D01*
X133165399Y-65176000D02*
X128599000Y-65176000D01*
X133221527Y-64977000D02*
X133221527Y-65119872D01*
G04 #@! TO.N,/OE*
X126440000Y-62185298D02*
X126440000Y-60640000D01*
X133520000Y-63620000D02*
X133080000Y-63620000D01*
X128039500Y-58772457D02*
X127661000Y-58393957D01*
X133080000Y-63620000D02*
X132326000Y-64374000D01*
X132326000Y-64374000D02*
X130766043Y-64374000D01*
X133700000Y-62800000D02*
X133700000Y-63440000D01*
X127551702Y-63297000D02*
X126440000Y-62185298D01*
X133700000Y-63440000D02*
X133520000Y-63620000D01*
X126440000Y-60640000D02*
X126890500Y-60189500D01*
X128039500Y-59602543D02*
X128039500Y-58772457D01*
X130766043Y-64374000D02*
X129965043Y-63573000D01*
X126890500Y-60189500D02*
X127452543Y-60189500D01*
X129965043Y-63573000D02*
X128110545Y-63573000D01*
X128110545Y-63573000D02*
X127834545Y-63297000D01*
X127834545Y-63297000D02*
X127551702Y-63297000D01*
X127452543Y-60189500D02*
X128039500Y-59602543D01*
X127661000Y-58393957D02*
X127661000Y-57126800D01*
X127661000Y-57126800D02*
X124559200Y-54025000D01*
X124559200Y-54025000D02*
X123904500Y-54025000D01*
X123904500Y-54025000D02*
X123227500Y-53348000D01*
G04 #@! TO.N,/ICD63*
X142812689Y-92463584D02*
X143093746Y-92463584D01*
X143093746Y-92463584D02*
X145214766Y-94584604D01*
X142811689Y-92464584D02*
X142812689Y-92463584D01*
X145214766Y-94584604D02*
X145214766Y-94866034D01*
G04 #@! TO.N,/SER7-8*
X148395100Y-104622600D02*
X150286400Y-102731300D01*
X143058000Y-87667000D02*
X143058000Y-84876000D01*
X146097196Y-95467034D02*
X144965823Y-95467034D01*
X150286400Y-102731300D02*
X150286400Y-99656238D01*
X150286400Y-99656238D02*
X146097196Y-95467034D01*
X141274800Y-91541600D02*
X141274800Y-90358112D01*
X148148600Y-104622600D02*
X148395100Y-104622600D01*
X144613766Y-94550704D02*
X143127646Y-93064584D01*
X144613766Y-95114977D02*
X144613766Y-94550704D01*
X143127646Y-93064584D02*
X142311409Y-93064584D01*
X141267800Y-92020975D02*
X141267800Y-91548600D01*
X144965823Y-95467034D02*
X144613766Y-95114977D01*
X142311409Y-93064584D02*
X141267800Y-92020975D01*
X141267800Y-91548600D02*
X141274800Y-91541600D01*
X141274800Y-90358112D02*
X142402000Y-89230912D01*
X142402000Y-89230912D02*
X142402000Y-88323000D01*
X145136601Y-83554799D02*
X145303670Y-83554799D01*
X142402000Y-88323000D02*
X143058000Y-87667000D01*
X143058000Y-84876000D02*
X143059000Y-84875000D01*
X143059000Y-84875000D02*
X143059000Y-84203944D01*
X143059000Y-84203944D02*
X143620744Y-83642200D01*
X145049200Y-83642200D02*
X145136601Y-83554799D01*
X143620744Y-83642200D02*
X145049200Y-83642200D01*
G04 #@! TO.N,/OE*
X89970000Y-56595800D02*
X88765800Y-57800000D01*
X88765800Y-57800000D02*
X85740000Y-57800000D01*
X89472556Y-54060765D02*
X89534629Y-54122838D01*
X89534629Y-54122838D02*
X89711765Y-54122838D01*
X89711765Y-54122838D02*
X89970000Y-54381073D01*
X89970000Y-54381073D02*
X89970000Y-56595800D01*
X85740000Y-57800000D02*
X85680000Y-57860000D01*
G04 #@! TO.N,/SER6-7*
X110236900Y-53151000D02*
X111016558Y-53151000D01*
X91831211Y-52339968D02*
X91832068Y-52339968D01*
X109833900Y-52748000D02*
X110236900Y-53151000D01*
X91832068Y-52339968D02*
X92241100Y-52749000D01*
X92241100Y-52749000D02*
X106606457Y-52749000D01*
X106606457Y-52749000D02*
X106607457Y-52748000D01*
X106607457Y-52748000D02*
X109833900Y-52748000D01*
X111016558Y-53151000D02*
X111215558Y-53350000D01*
G04 #@! TO.N,/CLOCK*
X86060000Y-53370000D02*
X87252900Y-53370000D01*
X87252900Y-53370000D02*
X88248900Y-52374000D01*
X90276000Y-53196000D02*
X90776000Y-53696000D01*
X89923943Y-52374000D02*
X90276000Y-52726057D01*
X85939536Y-61137943D02*
X85939536Y-61138943D01*
X90276000Y-52726057D02*
X90276000Y-53196000D01*
X88248900Y-52374000D02*
X89923943Y-52374000D01*
X85579000Y-61491000D02*
X85570000Y-61500000D01*
X90776000Y-57501743D02*
X87586743Y-60691000D01*
X90776000Y-53696000D02*
X90776000Y-57501743D01*
X85985479Y-61092000D02*
X85939536Y-61137943D01*
X87586743Y-60691000D02*
X86531000Y-60691000D01*
X86531000Y-60691000D02*
X86130000Y-61092000D01*
X86130000Y-61092000D02*
X85985479Y-61092000D01*
X84935199Y-61500000D02*
X84564596Y-61129397D01*
X85939536Y-61138943D02*
X85587479Y-61491000D01*
X84564596Y-61129397D02*
X84564596Y-61096322D01*
X85587479Y-61491000D02*
X85579000Y-61491000D01*
X85570000Y-61500000D02*
X84935199Y-61500000D01*
G04 #@! TO.N,/LATCH*
X85964000Y-60691000D02*
X86365000Y-60290000D01*
X86365000Y-60290000D02*
X87420643Y-60290000D01*
X88409235Y-53460765D02*
X88010000Y-53860000D01*
X87420643Y-60290000D02*
X90375000Y-57335643D01*
X90375000Y-57335643D02*
X90375000Y-53865000D01*
X89970000Y-53460000D02*
X89510000Y-53460000D01*
X90375000Y-53865000D02*
X89970000Y-53460000D01*
X85338536Y-60691000D02*
X85964000Y-60691000D01*
X89510000Y-53460000D02*
X89509235Y-53460765D01*
X87675000Y-55975000D02*
X86625000Y-55975000D01*
X89509235Y-53460765D02*
X88409235Y-53460765D01*
X85338536Y-60890000D02*
X85338536Y-60691000D01*
X88010000Y-53860000D02*
X88010000Y-55640000D01*
X88010000Y-55640000D02*
X87675000Y-55975000D01*
X86625000Y-55975000D02*
X86160000Y-55510000D01*
G04 #@! TO.N,/ICD41*
X107483584Y-101347887D02*
X107317535Y-101347887D01*
X107034775Y-101065127D02*
X107034775Y-100946754D01*
X107039000Y-100942529D02*
X107039000Y-100353900D01*
X108531900Y-98861000D02*
X109117700Y-98861000D01*
X107039000Y-100353900D02*
X108531900Y-98861000D01*
X107317535Y-101347887D02*
X107034775Y-101065127D01*
X109117700Y-98861000D02*
X109649994Y-98328706D01*
X107034775Y-100946754D02*
X107039000Y-100942529D01*
X109649994Y-98328706D02*
X109649994Y-97530000D01*
G04 #@! TO.N,/ICD42*
X111250000Y-97862900D02*
X111250000Y-97530000D01*
X108913265Y-99895265D02*
X109217635Y-99895265D01*
X109217635Y-99895265D02*
X111250000Y-97862900D01*
G04 #@! TO.N,/ICD44*
X104655127Y-104420000D02*
X103550000Y-104420000D01*
G04 #@! TO.N,/ICD43*
X107671226Y-100570204D02*
X107671226Y-100288774D01*
X108698000Y-99262000D02*
X109283800Y-99262000D01*
G04 #@! TO.N,/ICD44*
X103231306Y-102118694D02*
X104958288Y-102118694D01*
G04 #@! TO.N,/ICD43*
X110449997Y-98095803D02*
X110449997Y-97530000D01*
X109283800Y-99262000D02*
X110449997Y-98095803D01*
G04 #@! TO.N,/ICD44*
X102770000Y-103640000D02*
X102770000Y-102580000D01*
G04 #@! TO.N,/ICD43*
X107671226Y-100288774D02*
X108698000Y-99262000D01*
G04 #@! TO.N,/ICD44*
X106531839Y-100545143D02*
X106531839Y-100293961D01*
X108830000Y-98460000D02*
X108990000Y-98300000D01*
X105149222Y-104914095D02*
X104655127Y-104420000D01*
X103550000Y-104420000D02*
X102770000Y-103640000D01*
X102770000Y-102580000D02*
X103231306Y-102118694D01*
X104958288Y-102118694D02*
X106531839Y-100545143D01*
X106531839Y-100293961D02*
X108365800Y-98460000D01*
X105204349Y-104914095D02*
X105149222Y-104914095D01*
X108365800Y-98460000D02*
X108830000Y-98460000D01*
X108990000Y-98300000D02*
X108990000Y-97670009D01*
X108990000Y-97670009D02*
X108849991Y-97530000D01*
X106437083Y-104731199D02*
X106670000Y-104964116D01*
X106670000Y-104964116D02*
X106670000Y-106510057D01*
X106670000Y-106510057D02*
X106849971Y-106690029D01*
X107020998Y-107358941D02*
X106629939Y-107750000D01*
X106405349Y-104731199D02*
X106437083Y-104731199D01*
X106849971Y-106690029D02*
X107020998Y-106861055D01*
X106629939Y-107750000D02*
X95692069Y-107750000D01*
X107020998Y-106861055D02*
X107020998Y-107358941D01*
X94814983Y-108635017D02*
X90699400Y-112750600D01*
X95692069Y-107750000D02*
X94814983Y-108627086D01*
X94814983Y-108627086D02*
X94814983Y-108635017D01*
X90699400Y-112750600D02*
X83007200Y-112750600D01*
G04 #@! TO.N,/ICD42*
X108223998Y-106362755D02*
X108223998Y-107857241D01*
G04 #@! TO.N,/ICD41*
X107169000Y-106441957D02*
X107169000Y-104313260D01*
G04 #@! TO.N,/ICD42*
X109419543Y-113800000D02*
X121812500Y-113800000D01*
G04 #@! TO.N,/ICD41*
X107421998Y-106694955D02*
X107169000Y-106441957D01*
X107169000Y-104313260D02*
X107020329Y-104164589D01*
G04 #@! TO.N,/ICD42*
X108220000Y-103664374D02*
X108222329Y-103666703D01*
X107971000Y-106109757D02*
X108223998Y-106362755D01*
G04 #@! TO.N,/ICD41*
X106821527Y-108125512D02*
X107421998Y-107525041D01*
G04 #@! TO.N,/ICD42*
X107623527Y-112003984D02*
X109419543Y-113800000D01*
G04 #@! TO.N,/ICD41*
X108102500Y-113900000D02*
X108102500Y-113617157D01*
X107020329Y-104164589D02*
X107020329Y-104132351D01*
X106821527Y-112336184D02*
X106821527Y-108125512D01*
G04 #@! TO.N,/ICD42*
X108220000Y-104166918D02*
X108220000Y-104244004D01*
G04 #@! TO.N,/ICD41*
X107020329Y-104132351D02*
X106821527Y-103933549D01*
X107421998Y-107525041D02*
X107421998Y-106694955D01*
G04 #@! TO.N,/ICD42*
X108381365Y-103281365D02*
X108220000Y-103442730D01*
G04 #@! TO.N,/ICD41*
X108102500Y-113617157D02*
X106821527Y-112336184D01*
G04 #@! TO.N,/ICD42*
X108220000Y-103442730D02*
X108220000Y-103664374D01*
X108222329Y-103666703D02*
X108222329Y-104164589D01*
X108222329Y-104164589D02*
X108220000Y-104166918D01*
X107623527Y-108457712D02*
X107623527Y-112003984D01*
X108220000Y-104244004D02*
X107971000Y-104493004D01*
X107971000Y-104493004D02*
X107971000Y-106109757D01*
X108223998Y-107857241D02*
X107623527Y-108457712D01*
X121812500Y-113800000D02*
X121932500Y-113920000D01*
G04 #@! TO.N,/ICD49*
X105427628Y-103790958D02*
X105427628Y-104288844D01*
X105452000Y-106948000D02*
X94666400Y-106948000D01*
X105451879Y-104313095D02*
X105453292Y-104313095D01*
X105427628Y-104288844D02*
X105451879Y-104313095D01*
X105805349Y-105163038D02*
X105590000Y-105378387D01*
X105453292Y-104313095D02*
X105805349Y-104665152D01*
X85394800Y-94327300D02*
X78140000Y-87072500D01*
X94666400Y-106948000D02*
X85394800Y-97676400D01*
X105590000Y-105378387D02*
X105590000Y-106810000D01*
X105590000Y-106810000D02*
X105452000Y-106948000D01*
X78140000Y-87072500D02*
X78140000Y-82060000D01*
X85394800Y-97676400D02*
X85394800Y-94327300D01*
X105805349Y-104665152D02*
X105805349Y-105163038D01*
X78140000Y-82060000D02*
X78615200Y-81584800D01*
X78615200Y-81584800D02*
X79612300Y-81584800D01*
G04 #@! TO.N,/ICD57*
X119528943Y-97801000D02*
X121701057Y-97801000D01*
X124031143Y-97890000D02*
X125410000Y-97890000D01*
X123159543Y-98761600D02*
X124031143Y-97890000D01*
X104482166Y-103094156D02*
X104484416Y-103091906D01*
X104484416Y-103091906D02*
X104992480Y-103091906D01*
X107150000Y-102530000D02*
X112301000Y-97379000D01*
X117949057Y-97379000D02*
X118334657Y-97764600D01*
X118349000Y-97764600D02*
X118349000Y-97778943D01*
X118334657Y-97764600D02*
X118349000Y-97764600D01*
X112301000Y-97379000D02*
X117949057Y-97379000D01*
X118349000Y-97778943D02*
X118701057Y-98131000D01*
X104168895Y-103094156D02*
X104482166Y-103094156D01*
X118701057Y-98131000D02*
X119198943Y-98131000D01*
X119198943Y-98131000D02*
X119528943Y-97801000D01*
X105554386Y-102530000D02*
X107150000Y-102530000D01*
X121701057Y-97801000D02*
X122661657Y-98761600D01*
X104992480Y-103091906D02*
X105554386Y-102530000D01*
X122661657Y-98761600D02*
X123159543Y-98761600D01*
X125410000Y-97890000D02*
X126685179Y-96614821D01*
X126685179Y-96614821D02*
X127225087Y-96614821D01*
X127225087Y-96614821D02*
X127397655Y-96787389D01*
G04 #@! TO.N,/ICD58*
X103370000Y-103052069D02*
X103370000Y-103330000D01*
X122495557Y-99162600D02*
X123325643Y-99162600D01*
X104901486Y-103750000D02*
X105720486Y-102931000D01*
X103790000Y-103750000D02*
X104901486Y-103750000D01*
X107316100Y-102931000D02*
X112467100Y-97780000D01*
X117782957Y-97780000D02*
X118534957Y-98532000D01*
X125679200Y-101448857D02*
X125679200Y-101683357D01*
X125679200Y-101683357D02*
X125479000Y-101883557D01*
X118534957Y-98532000D02*
X119365043Y-98532000D01*
X119695043Y-98202000D02*
X121534957Y-98202000D01*
X134897100Y-105308400D02*
X136503198Y-106914498D01*
X105720486Y-102931000D02*
X107316100Y-102931000D01*
X124197243Y-98291000D02*
X125164200Y-98291000D01*
X121534957Y-98202000D02*
X122495557Y-99162600D01*
X112467100Y-97780000D02*
X117782957Y-97780000D01*
X123325643Y-99162600D02*
X124197243Y-98291000D01*
X125164200Y-98291000D02*
X125663000Y-98789800D01*
X119365043Y-98532000D02*
X119695043Y-98202000D01*
X125479000Y-101883557D02*
X125479000Y-102381443D01*
X125663000Y-98789800D02*
X125663000Y-101432657D01*
X125663000Y-101432657D02*
X125679200Y-101448857D01*
X103370000Y-103330000D02*
X103790000Y-103750000D01*
X125479000Y-102381443D02*
X128405957Y-105308400D01*
X128405957Y-105308400D02*
X134897100Y-105308400D01*
X136503198Y-106914498D02*
X136503198Y-109064933D01*
X136503198Y-109064933D02*
X136488617Y-109079514D01*
X136488617Y-109079514D02*
X136220486Y-109079514D01*
G04 #@! TO.N,/ICD49*
X105980000Y-103332000D02*
X105886586Y-103332000D01*
X105886586Y-103332000D02*
X105427628Y-103790958D01*
G04 #@! TO.N,/ICD9*
X133060000Y-82507500D02*
X135803511Y-82507500D01*
X135803511Y-82507500D02*
X137728423Y-80582588D01*
G04 #@! TO.N,/LCD_LATCH*
X138650000Y-61320000D02*
X139775000Y-60195000D01*
X139775000Y-60195000D02*
X139775000Y-57417100D01*
X145356100Y-55151000D02*
X145806100Y-54701000D01*
X139775000Y-57417100D02*
X140150100Y-57042000D01*
X140150100Y-57042000D02*
X141492200Y-57042000D01*
X141492200Y-57042000D02*
X143383200Y-55151000D01*
X143383200Y-55151000D02*
X145356100Y-55151000D01*
X145806100Y-54701000D02*
X146959000Y-54701000D01*
X146959000Y-54701000D02*
X148060000Y-53600000D01*
X148060000Y-53600000D02*
X148880000Y-53600000D01*
G04 #@! TO.N,/ICD21*
X70128750Y-119691250D02*
X69429490Y-118991990D01*
X69429490Y-118991990D02*
X67863640Y-118991990D01*
X67863640Y-118991990D02*
X67663640Y-119191990D01*
G04 #@! TO.N,/ICD23*
X66230000Y-111510000D02*
X66230000Y-111639600D01*
X66230000Y-111639600D02*
X66370200Y-111779800D01*
X66370200Y-111779800D02*
X66370200Y-112496600D01*
X66903600Y-113030000D02*
X66903600Y-116086100D01*
X66370200Y-112496600D02*
X66903600Y-113030000D01*
X66903600Y-116086100D02*
X67108750Y-116291250D01*
X67108750Y-116291250D02*
X67042500Y-116225000D01*
G04 #@! TO.N,/ICD40*
X79968000Y-133652272D02*
X84799000Y-128821272D01*
X85157368Y-128462904D02*
X85186132Y-128434140D01*
X84799000Y-128814244D02*
X85150340Y-128462904D01*
X79968000Y-133785630D02*
X79968000Y-133652272D01*
X85186132Y-128434140D02*
X85186132Y-127476825D01*
X91013957Y-121649000D02*
X98511000Y-121649000D01*
X98600000Y-121560000D02*
X98600000Y-121350000D01*
X84799000Y-128821272D02*
X84799000Y-128814244D01*
X85150340Y-128462904D02*
X85157368Y-128462904D01*
X85186132Y-127476825D02*
X91013957Y-121649000D01*
X98511000Y-121649000D02*
X98600000Y-121560000D01*
X98600000Y-121350000D02*
X98700000Y-121250000D01*
G04 #@! TO.N,/ICD39*
X80568000Y-134353270D02*
X80568000Y-133619372D01*
X96165000Y-127795000D02*
X97685000Y-127795000D01*
X97685000Y-127795000D02*
X97770000Y-127880000D01*
X85316440Y-128863904D02*
X85341858Y-128863904D01*
X85200000Y-128987372D02*
X85200000Y-128980344D01*
X85200000Y-128980344D02*
X85316440Y-128863904D01*
X85341858Y-128863904D02*
X85342858Y-128862904D01*
X85342858Y-128862904D02*
X85840744Y-128862904D01*
X80350635Y-134570635D02*
X80568000Y-134353270D01*
X85840744Y-128862904D02*
X85841744Y-128863904D01*
X80568000Y-133619372D02*
X85200000Y-128987372D01*
X85841744Y-128863904D02*
X86121696Y-128863904D01*
X86121696Y-128863904D02*
X87001000Y-127984600D01*
X87001000Y-127984600D02*
X87001000Y-127363257D01*
X87001000Y-127363257D02*
X89514257Y-124850000D01*
X89514257Y-124850000D02*
X93220000Y-124850000D01*
X93220000Y-124850000D02*
X96165000Y-127795000D01*
G04 #@! TO.N,/ICD37*
X81370000Y-136060000D02*
X81370000Y-133951572D01*
X81370000Y-133951572D02*
X85256668Y-130064904D01*
X85256668Y-130064904D02*
X85885096Y-130064904D01*
X85885096Y-130064904D02*
X86433445Y-129516555D01*
X86433445Y-129516555D02*
X86607611Y-129516555D01*
D23*
G04 #@! TO.N,GND*
X93308734Y-77078134D02*
X93395800Y-77165200D01*
D21*
G04 #@! TO.N,/SERIAL*
X142134856Y-92038088D02*
X142326544Y-91846400D01*
X143043662Y-91846400D02*
X150687400Y-99490138D01*
X150441560Y-114878733D02*
X150918819Y-115355992D01*
X150918819Y-115853878D02*
X150566762Y-116205935D01*
X142326544Y-91846400D02*
X143043662Y-91846400D01*
X141337500Y-118342500D02*
X141337500Y-120052500D01*
X148894800Y-114401600D02*
X149371933Y-114878733D01*
X150566762Y-116205935D02*
X150217678Y-116205935D01*
X148894800Y-114012300D02*
X148894800Y-114401600D01*
X141709765Y-117970235D02*
X141337500Y-118342500D01*
X150687400Y-99490138D02*
X150687400Y-112219700D01*
X150687400Y-112219700D02*
X148894800Y-114012300D01*
X150918819Y-115355992D02*
X150918819Y-115841081D01*
X149371933Y-114878733D02*
X150441560Y-114878733D01*
X146701065Y-117970235D02*
X141709765Y-117970235D01*
X150217678Y-116205935D02*
X149942880Y-116480733D01*
X150918819Y-115849062D02*
X150918819Y-115853878D01*
X149942880Y-116480733D02*
X148190567Y-116480733D01*
X148190567Y-116480733D02*
X146701065Y-117970235D01*
G04 #@! TO.N,/LOAD(PL)*
X143003000Y-89104752D02*
X143104752Y-89104752D01*
X151892400Y-119162757D02*
X151892400Y-120892543D01*
X152291400Y-98825738D02*
X152291400Y-118763757D01*
X131542386Y-136901786D02*
X131572000Y-136931400D01*
X151892400Y-120892543D02*
X153093400Y-122093543D01*
X132879043Y-135839200D02*
X132232400Y-135839200D01*
X143104752Y-89104752D02*
X143297000Y-89297000D01*
X131542386Y-136529214D02*
X131542386Y-136901786D01*
X152291400Y-118763757D02*
X151892400Y-119162757D01*
X139859400Y-133959600D02*
X139295200Y-134523800D01*
X143297000Y-89297000D02*
X143297000Y-89812400D01*
X132232400Y-135839200D02*
X131542386Y-136529214D01*
X143298000Y-89813400D02*
X143298000Y-89832338D01*
X153093400Y-122093543D02*
X153093400Y-130607500D01*
X143297000Y-89812400D02*
X143298000Y-89813400D01*
X143298000Y-89832338D02*
X152291400Y-98825738D01*
X153093400Y-130607500D02*
X149741300Y-133959600D01*
X149741300Y-133959600D02*
X139859400Y-133959600D01*
X139295200Y-134523800D02*
X134194443Y-134523800D01*
X134194443Y-134523800D02*
X132879043Y-135839200D01*
G04 #@! TO.N,/LATCH*
X149885400Y-111887500D02*
X149885400Y-109042200D01*
X143031462Y-90700000D02*
X142400000Y-90700000D01*
X68070000Y-127350000D02*
X67770000Y-127350000D01*
X133900000Y-60579265D02*
X133900000Y-60448527D01*
X133880005Y-60428532D02*
X133878532Y-60428532D01*
X123140955Y-69984045D02*
X123222969Y-69902031D01*
X79632500Y-77795000D02*
X79632500Y-77466500D01*
X62404000Y-118106900D02*
X61945648Y-117648548D01*
X136400000Y-113150000D02*
X136160000Y-113150000D01*
X115780000Y-74000000D02*
X116107000Y-73673000D01*
X129652900Y-60500000D02*
X128440500Y-59287600D01*
X124848000Y-53348000D02*
X124497500Y-53348000D01*
X123801000Y-69139000D02*
X123801000Y-67417400D01*
X125471050Y-54369750D02*
X125471050Y-53971050D01*
X137965000Y-113475000D02*
X140339000Y-115849000D01*
X62404000Y-120484890D02*
X62404000Y-118106900D01*
X78425000Y-55085000D02*
X78130000Y-55085000D01*
X89475000Y-52775000D02*
X89675000Y-52975000D01*
X116184592Y-75315673D02*
X115780000Y-74911081D01*
X79632500Y-77466500D02*
X80289400Y-76809600D01*
X129022194Y-51144000D02*
X105943057Y-51144000D01*
X116393906Y-73673000D02*
X117051971Y-73014935D01*
X118591114Y-73014935D02*
X118992125Y-72613924D01*
X149361267Y-115478733D02*
X149527837Y-115478733D01*
X129758949Y-54150000D02*
X129957949Y-54349000D01*
X66493000Y-126073000D02*
X66493000Y-124573890D01*
X128440500Y-59287600D02*
X128440500Y-58606357D01*
X128062000Y-56960700D02*
X125471050Y-54369750D01*
X105943057Y-51144000D02*
X105942057Y-51145000D01*
X145923900Y-115849000D02*
X149885400Y-111887500D01*
X88415000Y-52775000D02*
X89475000Y-52775000D01*
X151489400Y-99157938D02*
X143031462Y-90700000D01*
X135885335Y-117168235D02*
X146368865Y-117168235D01*
X61945648Y-117648548D02*
X61718819Y-117648548D01*
X136600000Y-113350000D02*
X136400000Y-113150000D01*
X135601000Y-116883900D02*
X135885335Y-117168235D01*
X129532261Y-54150000D02*
X129758949Y-54150000D01*
X149270000Y-115570000D02*
X149361267Y-115478733D01*
X116107000Y-73673000D02*
X116393906Y-73673000D01*
X135601000Y-113709000D02*
X135601000Y-116883900D01*
X128470529Y-63172000D02*
X127929849Y-62631320D01*
X85620000Y-56050000D02*
X79390000Y-56050000D01*
X132401392Y-63334945D02*
X132138133Y-63334945D01*
X128062000Y-58227857D02*
X128062000Y-56960700D01*
X149885400Y-109042200D02*
X148148600Y-107305400D01*
X123801000Y-67417400D02*
X123802247Y-67416153D01*
X85674155Y-69991646D02*
X85674155Y-68730088D01*
X136160000Y-113150000D02*
X135601000Y-113709000D01*
X66493000Y-124573890D02*
X62404000Y-120484890D01*
X105942057Y-51145000D02*
X93998464Y-51145000D01*
X142201002Y-90528398D02*
X142201000Y-90528396D01*
X86160000Y-55510000D02*
X85620000Y-56050000D01*
X131873078Y-63600000D02*
X130559143Y-63600000D01*
X142228398Y-90528398D02*
X142201002Y-90528398D01*
X130559143Y-63600000D02*
X130131143Y-63172000D01*
X80289400Y-76809600D02*
X80289400Y-75376400D01*
X85674155Y-68730088D02*
X85862000Y-68542243D01*
X148148600Y-107305400D02*
X148148600Y-107137200D01*
X87360000Y-54980000D02*
X87360000Y-53830000D01*
X80289400Y-75376400D02*
X85674155Y-69991646D01*
X87360000Y-53830000D02*
X88415000Y-52775000D01*
X130131143Y-63172000D02*
X128470529Y-63172000D01*
X67770000Y-127350000D02*
X66493000Y-126073000D01*
X129957949Y-54349000D02*
X134374000Y-54349000D01*
X134374000Y-54349000D02*
X135500003Y-55475003D01*
X123085528Y-69984045D02*
X123140955Y-69984045D01*
X133807064Y-60500000D02*
X129652900Y-60500000D01*
X129997194Y-52119000D02*
X129022194Y-51144000D01*
X133900000Y-60448527D02*
X133880005Y-60428532D01*
X147967100Y-115570000D02*
X149270000Y-115570000D01*
X117051971Y-73014935D02*
X118591114Y-73014935D01*
X135500003Y-55475003D02*
X135500003Y-55850000D01*
X79390000Y-56050000D02*
X78425000Y-55085000D01*
X116184592Y-75315676D02*
X116184592Y-75315673D01*
X146368865Y-117168235D02*
X147967100Y-115570000D01*
X137641000Y-113475000D02*
X137965000Y-113475000D01*
X132138133Y-63334945D02*
X131873078Y-63600000D01*
X118992125Y-72613924D02*
X118992125Y-72418000D01*
X151489400Y-112551900D02*
X151489400Y-99157938D01*
X93998464Y-51145000D02*
X93791214Y-50937750D01*
X150545402Y-114088493D02*
X150545402Y-113495898D01*
X123802247Y-66788984D02*
X124592831Y-65998400D01*
X140339000Y-115849000D02*
X145923900Y-115849000D01*
X136650000Y-113350000D02*
X136600000Y-113350000D01*
X125471050Y-53971050D02*
X124848000Y-53348000D01*
X150355162Y-114278733D02*
X150545402Y-114088493D01*
X128440500Y-58606357D02*
X128062000Y-58227857D01*
X123222969Y-69717031D02*
X123801000Y-69139000D01*
X142400000Y-90700000D02*
X142228398Y-90528398D01*
X138650000Y-76560000D02*
X138254200Y-76560000D01*
X133878532Y-60428532D02*
X133807064Y-60500000D01*
X87160000Y-55180000D02*
X87360000Y-54980000D01*
X115780000Y-74911081D02*
X115780000Y-74000000D01*
X124592831Y-65998400D02*
X125020028Y-65998400D01*
X123802247Y-67416153D02*
X123802247Y-66788984D01*
X123222969Y-69902031D02*
X123222969Y-69717031D01*
X118992125Y-72418000D02*
X119189367Y-72418000D01*
X150545402Y-113495898D02*
X151489400Y-112551900D01*
G04 #@! TO.N,/CE*
X139193000Y-130703000D02*
X136534943Y-130703000D01*
X135566143Y-130703000D02*
X135275343Y-130412200D01*
X152692400Y-130441400D02*
X149575200Y-133558600D01*
X140197200Y-130697600D02*
X139198400Y-130697600D01*
X153095400Y-119661057D02*
X153494400Y-119262057D01*
X135275343Y-130412200D02*
X132534700Y-130412200D01*
X144500000Y-89314100D02*
X144500000Y-87678957D01*
X144096778Y-87275735D02*
X144060000Y-87275735D01*
X136534943Y-130703000D02*
X136533943Y-130704000D01*
X136036057Y-130704000D02*
X136035057Y-130703000D01*
X144500000Y-87678957D02*
X144096778Y-87275735D01*
X132534700Y-130412200D02*
X132475000Y-130352500D01*
X153095400Y-120158943D02*
X153095400Y-119661057D01*
X149575200Y-133558600D02*
X143058200Y-133558600D01*
X151293827Y-120974651D02*
X152692400Y-122373224D01*
X144501000Y-89334038D02*
X144501000Y-89315100D01*
X153494400Y-119262057D02*
X153494400Y-98327438D01*
X153696401Y-120511000D02*
X153447457Y-120511000D01*
X152692400Y-122373224D02*
X152692400Y-130441400D01*
X136533943Y-130704000D02*
X136036057Y-130704000D01*
X144501000Y-89315100D02*
X144500000Y-89314100D01*
X139198400Y-130697600D02*
X139193000Y-130703000D01*
X143058200Y-133558600D02*
X140197200Y-130697600D01*
X136035057Y-130703000D02*
X135566143Y-130703000D01*
X153447457Y-120511000D02*
X153095400Y-120158943D01*
X151293827Y-120973222D02*
X151293827Y-120974651D01*
X153494400Y-98327438D02*
X144501000Y-89334038D01*
X153696401Y-120712401D02*
X153696401Y-120511000D01*
D24*
G04 #@! TO.N,+5V*
X80000000Y-140900000D02*
X78400000Y-142500000D01*
D25*
X125512200Y-75271000D02*
X149442800Y-75271000D01*
D21*
X149475000Y-63575000D02*
X151420000Y-61630000D01*
D24*
X67200000Y-132241000D02*
X66191058Y-132241000D01*
X144597220Y-100712780D02*
X144597220Y-108302780D01*
X128445800Y-132000000D02*
X122550000Y-132000000D01*
X88620600Y-86182200D02*
X90271600Y-87833200D01*
D26*
X141860000Y-94332200D02*
X141502200Y-94690000D01*
D24*
X116842800Y-54785000D02*
X115100000Y-56527800D01*
X76202200Y-133680200D02*
X73964800Y-133680200D01*
X76352400Y-133530000D02*
X76202200Y-133680200D01*
D25*
X149442800Y-75271000D02*
X149504400Y-75209400D01*
D21*
X66146000Y-133370000D02*
X66131000Y-133385000D01*
D24*
X114500000Y-59211142D02*
X114500000Y-61100000D01*
X115100000Y-56527800D02*
X115100000Y-58611142D01*
D25*
X125476000Y-75234800D02*
X125512200Y-75271000D01*
D21*
X150780000Y-136890000D02*
X150780000Y-140880057D01*
D24*
X141250400Y-109880400D02*
X135890000Y-109880400D01*
D26*
X140020000Y-93720000D02*
X134829200Y-93720000D01*
X140766800Y-92228495D02*
X141860000Y-93321696D01*
D24*
X144597220Y-108302780D02*
X142450000Y-110450000D01*
X116980002Y-54785000D02*
X116842800Y-54785000D01*
D26*
X143413223Y-83141200D02*
X142558000Y-83996423D01*
X148900000Y-84300000D02*
X147454800Y-82854800D01*
X140773800Y-90150592D02*
X140773800Y-91334080D01*
D24*
X123700000Y-118000000D02*
X124400000Y-118700000D01*
D26*
X144725905Y-83141200D02*
X143413223Y-83141200D01*
X141901000Y-88115479D02*
X141901000Y-89023392D01*
D24*
X135890000Y-109880400D02*
X134632953Y-108623353D01*
X145150000Y-100160000D02*
X144597220Y-100712780D01*
D26*
X141860000Y-93321696D02*
X141860000Y-94332200D01*
D24*
X134632953Y-108623353D02*
X134632953Y-106317047D01*
D26*
X142558000Y-83996423D02*
X142558000Y-87458479D01*
D24*
X73964800Y-133680200D02*
X73345000Y-134300000D01*
X64689000Y-126189000D02*
X63540000Y-125040000D01*
D21*
X149475000Y-65200000D02*
X149475000Y-63575000D01*
D24*
X114500000Y-61100000D02*
X115274400Y-61874400D01*
X73345000Y-134300000D02*
X69259000Y-134300000D01*
D21*
X152391000Y-142491057D02*
X152391000Y-145349000D01*
D24*
X64689000Y-130738942D02*
X64689000Y-126189000D01*
X147375000Y-99900000D02*
X147115000Y-100160000D01*
D21*
X152391000Y-145349000D02*
X150810000Y-146930000D01*
D24*
X125400000Y-118700000D02*
X128200000Y-121500000D01*
D26*
X140773800Y-91334080D02*
X140766800Y-91341080D01*
D24*
X128200000Y-121500000D02*
X133850000Y-121500000D01*
D21*
X66131000Y-133385000D02*
X66131000Y-140386500D01*
X80930000Y-85847200D02*
X81265000Y-86182200D01*
X66146000Y-133350000D02*
X66146000Y-133370000D01*
D24*
X141820000Y-110450000D02*
X141250400Y-109880400D01*
D21*
X151420000Y-61630000D02*
X151420000Y-53600000D01*
X150780000Y-140880057D02*
X152391000Y-142491057D01*
D24*
X128727200Y-132281400D02*
X128445800Y-132000000D01*
D26*
X145595035Y-82854800D02*
X145594034Y-82853799D01*
D24*
X116545000Y-88355000D02*
X116500000Y-88400000D01*
X81265000Y-86182200D02*
X88620600Y-86182200D01*
D26*
X145594034Y-82853799D02*
X145013306Y-82853799D01*
D24*
X124400000Y-118700000D02*
X125400000Y-118700000D01*
X70700000Y-57062000D02*
X67995800Y-59766200D01*
X78400000Y-142500000D02*
X68267500Y-142500000D01*
X69259000Y-134300000D02*
X67200000Y-132241000D01*
X116545000Y-84590000D02*
X116545000Y-88355000D01*
D26*
X140766800Y-91341080D02*
X140766800Y-92228495D01*
X145013306Y-82853799D02*
X144725905Y-83141200D01*
X147454800Y-82854800D02*
X145595035Y-82854800D01*
D24*
X122550000Y-132000000D02*
X122500000Y-132050000D01*
D23*
X81290400Y-86207600D02*
X81265000Y-86182200D01*
D24*
X115274400Y-61874400D02*
X116433600Y-61874400D01*
D26*
X141901000Y-89023392D02*
X140773800Y-90150592D01*
D24*
X66191058Y-132241000D02*
X64689000Y-130738942D01*
D26*
X134829200Y-93720000D02*
X134315200Y-94234000D01*
X141502200Y-94690000D02*
X140990000Y-94690000D01*
X140990000Y-94690000D02*
X140020000Y-93720000D01*
D24*
X68267500Y-142500000D02*
X67132500Y-143635000D01*
X142450000Y-110450000D02*
X141820000Y-110450000D01*
X70700000Y-56675000D02*
X70700000Y-57062000D01*
D21*
X66131000Y-140386500D02*
X65532500Y-140985000D01*
D24*
X63540000Y-125040000D02*
X62390000Y-125040000D01*
X147115000Y-100160000D02*
X145150000Y-100160000D01*
X115100000Y-58611142D02*
X114500000Y-59211142D01*
D26*
X142558000Y-87458479D02*
X141901000Y-88115479D01*
D21*
G04 #@! TO.N,/SEROUT*
X153093400Y-98493538D02*
X144100000Y-89500138D01*
X152694400Y-120560343D02*
X152694400Y-119494957D01*
X143460000Y-87025792D02*
X143460000Y-84538000D01*
X152694400Y-119494957D02*
X153093400Y-119095957D01*
X138988800Y-135585200D02*
X139368000Y-135585200D01*
X140191600Y-134761600D02*
X150073500Y-134761600D01*
X143803585Y-84306472D02*
X143805000Y-84307887D01*
X139368000Y-135585200D02*
X140191600Y-134761600D01*
X144100000Y-89500138D02*
X144100000Y-89481200D01*
X143460000Y-84538000D02*
X143691528Y-84306472D01*
X153895400Y-130939700D02*
X153895400Y-121761343D01*
X144100000Y-89481200D02*
X144099000Y-89480200D01*
X150073500Y-134761600D02*
X153895400Y-130939700D01*
X144099000Y-88199000D02*
X143460000Y-87560000D01*
X144099000Y-89480200D02*
X144099000Y-88199000D01*
X143460000Y-87525678D02*
X143459000Y-87524678D01*
X143460000Y-87560000D02*
X143460000Y-87525678D01*
X143691528Y-84306472D02*
X143803585Y-84306472D01*
X143459000Y-87026792D02*
X143460000Y-87025792D01*
X143459000Y-87524678D02*
X143459000Y-87026792D01*
X153093400Y-119095957D02*
X153093400Y-98493538D01*
X153895400Y-121761343D02*
X152694400Y-120560343D01*
G04 #@! TO.N,/OE*
X62000000Y-120647990D02*
X62000000Y-118743600D01*
X149557631Y-113916569D02*
X151088400Y-112385800D01*
X85250000Y-57440000D02*
X84315000Y-57440000D01*
X131300000Y-62700000D02*
X130793343Y-62700000D01*
X146090000Y-116250000D02*
X150286400Y-112053600D01*
X66710000Y-126857100D02*
X66092000Y-126239100D01*
X61944235Y-118687835D02*
X61652165Y-118687835D01*
X130463343Y-62370000D02*
X129415165Y-62370000D01*
X128448056Y-54425000D02*
X128725000Y-54425000D01*
X77200000Y-55500000D02*
X77240000Y-55460000D01*
X77386000Y-55686000D02*
X78163900Y-55686000D01*
X62000000Y-118743600D02*
X61944235Y-118687835D01*
X78978900Y-56501000D02*
X82426000Y-56501000D01*
X81092260Y-75140640D02*
X86274155Y-69958746D01*
X134207900Y-54750000D02*
X134700000Y-55242100D01*
X85530000Y-57720000D02*
X85250000Y-57440000D01*
X150286400Y-112053600D02*
X150286400Y-108876100D01*
X106109157Y-51545000D02*
X106108157Y-51546000D01*
X61652165Y-118687835D02*
X61798200Y-118541800D01*
X68050000Y-129960000D02*
X66710000Y-128620000D01*
X124700600Y-66599400D02*
X125268971Y-66599400D01*
X129050000Y-54750000D02*
X134207900Y-54750000D01*
X130793343Y-62700000D02*
X130463343Y-62370000D01*
X84447500Y-57947500D02*
X85330000Y-58830000D01*
X85680000Y-57860000D02*
X85540000Y-57720000D01*
X106108157Y-51546000D02*
X93302815Y-51546000D01*
X77240000Y-55460000D02*
X77240000Y-55540000D01*
X129143691Y-52119000D02*
X128569691Y-51545000D01*
X124203247Y-67096753D02*
X124700600Y-66599400D01*
X83872500Y-57947500D02*
X84447500Y-57947500D01*
X137659535Y-116086465D02*
X137823070Y-116250000D01*
X93302815Y-51546000D02*
X93103815Y-51347000D01*
X125621028Y-66238901D02*
X125818893Y-66041036D01*
X148670000Y-115025330D02*
X147944670Y-115025330D01*
X116400932Y-74545481D02*
X116805451Y-74950000D01*
X85540000Y-57720000D02*
X85530000Y-57720000D01*
X81092260Y-75267740D02*
X81092260Y-75140640D01*
X124203247Y-67582253D02*
X124203247Y-67096753D01*
X66092000Y-126239100D02*
X66092000Y-124739990D01*
X148749600Y-106814200D02*
X148148600Y-106213200D01*
X83575000Y-56700000D02*
X83262500Y-56700000D01*
X151088400Y-112385800D02*
X151088400Y-99324038D01*
X137659535Y-116188047D02*
X137659535Y-116086465D01*
X149557631Y-114215902D02*
X149557631Y-113916569D01*
X77240000Y-55540000D02*
X77386000Y-55686000D01*
X136575000Y-115845000D02*
X136870000Y-115550000D01*
X133500000Y-62800000D02*
X132600000Y-61900000D01*
X80991441Y-77062612D02*
X80991441Y-75368559D01*
X82426000Y-56501000D02*
X83872500Y-57947500D01*
X66092000Y-124739990D02*
X62000000Y-120647990D01*
X132600000Y-61900000D02*
X132100000Y-61900000D01*
X125850000Y-72280000D02*
X124202000Y-70632000D01*
X80907891Y-77226650D02*
X80907891Y-77146162D01*
X148148600Y-106213200D02*
X148148600Y-106070400D01*
X125268971Y-66599400D02*
X125621028Y-66247343D01*
X66710000Y-128620000D02*
X66710000Y-126857100D01*
X116805451Y-74950000D02*
X122445846Y-74950000D01*
X133700000Y-62800000D02*
X133500000Y-62800000D01*
X137823070Y-116250000D02*
X146090000Y-116250000D01*
X125621028Y-66247343D02*
X125621028Y-66238901D01*
X85680000Y-57860000D02*
X85680000Y-57690000D01*
X85330000Y-58830000D02*
X86050000Y-58830000D01*
X122643335Y-75147489D02*
X122926178Y-75147489D01*
X138650000Y-79100000D02*
X138650000Y-78980000D01*
X85680000Y-57690000D02*
X85625000Y-57635000D01*
X132100000Y-61900000D02*
X131300000Y-62700000D01*
X146202765Y-116767235D02*
X137087235Y-116767235D01*
X134700000Y-55242100D02*
X134700000Y-55850000D01*
X128725000Y-54425000D02*
X129050000Y-54750000D01*
X151088400Y-99324038D02*
X143033974Y-91269612D01*
X143033974Y-91269612D02*
X141900000Y-91269612D01*
X136575000Y-116255000D02*
X136575000Y-115845000D01*
X86274155Y-69958746D02*
X86274155Y-69677318D01*
X122445846Y-74950000D02*
X122643335Y-75147489D01*
X129415165Y-62370000D02*
X128940165Y-61895000D01*
X150286400Y-108876100D02*
X148749600Y-107339300D01*
X125870000Y-72280000D02*
X125850000Y-72280000D01*
X84315000Y-57440000D02*
X83575000Y-56700000D01*
X80907891Y-77146162D02*
X80991441Y-77062612D01*
X148567335Y-114922665D02*
X148670000Y-115025330D01*
X148749600Y-107339300D02*
X148749600Y-106814200D01*
X147944670Y-115025330D02*
X146202765Y-116767235D01*
X86050000Y-58830000D02*
X86415000Y-58465000D01*
X78163900Y-55686000D02*
X78978900Y-56501000D01*
X137087235Y-116767235D02*
X136575000Y-116255000D01*
X124202000Y-67583500D02*
X124203247Y-67582253D01*
X80991441Y-75368559D02*
X81092260Y-75267740D01*
X128569691Y-51545000D02*
X106109157Y-51545000D01*
X124202000Y-70632000D02*
X124202000Y-67583500D01*
G04 #@! TO.N,/CLOCK*
X143178015Y-90279453D02*
X142802000Y-90279453D01*
X90070171Y-51700999D02*
X90070171Y-51718917D01*
X123400000Y-68616074D02*
X123400000Y-67251300D01*
X130649000Y-53749000D02*
X130848000Y-53948000D01*
X128463000Y-58061757D02*
X128841500Y-58440257D01*
X128841500Y-59121500D02*
X129720000Y-60000000D01*
X151063559Y-113960650D02*
X151063559Y-113544841D01*
X116885871Y-72613935D02*
X118142171Y-72613935D01*
X105776957Y-50743000D02*
X129471137Y-50743000D01*
X87350000Y-52530000D02*
X85490000Y-52530000D01*
X142629821Y-90107274D02*
X142629821Y-89853034D01*
X135200000Y-112200000D02*
X135200000Y-117050000D01*
X105775957Y-50744000D02*
X105776957Y-50743000D01*
X151063559Y-113544841D02*
X151890400Y-112718000D01*
X151015542Y-114029790D02*
X150994419Y-114029790D01*
X148024467Y-116079733D02*
X149776780Y-116079733D01*
X116227806Y-73272000D02*
X116885871Y-72613935D01*
X115310000Y-73727100D02*
X115765100Y-73272000D01*
X128643472Y-62495000D02*
X128690222Y-62495000D01*
X151146402Y-114160650D02*
X151015542Y-114029790D01*
X128966222Y-62771000D02*
X130297243Y-62771000D01*
X129720000Y-60000000D02*
X131370000Y-60000000D01*
X149484400Y-111721400D02*
X149484400Y-109208300D01*
X94486431Y-50744000D02*
X105775957Y-50744000D01*
X125971700Y-54303300D02*
X128463000Y-56794600D01*
X150128837Y-115604935D02*
X150317819Y-115604935D01*
X128463000Y-56794600D02*
X128463000Y-58061757D01*
X85014770Y-53370000D02*
X86060000Y-53370000D01*
X130726243Y-63200000D02*
X131686394Y-63200000D01*
X145757800Y-115448000D02*
X149484400Y-111721400D01*
X138900000Y-112050000D02*
X138900000Y-113842900D01*
X85060000Y-69757271D02*
X85060000Y-70038700D01*
X134623000Y-53948000D02*
X136130000Y-55455000D01*
X67126210Y-124856210D02*
X67126210Y-124640000D01*
X140505100Y-115448000D02*
X145757800Y-115448000D01*
X61772800Y-115900200D02*
X61747400Y-115874800D01*
X127315705Y-62017176D02*
X127328849Y-62030320D01*
X149776780Y-116079733D02*
X150128837Y-115727676D01*
X135200000Y-117050000D02*
X135719235Y-117569235D01*
X90070171Y-51718917D02*
X89939088Y-51850000D01*
X85073155Y-69742703D02*
X85073155Y-69744116D01*
X125767500Y-53348000D02*
X125971700Y-53552200D01*
X123401247Y-67250053D02*
X123401247Y-66622885D01*
X115310000Y-75440324D02*
X115310000Y-73727100D01*
X131370000Y-60000000D02*
X133574000Y-57796000D01*
X136130000Y-55455000D02*
X136130000Y-56970000D01*
X130797195Y-52069058D02*
X130797195Y-52119000D01*
X62805000Y-117618200D02*
X61772800Y-116586000D01*
X133574000Y-57796000D02*
X133574000Y-57682815D01*
X62805000Y-120318790D02*
X62805000Y-117618200D01*
X67126210Y-124640000D02*
X62805000Y-120318790D01*
X136130000Y-56970000D02*
X135425000Y-57675000D01*
X88030000Y-51850000D02*
X87350000Y-52530000D01*
X123401247Y-66622885D02*
X124371942Y-65652190D01*
X148561100Y-108285000D02*
X148234400Y-108285000D01*
X130297243Y-62771000D02*
X130726243Y-63200000D01*
X132172033Y-62733945D02*
X132370436Y-62535542D01*
X135600000Y-111800000D02*
X135200000Y-112200000D01*
X118142171Y-72613935D02*
X118391125Y-72364981D01*
X124371942Y-65652190D02*
X124371942Y-65508486D01*
X135719235Y-117569235D02*
X146534965Y-117569235D01*
X79654400Y-75444300D02*
X79654400Y-76503100D01*
X135775000Y-111350000D02*
X135600000Y-111525000D01*
X85060000Y-70038700D02*
X79654400Y-75444300D01*
X128690222Y-62495000D02*
X128966222Y-62771000D01*
X151890400Y-98991838D02*
X143178015Y-90279453D01*
X115765100Y-73272000D02*
X116227806Y-73272000D01*
X115419676Y-75550000D02*
X115310000Y-75440324D01*
X124371942Y-65508486D02*
X124565999Y-65314429D01*
X149484400Y-109208300D02*
X148561100Y-108285000D01*
X132152449Y-62733945D02*
X132172033Y-62733945D01*
X130848000Y-53948000D02*
X134623000Y-53948000D01*
X130455255Y-53749000D02*
X130649000Y-53749000D01*
X128841500Y-58440257D02*
X128841500Y-59121500D01*
X61772800Y-116586000D02*
X61772800Y-115900200D01*
X123400000Y-67251300D02*
X123401247Y-67250053D01*
X138250000Y-111400000D02*
X138900000Y-112050000D01*
X150128837Y-115727676D02*
X150128837Y-115604935D01*
X136700000Y-111400000D02*
X138250000Y-111400000D01*
X67610000Y-125340000D02*
X67126210Y-124856210D01*
X135600000Y-111525000D02*
X135600000Y-111800000D01*
X130206873Y-53720000D02*
X130426255Y-53720000D01*
X127328849Y-62030320D02*
X128178792Y-62030320D01*
X83484770Y-54900000D02*
X85014770Y-53370000D01*
X85073155Y-69744116D02*
X85060000Y-69757271D01*
X130426255Y-53720000D02*
X130455255Y-53749000D01*
X94486431Y-50541926D02*
X94486431Y-50744000D01*
X151890400Y-112718000D02*
X151890400Y-98991838D01*
X146534965Y-117569235D02*
X148024467Y-116079733D01*
X125971700Y-53552200D02*
X125971700Y-54303300D01*
X79585000Y-54900000D02*
X83484770Y-54900000D01*
X131686394Y-63200000D02*
X132152449Y-62733945D01*
X122758711Y-69257363D02*
X123400000Y-68616074D01*
X138900000Y-113842900D02*
X140505100Y-115448000D01*
X129471137Y-50743000D02*
X130797195Y-52069058D01*
X142802000Y-90279453D02*
X142629821Y-90107274D01*
X122750958Y-69257363D02*
X122758711Y-69257363D01*
X128178792Y-62030320D02*
X128643472Y-62495000D01*
X79654400Y-76503100D02*
X79632500Y-76525000D01*
X79400000Y-55085000D02*
X79585000Y-54900000D01*
X89939088Y-51850000D02*
X88030000Y-51850000D01*
X150994419Y-114029790D02*
X151063559Y-113960650D01*
G04 #@! TO.N,/SCK(CP)*
X139461300Y-134924800D02*
X140025500Y-134360600D01*
X153494400Y-130773600D02*
X153494400Y-121927443D01*
X143698000Y-89646300D02*
X143698000Y-88537300D01*
X132475000Y-136527500D02*
X132757843Y-136527500D01*
X152692400Y-118929857D02*
X152692400Y-98659638D01*
X143600000Y-88439300D02*
X143456628Y-88439300D01*
X143698000Y-88537300D02*
X143600000Y-88439300D01*
X143699000Y-89647300D02*
X143698000Y-89646300D01*
X152692400Y-98659638D02*
X143699000Y-89666238D01*
X143456628Y-88439300D02*
X143404000Y-88386672D01*
X140025500Y-134360600D02*
X149907400Y-134360600D01*
X149907400Y-134360600D02*
X153494400Y-130773600D01*
X152293400Y-120726443D02*
X152293400Y-119328857D01*
X152293400Y-119328857D02*
X152692400Y-118929857D01*
X143699000Y-89666238D02*
X143699000Y-89647300D01*
X134360543Y-134924800D02*
X139461300Y-134924800D01*
X132757843Y-136527500D02*
X134360543Y-134924800D01*
X153494400Y-121927443D02*
X152293400Y-120726443D01*
G04 #@! TO.N,Net-(d8-A)*
X127215600Y-91300000D02*
X128357800Y-92442200D01*
X126000000Y-91300000D02*
X127215600Y-91300000D01*
G04 #@! TO.N,Net-(d35-A)*
X94727678Y-132994400D02*
X94687340Y-133034738D01*
X101701600Y-131470400D02*
X102006400Y-131470400D01*
X103174800Y-132638800D02*
X105206800Y-132638800D01*
X105206800Y-132638800D02*
X105460800Y-132384800D01*
X102006400Y-131470400D02*
X103174800Y-132638800D01*
X94899800Y-132994400D02*
X94727678Y-132994400D01*
G04 #@! TO.N,Net-(d40-A)*
X100300000Y-118900000D02*
X100280000Y-118920000D01*
X100300000Y-115650000D02*
X100300000Y-118900000D01*
X101740000Y-114210000D02*
X100300000Y-115650000D01*
X101812500Y-114210000D02*
X101740000Y-114210000D01*
X100280000Y-118920000D02*
X100250000Y-118920000D01*
G04 #@! TO.N,Net-(d57-A)*
X98200000Y-99422043D02*
X96119643Y-101502400D01*
X98200000Y-97900000D02*
X98200000Y-99422043D01*
G04 #@! TO.N,Net-(d58-A)*
X102500000Y-98000000D02*
X104709345Y-100209345D01*
X104709345Y-100209345D02*
X104709345Y-101517694D01*
G04 #@! TO.N,Net-(d60-A)*
X96100000Y-90000000D02*
X96100000Y-91292043D01*
X96100000Y-91292043D02*
X94089643Y-93302400D01*
X96400000Y-89700000D02*
X96100000Y-90000000D01*
G04 #@! TO.N,/SER1-2*
X144902000Y-89167938D02*
X144902000Y-89149000D01*
X144901000Y-87512857D02*
X144661000Y-87272857D01*
X144902000Y-89149000D02*
X144901000Y-89148000D01*
X126980900Y-52748000D02*
X127779900Y-53547000D01*
X137425000Y-57410686D02*
X137425000Y-59109045D01*
X129023000Y-53547000D02*
X129450000Y-53120000D01*
X130676198Y-53120000D02*
X131103198Y-53547000D01*
X134789100Y-53547000D02*
X137124000Y-55881900D01*
X144661000Y-87272857D02*
X144661000Y-87026792D01*
X151292400Y-120173221D02*
X151279179Y-120160000D01*
X137124000Y-55881900D02*
X137124000Y-57109686D01*
X128723543Y-53547000D02*
X129023000Y-53547000D01*
X147795000Y-120160000D02*
X147687500Y-120052500D01*
X153895400Y-119564600D02*
X153895400Y-98161338D01*
X144901000Y-89148000D02*
X144901000Y-87512857D01*
X144661000Y-87026792D02*
X144308943Y-86674735D01*
X121957500Y-53012500D02*
X122222000Y-52748000D01*
X138193950Y-59881000D02*
X138196955Y-59881000D01*
X137549000Y-59233045D02*
X137549000Y-59236050D01*
X127891457Y-53547000D02*
X127892457Y-53548000D01*
X137549000Y-59236050D02*
X138193950Y-59881000D01*
X129450000Y-53120000D02*
X130676198Y-53120000D01*
X153696400Y-119910000D02*
X153696400Y-119763600D01*
X144308943Y-86674735D02*
X144274867Y-86674735D01*
X137124000Y-57109686D02*
X137425000Y-57410686D01*
X151279179Y-120160000D02*
X147795000Y-120160000D01*
X127779900Y-53547000D02*
X127891457Y-53547000D01*
X127892457Y-53548000D02*
X128722543Y-53548000D01*
X153895400Y-98161338D02*
X144902000Y-89167938D01*
X122222000Y-52748000D02*
X126980900Y-52748000D01*
X138196955Y-59881000D02*
X138364139Y-60048184D01*
X153696400Y-119763600D02*
X153895400Y-119564600D01*
X137425000Y-59109045D02*
X137549000Y-59233045D01*
X128722543Y-53548000D02*
X128723543Y-53547000D01*
X131103198Y-53547000D02*
X134789100Y-53547000D01*
G04 #@! TO.N,/SER2-3*
X110403000Y-52750000D02*
X110000000Y-52347000D01*
X111804000Y-51946000D02*
X111000000Y-52750000D01*
X127747157Y-51946000D02*
X111804000Y-51946000D01*
X128307500Y-52506343D02*
X127747157Y-51946000D01*
X128307500Y-52546000D02*
X128307500Y-52506343D01*
X111000000Y-52750000D02*
X110403000Y-52750000D01*
X110000000Y-52347000D02*
X106441357Y-52347000D01*
X106440357Y-52348000D02*
X92689772Y-52348000D01*
X106441357Y-52347000D02*
X106440357Y-52348000D01*
G04 #@! TO.N,/SER5-6*
X110699000Y-55149999D02*
X110699000Y-70066100D01*
X112719000Y-72086100D02*
X112719000Y-74496100D01*
X114351498Y-79815830D02*
X114351500Y-79815830D01*
X113133544Y-79818214D02*
X113322714Y-79818214D01*
X114321328Y-79846000D02*
X114351498Y-79815830D01*
X110699000Y-70066100D02*
X112719000Y-72086100D01*
X112760735Y-74537835D02*
X112760735Y-74819265D01*
X112719000Y-74496100D02*
X112760735Y-74537835D01*
X113322714Y-79818214D02*
X113350500Y-79846000D01*
X110501001Y-54952000D02*
X110699000Y-55149999D01*
X113350500Y-79846000D02*
X114321328Y-79846000D01*
G04 #@! TO.N,/SER6-7*
X86917136Y-69201316D02*
X87039626Y-69323806D01*
X111100000Y-69900000D02*
X114390000Y-73190000D01*
X81493260Y-75306740D02*
X81493260Y-76962076D01*
X81493260Y-77859600D02*
X81492260Y-77860600D01*
X81508891Y-77475593D02*
X81493260Y-77491224D01*
X111100000Y-55153004D02*
X111100000Y-69900000D01*
X111301004Y-54952000D02*
X111100000Y-55153004D01*
X81493260Y-76962076D02*
X81508891Y-76977707D01*
X81493260Y-77491224D02*
X81493260Y-77859600D01*
X87039626Y-69760374D02*
X81493260Y-75306740D01*
X87039626Y-69323806D02*
X87039626Y-69760374D01*
X81508891Y-76977707D02*
X81508891Y-77475593D01*
G04 #@! TO.N,/SER7-8*
X130842298Y-52719000D02*
X129283900Y-52719000D01*
X91100000Y-52541054D02*
X91100000Y-51880885D01*
X128556443Y-53147000D02*
X128058557Y-53147000D01*
X83283200Y-51101000D02*
X81717100Y-52667100D01*
X128856900Y-53146000D02*
X128557443Y-53146000D01*
X91687702Y-53150000D02*
X91125000Y-52587298D01*
X84357322Y-61697322D02*
X84315653Y-61697322D01*
X129283900Y-52719000D02*
X128856900Y-53146000D01*
X137525000Y-55715800D02*
X134955200Y-53146000D01*
X84489736Y-61829736D02*
X84357322Y-61697322D01*
X84287585Y-69962585D02*
X84287585Y-70244015D01*
X91125000Y-52587298D02*
X91125000Y-52566054D01*
X90320115Y-51101000D02*
X83283200Y-51101000D01*
X111825000Y-52575000D02*
X111825000Y-53590501D01*
X82525736Y-57449265D02*
X82321611Y-57245140D01*
X106772557Y-53150000D02*
X91687702Y-53150000D01*
X110426000Y-53951000D02*
X109624000Y-53149000D01*
X84230000Y-59005000D02*
X83624000Y-58399000D01*
X128057557Y-53146000D02*
X127946000Y-53146000D01*
X137842471Y-57262471D02*
X137842471Y-57261057D01*
X111825000Y-53590501D02*
X111464500Y-53951000D01*
X134955200Y-53146000D02*
X131269298Y-53146000D01*
X84230000Y-60580975D02*
X84230000Y-59005000D01*
X84315653Y-61697322D02*
X83963596Y-61345265D01*
X81717100Y-52998406D02*
X81778302Y-53059608D01*
X83624000Y-58391100D02*
X82682165Y-57449265D01*
X131269298Y-53146000D02*
X130842298Y-52719000D01*
X83963596Y-60847379D02*
X84230000Y-60580975D01*
X137842471Y-57261057D02*
X137525000Y-56943586D01*
X112053000Y-52347000D02*
X111825000Y-52575000D01*
X84489736Y-61903066D02*
X84489736Y-61829736D01*
X83624000Y-58399000D02*
X83624000Y-58391100D01*
X127946000Y-53146000D02*
X127147000Y-52347000D01*
X80700000Y-73831600D02*
X80238600Y-73831600D01*
X138040000Y-57460000D02*
X137842471Y-57262471D01*
X148148600Y-104622600D02*
X148174000Y-104648000D01*
X83963596Y-61345265D02*
X83963596Y-60847379D01*
X128557443Y-53146000D02*
X128556443Y-53147000D01*
X106773557Y-53149000D02*
X106772557Y-53150000D01*
X127147000Y-52347000D02*
X112053000Y-52347000D01*
X84287585Y-70244015D02*
X80700000Y-73831600D01*
X91100000Y-51880885D02*
X90320115Y-51101000D01*
X137525000Y-56943586D02*
X137525000Y-55715800D01*
X111464500Y-53951000D02*
X110426000Y-53951000D01*
X81717100Y-52667100D02*
X81717100Y-52998406D01*
X91125000Y-52566054D02*
X91100000Y-52541054D01*
X109624000Y-53149000D02*
X106773557Y-53149000D01*
X82682165Y-57449265D02*
X82525736Y-57449265D01*
X128058557Y-53147000D02*
X128057557Y-53146000D01*
G04 #@! TO.N,/btn1*
X143325000Y-132691200D02*
X140529400Y-129895600D01*
X148190000Y-132492200D02*
X147991000Y-132691200D01*
X147991000Y-132691200D02*
X143325000Y-132691200D01*
X140529400Y-129895600D02*
X137758200Y-129895600D01*
X137758200Y-129895600D02*
X137555000Y-129692400D01*
G04 #@! TO.N,/btn2*
X150019935Y-132326465D02*
X149199600Y-133146800D01*
X143213500Y-133146800D02*
X140363300Y-130296600D01*
X136484000Y-130302000D02*
X136285000Y-130103000D01*
X150019935Y-132265335D02*
X150019935Y-132326465D01*
X140363300Y-130296600D02*
X138486200Y-130296600D01*
X149199600Y-133146800D02*
X143213500Y-133146800D01*
X138486200Y-130296600D02*
X138480800Y-130302000D01*
X138480800Y-130302000D02*
X136484000Y-130302000D01*
G04 #@! TO.N,/btn3*
X131141386Y-136363114D02*
X131141386Y-136371414D01*
X135001000Y-131038600D02*
X135001000Y-133045200D01*
X132066300Y-135438200D02*
X131141386Y-136363114D01*
X131141386Y-136371414D02*
X130615400Y-136897400D01*
X134995600Y-133155543D02*
X132712943Y-135438200D01*
X130399588Y-141452600D02*
X129657400Y-141452600D01*
X130438879Y-141491891D02*
X130399588Y-141452600D01*
X130549003Y-139450997D02*
X130350000Y-139650000D01*
X129657400Y-141452600D02*
X128400000Y-142710000D01*
X130615400Y-139334660D02*
X130549003Y-139401057D01*
X132712943Y-135438200D02*
X132066300Y-135438200D01*
X130549003Y-139401057D02*
X130549003Y-139450997D01*
X135001000Y-133045200D02*
X134995600Y-133050600D01*
X134995600Y-133050600D02*
X134995600Y-133155543D01*
X135026400Y-131013200D02*
X135001000Y-131038600D01*
X130615400Y-136897400D02*
X130615400Y-139334660D01*
G04 #@! TO.N,/btn4*
X130214400Y-136731300D02*
X130214400Y-138935657D01*
X130740386Y-136197014D02*
X130740386Y-136205314D01*
X134594600Y-131714800D02*
X134594600Y-132969000D01*
X130214400Y-138935657D02*
X129749000Y-139401057D01*
X130740386Y-136205314D02*
X130214400Y-136731300D01*
X133926300Y-131046500D02*
X134594600Y-131714800D01*
X129749000Y-139898943D02*
X129977272Y-140127215D01*
X135590400Y-140309600D02*
X135850000Y-140050000D01*
X132526400Y-135037200D02*
X131900200Y-135037200D01*
X129977272Y-140127215D02*
X129977272Y-140137272D01*
X129749000Y-139401057D02*
X129749000Y-139898943D01*
X129977272Y-140137272D02*
X130149600Y-140309600D01*
X131900200Y-135037200D02*
X130740386Y-136197014D01*
X130149600Y-140309600D02*
X135590400Y-140309600D01*
X134594600Y-132969000D02*
X132526400Y-135037200D01*
G04 #@! TO.N,/btn5*
X139161800Y-137790200D02*
X139699000Y-138327400D01*
X139699000Y-138327400D02*
X139699000Y-140660000D01*
X136080100Y-137790200D02*
X139161800Y-137790200D01*
X135475300Y-137185400D02*
X136080100Y-137790200D01*
X134402901Y-137185400D02*
X135475300Y-137185400D01*
X133959237Y-136741736D02*
X134402901Y-137185400D01*
G04 #@! TO.N,/btn6*
X135384500Y-136527500D02*
X136246200Y-137389200D01*
X143532843Y-142510000D02*
X143591421Y-142568579D01*
X140100000Y-140049200D02*
X142560800Y-142510000D01*
X143591421Y-142568579D02*
X143450000Y-142710000D01*
X135015000Y-136527500D02*
X135384500Y-136527500D01*
X142560800Y-142510000D02*
X143532843Y-142510000D01*
X140100000Y-138161300D02*
X140100000Y-140049200D01*
X139327900Y-137389200D02*
X140100000Y-138161300D01*
X136246200Y-137389200D02*
X139327900Y-137389200D01*
G04 #@! TO.N,/btn7*
X139494000Y-136988200D02*
X136745700Y-136988200D01*
X140501000Y-137995200D02*
X139494000Y-136988200D01*
X148265000Y-142770000D02*
X144427800Y-142770000D01*
X136745700Y-136988200D02*
X136285000Y-136527500D01*
X140501000Y-139883100D02*
X140501000Y-137995200D01*
X144393872Y-142803928D02*
X143698943Y-142109000D01*
X143698943Y-142109000D02*
X142726900Y-142109000D01*
X144427800Y-142770000D02*
X144393872Y-142803928D01*
X148325000Y-142710000D02*
X148265000Y-142770000D01*
X142726900Y-142109000D02*
X140501000Y-139883100D01*
G04 #@! TO.N,/btn8*
X139660100Y-136587200D02*
X140902000Y-137829100D01*
X148573943Y-142109000D02*
X149212943Y-142748000D01*
X143865043Y-141708000D02*
X144526044Y-142369000D01*
X137555000Y-136388200D02*
X138093328Y-136388200D01*
X140902000Y-137829100D02*
X140902000Y-139717000D01*
X147816057Y-142369000D02*
X148076057Y-142109000D01*
X151782000Y-142748000D02*
X151790000Y-142740000D01*
X144526044Y-142369000D02*
X147816057Y-142369000D01*
X138093328Y-136388200D02*
X138292328Y-136587200D01*
X148076057Y-142109000D02*
X148573943Y-142109000D01*
X138292328Y-136587200D02*
X139660100Y-136587200D01*
X142893000Y-141708000D02*
X143865043Y-141708000D01*
X140902000Y-139717000D02*
X142893000Y-141708000D01*
X149212943Y-142748000D02*
X151782000Y-142748000D01*
G04 #@! TO.N,/ICD3*
X119898500Y-126828500D02*
X139466500Y-126828500D01*
X119590000Y-127410000D02*
X119590000Y-127137000D01*
X140067500Y-126227500D02*
X140041500Y-126201500D01*
X139466500Y-126828500D02*
X140067500Y-126227500D01*
X119590000Y-127137000D02*
X119898500Y-126828500D01*
G04 #@! TO.N,/ICD7*
X146029000Y-125331000D02*
X146029000Y-119075042D01*
X137279451Y-108821149D02*
X136904198Y-108445896D01*
X126080000Y-102415343D02*
X126080000Y-102132500D01*
X136904198Y-108445896D02*
X136904198Y-106748398D01*
X136904198Y-106748398D02*
X135063200Y-104907400D01*
X145147500Y-126227500D02*
X145147500Y-126212500D01*
X137282476Y-108885923D02*
X137279451Y-108882898D01*
X128572057Y-104907400D02*
X126080000Y-102415343D01*
X145147500Y-126212500D02*
X146029000Y-125331000D01*
X146029000Y-119075042D02*
X145785020Y-118831062D01*
X135063200Y-104907400D02*
X128572057Y-104907400D01*
X137279451Y-108882898D02*
X137279451Y-108821149D01*
G04 #@! TO.N,/ICD6*
X139317768Y-124919770D02*
X139302301Y-124919770D01*
X135862551Y-124162551D02*
X134750000Y-123050000D01*
X138545082Y-124162551D02*
X135862551Y-124162551D01*
X134750000Y-118222900D02*
X131136100Y-114609000D01*
X131136100Y-114366100D02*
X131090000Y-114320000D01*
X139302301Y-124919770D02*
X138545082Y-124162551D01*
X134750000Y-123050000D02*
X134750000Y-118222900D01*
X131136100Y-114609000D02*
X131136100Y-114366100D01*
G04 #@! TO.N,/ICD1*
X139870000Y-125600000D02*
X140279000Y-125191000D01*
X138575057Y-125600000D02*
X139870000Y-125600000D01*
X138148557Y-126026500D02*
X138575057Y-125600000D01*
X140279000Y-125191000D02*
X140279000Y-120264000D01*
X106608004Y-137669846D02*
X118251350Y-126026500D01*
X140279000Y-120264000D02*
X140067500Y-120052500D01*
X118251350Y-126026500D02*
X138148557Y-126026500D01*
G04 #@! TO.N,/ICD4*
X128010000Y-125426500D02*
X123783500Y-121200000D01*
X141430000Y-126320000D02*
X141337500Y-126227500D01*
X128349000Y-127229500D02*
X140100500Y-127229500D01*
X141010000Y-126320000D02*
X141430000Y-126320000D01*
X140100500Y-127229500D02*
X141010000Y-126320000D01*
X128150000Y-127428500D02*
X128349000Y-127229500D01*
X123783500Y-121200000D02*
X123750000Y-121200000D01*
G04 #@! TO.N,/ICD2*
X138797500Y-126227500D02*
X138597500Y-126427500D01*
X138597500Y-126427500D02*
X118417450Y-126427500D01*
X113493763Y-131351187D02*
X113493763Y-132560514D01*
X118417450Y-126427500D02*
X113493763Y-131351187D01*
G04 #@! TO.N,/ICD8*
X146430000Y-126215000D02*
X146417500Y-126227500D01*
X138118671Y-108972268D02*
X138118671Y-108908671D01*
X135229300Y-104506400D02*
X128738157Y-104506400D01*
X138040000Y-108750000D02*
X137305198Y-108015198D01*
X126064000Y-101266557D02*
X126064000Y-97836000D01*
X126681000Y-102381443D02*
X126681000Y-101883557D01*
X126681000Y-101883557D02*
X126064000Y-101266557D01*
X138058005Y-109019734D02*
X137977957Y-108939686D01*
X126669800Y-102392643D02*
X126681000Y-102381443D01*
X128738157Y-104506400D02*
X126669800Y-102438043D01*
X126404874Y-97495126D02*
X127682670Y-97495126D01*
X137305198Y-108015198D02*
X137305198Y-106582298D01*
X127682670Y-97495126D02*
X128004309Y-97173487D01*
X138040000Y-108830000D02*
X138040000Y-108750000D01*
X126669800Y-102438043D02*
X126669800Y-102392643D01*
X137305198Y-106582298D02*
X135229300Y-104506400D01*
X126064000Y-97836000D02*
X126404874Y-97495126D01*
X128004309Y-97173487D02*
X128004309Y-96265876D01*
X138071205Y-109019734D02*
X138118671Y-108972268D01*
X146541309Y-118570234D02*
X146430000Y-118681543D01*
X138118671Y-108908671D02*
X138040000Y-108830000D01*
X138071205Y-109019734D02*
X138058005Y-109019734D01*
X146430000Y-118681543D02*
X146430000Y-126215000D01*
G04 #@! TO.N,/ICD5*
X134243600Y-116918600D02*
X135295235Y-117970235D01*
X133454985Y-117776415D02*
X133454985Y-117494985D01*
X141000000Y-125600000D02*
X141700000Y-125600000D01*
X140680000Y-119648800D02*
X140680000Y-125280000D01*
X134214615Y-116838985D02*
X134243600Y-116810000D01*
X133454985Y-117494985D02*
X130970000Y-115010000D01*
X130970000Y-115010000D02*
X129830000Y-115010000D01*
X140680000Y-125280000D02*
X141000000Y-125600000D01*
X142327500Y-126227500D02*
X142607500Y-126227500D01*
X134243600Y-116810000D02*
X134243600Y-116918600D01*
X141700000Y-125600000D02*
X142327500Y-126227500D01*
X135295235Y-117970235D02*
X139001435Y-117970235D01*
X139001435Y-117970235D02*
X140680000Y-119648800D01*
G04 #@! TO.N,/ICD16*
X112226000Y-53756601D02*
X112226000Y-52999000D01*
X107222500Y-53550000D02*
X109457900Y-53550000D01*
X110259900Y-54352000D02*
X111630600Y-54352000D01*
X122451000Y-54426000D02*
X124393100Y-54426000D01*
X112477000Y-52748000D02*
X120773000Y-52748000D01*
X112226000Y-52999000D02*
X112477000Y-52748000D01*
X126376000Y-57976000D02*
X126837500Y-58437500D01*
X111630600Y-54352000D02*
X112226000Y-53756601D01*
X109457900Y-53550000D02*
X110259900Y-54352000D01*
X107022500Y-53750000D02*
X107222500Y-53550000D01*
X126376000Y-56408900D02*
X126376000Y-57976000D01*
X120773000Y-52748000D02*
X122451000Y-54426000D01*
X126837500Y-58987500D02*
X127037500Y-59187500D01*
X124393100Y-54426000D02*
X126376000Y-56408900D01*
X126837500Y-58437500D02*
X126837500Y-58987500D01*
G04 #@! TO.N,/ICD9*
X122284900Y-54827000D02*
X121234665Y-53776765D01*
X127286443Y-58586500D02*
X127260000Y-58586500D01*
X127638500Y-58938557D02*
X127286443Y-58586500D01*
X127260000Y-58586500D02*
X127260000Y-57935000D01*
X121234665Y-53776765D02*
X120420000Y-53776765D01*
X127286443Y-59788500D02*
X127638500Y-59436443D01*
X126461500Y-59788500D02*
X127286443Y-59788500D01*
X125975000Y-57417682D02*
X125975000Y-56575000D01*
X125617681Y-57775001D02*
X125975000Y-57417682D01*
X125901000Y-62213398D02*
X125901000Y-60349000D01*
X125775000Y-57775001D02*
X125617681Y-57775001D01*
X127260000Y-57935000D02*
X127000000Y-57675000D01*
X127638500Y-59436443D02*
X127638500Y-58938557D01*
X125901000Y-60349000D02*
X126461500Y-59788500D01*
X120420000Y-53776765D02*
X120399235Y-53756000D01*
X125975000Y-56575000D02*
X124227000Y-54827000D01*
X127585602Y-63898000D02*
X125901000Y-62213398D01*
X124227000Y-54827000D02*
X122284900Y-54827000D01*
G04 #@! TO.N,/ICD15*
X122065000Y-60715000D02*
X122065000Y-64244942D01*
X116812200Y-60201000D02*
X121551000Y-60201000D01*
X114211200Y-57850000D02*
X114211200Y-58650000D01*
X123086942Y-64425000D02*
X124121000Y-64425000D01*
X124121000Y-64425000D02*
X124268000Y-64572000D01*
X125500000Y-62667270D02*
X125500000Y-59455000D01*
X121551000Y-60201000D02*
X122065000Y-60715000D01*
X122914943Y-64596999D02*
X123086942Y-64425000D01*
X114211200Y-58650000D02*
X113252677Y-59608523D01*
X115400000Y-59600000D02*
X116211200Y-59600000D01*
X122065000Y-64244942D02*
X122417057Y-64596999D01*
X113252677Y-59608523D02*
X112072667Y-59608523D01*
X125500000Y-59455000D02*
X125767500Y-59187500D01*
X125388900Y-62778370D02*
X125500000Y-62667270D01*
X122417057Y-64596999D02*
X122914943Y-64596999D01*
X116211200Y-59600000D02*
X116812200Y-60201000D01*
G04 #@! TO.N,/ICD14*
X111730000Y-69962900D02*
X114237100Y-72470000D01*
X122599247Y-67350753D02*
X122599247Y-65644942D01*
X124485400Y-61650000D02*
X124485400Y-59199600D01*
X111730000Y-69620000D02*
X111730000Y-69962900D01*
X117303214Y-71343214D02*
X117292500Y-71353929D01*
X121505088Y-68834592D02*
X121505425Y-68834255D01*
X121505425Y-68834255D02*
X121505425Y-68444575D01*
X114237100Y-72470000D02*
X115895606Y-72470000D01*
X122599247Y-65644942D02*
X122799247Y-65444942D01*
X122799247Y-65444942D02*
X122799247Y-65395002D01*
X115895606Y-72470000D02*
X117036017Y-71329589D01*
X121505425Y-68444575D02*
X122599247Y-67350753D01*
X123709342Y-62426058D02*
X124485400Y-61650000D01*
X124485400Y-59199600D02*
X124497500Y-59187500D01*
X123709342Y-62570000D02*
X123709342Y-62426058D01*
X122799247Y-65395002D02*
X122998250Y-65195999D01*
G04 #@! TO.N,/ICD10*
X122466000Y-62743701D02*
X122466000Y-60491000D01*
X123293299Y-63571000D02*
X122466000Y-62743701D01*
X124765900Y-63571000D02*
X123293299Y-63571000D01*
X120030000Y-59800000D02*
X119417500Y-59187500D01*
X132702635Y-73354865D02*
X132060000Y-73997500D01*
X121775000Y-59800000D02*
X120030000Y-59800000D01*
X135687200Y-73354865D02*
X132702635Y-73354865D01*
X122466000Y-60491000D02*
X121775000Y-59800000D01*
X128400000Y-64977000D02*
X128201000Y-65176000D01*
X128201000Y-65176000D02*
X126370900Y-65176000D01*
X126370900Y-65176000D02*
X124765900Y-63571000D01*
G04 #@! TO.N,/ICD11*
X124932000Y-63170000D02*
X123459399Y-63170000D01*
X128028028Y-64499028D02*
X128027000Y-64498000D01*
X128027000Y-64498000D02*
X126260000Y-64498000D01*
X128648943Y-64376000D02*
X128151057Y-64376000D01*
X120650000Y-59225000D02*
X120687500Y-59187500D01*
X122867000Y-60324900D02*
X121941100Y-59399000D01*
X128151057Y-64376000D02*
X128028028Y-64499028D01*
X121941100Y-59399000D02*
X120650000Y-59399000D01*
X128648943Y-64376000D02*
X128847943Y-64575000D01*
X120650000Y-59399000D02*
X120650000Y-59225000D01*
X123459399Y-63170000D02*
X122867000Y-62577601D01*
X126260000Y-64498000D02*
X124932000Y-63170000D01*
X122867000Y-62577601D02*
X122867000Y-60324900D01*
X128847943Y-64575000D02*
X129550000Y-64575000D01*
G04 #@! TO.N,/ICD12*
X118572500Y-62701672D02*
X118572500Y-64225000D01*
X119600321Y-61673851D02*
X118572500Y-62701672D01*
G04 #@! TO.N,/ICD13*
X124746443Y-58586500D02*
X123828500Y-58586500D01*
X108610000Y-74160000D02*
X108410000Y-74360000D01*
X125098500Y-61980845D02*
X125098500Y-58938557D01*
X125098500Y-58938557D02*
X124746443Y-58586500D01*
X124509345Y-62570000D02*
X125098500Y-61980845D01*
X123646754Y-65403246D02*
X123770942Y-65403246D01*
X113931090Y-73860000D02*
X114610000Y-73860000D01*
X122478314Y-68611686D02*
X123000247Y-68089753D01*
X123000247Y-66049753D02*
X123646754Y-65403246D01*
X123000247Y-68089753D02*
X123000247Y-66049753D01*
X112014431Y-74160000D02*
X108610000Y-74160000D01*
X117687065Y-72212935D02*
X118110000Y-71790000D01*
X118110000Y-71790000D02*
X118110000Y-71616000D01*
X123828500Y-58586500D02*
X123227500Y-59187500D01*
X115599000Y-72871000D02*
X116061706Y-72871000D01*
X112119000Y-74264569D02*
X112014431Y-74160000D01*
X116061706Y-72871000D02*
X116719771Y-72212935D01*
X122273407Y-68611686D02*
X122478314Y-68611686D01*
X113746090Y-74045000D02*
X113931090Y-73860000D01*
X112119000Y-74170003D02*
X112119000Y-74264569D01*
X116719771Y-72212935D02*
X117687065Y-72212935D01*
X114610000Y-73860000D02*
X115599000Y-72871000D01*
G04 #@! TO.N,/ICD23*
X72340735Y-111879000D02*
X72415235Y-111879000D01*
X72340735Y-111190792D02*
X69900000Y-108750057D01*
X69900000Y-108750057D02*
X69900000Y-103174000D01*
X72340735Y-111879000D02*
X72340735Y-111190792D01*
X69900000Y-103174000D02*
X69062600Y-102336600D01*
G04 #@! TO.N,/ICD18*
X71284550Y-131521045D02*
X73120000Y-133356495D01*
X67390465Y-122227035D02*
X67620430Y-122457000D01*
X69937000Y-122457000D02*
X71284550Y-123804550D01*
X71284550Y-123804550D02*
X71284550Y-131521045D01*
X67620430Y-122457000D02*
X69937000Y-122457000D01*
G04 #@! TO.N,/ICD17*
X59856872Y-120206162D02*
X59856872Y-120807072D01*
X59853200Y-113939357D02*
X59853200Y-120202490D01*
X59853200Y-120202490D02*
X59856872Y-120206162D01*
X59455000Y-113541157D02*
X59853200Y-113939357D01*
X59856872Y-120807072D02*
X60030000Y-120980200D01*
G04 #@! TO.N,/ICD20*
X69059764Y-120069764D02*
X72030000Y-123040000D01*
X67620000Y-120069764D02*
X69059764Y-120069764D01*
X72030000Y-123040000D02*
X72046446Y-123040000D01*
X72046446Y-123040000D02*
X72051921Y-123034525D01*
G04 #@! TO.N,/ICD22*
X67643500Y-116456500D02*
X67643500Y-116473943D01*
X67291443Y-116826000D02*
X67274000Y-116826000D01*
X67042500Y-117057500D02*
X67042500Y-117495000D01*
X69470000Y-114450000D02*
X69470000Y-114630000D01*
X69470000Y-114630000D02*
X67643500Y-116456500D01*
X67643500Y-116473943D02*
X67291443Y-116826000D01*
X67274000Y-116826000D02*
X67042500Y-117057500D01*
G04 #@! TO.N,/ICD24*
X64003000Y-114653000D02*
X64003000Y-111950766D01*
X62661691Y-93899000D02*
X62860691Y-93700000D01*
X66268600Y-114955000D02*
X64305000Y-114955000D01*
X64003000Y-111950766D02*
X62661691Y-110609457D01*
X62661691Y-110609457D02*
X62661691Y-93899000D01*
X64305000Y-114955000D02*
X64003000Y-114653000D01*
G04 #@! TO.N,/ICD26*
X70332600Y-62950000D02*
X72012900Y-62950000D01*
X63068200Y-70154800D02*
X63068200Y-65557400D01*
X65675600Y-62950000D02*
X65786000Y-62950000D01*
X72012900Y-62950000D02*
X73050000Y-61912900D01*
X63068200Y-65557400D02*
X65675600Y-62950000D01*
X65989200Y-73075800D02*
X63068200Y-70154800D01*
X73050000Y-61912900D02*
X73050000Y-61341000D01*
G04 #@! TO.N,/ICD28*
X80525000Y-64071000D02*
X80208800Y-64071000D01*
X77011550Y-62279550D02*
X76052000Y-61320000D01*
X76052000Y-61320000D02*
X75700000Y-61320000D01*
X80208800Y-64071000D02*
X78417350Y-62279550D01*
X75700000Y-61320000D02*
X75590000Y-61210000D01*
X78417350Y-62279550D02*
X77011550Y-62279550D01*
G04 #@! TO.N,/ICD27*
X70789800Y-65130000D02*
X70789800Y-64740200D01*
X70789800Y-64740200D02*
X74320000Y-61210000D01*
G04 #@! TO.N,/ICD30*
X88065253Y-68988153D02*
X88065253Y-67936761D01*
X88151742Y-67874236D02*
X88185793Y-67840185D01*
X89459583Y-69830000D02*
X88907100Y-69830000D01*
X88002728Y-67874236D02*
X88151742Y-67874236D01*
X89614792Y-69674792D02*
X89459583Y-69830000D01*
X88907100Y-69830000D02*
X88065253Y-68988153D01*
X88065253Y-67936761D02*
X88002728Y-67874236D01*
G04 #@! TO.N,/ICD29*
X87464253Y-68185704D02*
X87464253Y-68954253D01*
X87464253Y-68954253D02*
X95920000Y-77410000D01*
X96420000Y-77410000D02*
X96520000Y-77510000D01*
X95920000Y-77410000D02*
X96420000Y-77410000D01*
G04 #@! TO.N,/ICD38*
X85800000Y-127430057D02*
X91180057Y-122050000D01*
X85787132Y-128256548D02*
X85800000Y-128243680D01*
X85800000Y-128243680D02*
X85800000Y-127430057D01*
X91180057Y-122050000D02*
X105910000Y-122050000D01*
G04 #@! TO.N,/ICD40*
X99850000Y-115240000D02*
X98820000Y-114210000D01*
X99850000Y-118470057D02*
X99850000Y-115240000D01*
X98704259Y-119615798D02*
X99850000Y-118470057D01*
X98820000Y-114210000D02*
X98887500Y-114210000D01*
X98704259Y-119950000D02*
X98704259Y-119615798D01*
G04 #@! TO.N,/ICD37*
X90370000Y-124200000D02*
X89597157Y-124200000D01*
X89597157Y-124200000D02*
X86400000Y-127397157D01*
X86400000Y-127397157D02*
X86400000Y-127680000D01*
G04 #@! TO.N,/ICD34*
X72098900Y-141376400D02*
X71707500Y-140985000D01*
X74523600Y-141376400D02*
X72098900Y-141376400D01*
X74701400Y-141198600D02*
X74523600Y-141376400D01*
G04 #@! TO.N,/ICD35*
X74701400Y-138785600D02*
X74701400Y-139141200D01*
X74091800Y-139750800D02*
X71780400Y-139750800D01*
X74701400Y-139141200D02*
X74091800Y-139750800D01*
G04 #@! TO.N,/ICD47*
X122914587Y-92355269D02*
X122914587Y-92148540D01*
X122910600Y-98160600D02*
X122150000Y-97400000D01*
X123444000Y-92884682D02*
X122914587Y-92355269D01*
X119080000Y-97400000D02*
X118950000Y-97530000D01*
X123444000Y-94629473D02*
X123444000Y-92884682D01*
X122150000Y-97400000D02*
X119080000Y-97400000D01*
G04 #@! TO.N,/ICD43*
X116966100Y-79999000D02*
X118867100Y-81900000D01*
X111668000Y-82815373D02*
X111668000Y-82487800D01*
X111290507Y-83192866D02*
X111668000Y-82815373D01*
X118867100Y-81900000D02*
X120270000Y-81900000D01*
X114764957Y-80818000D02*
X115583957Y-79999000D01*
X120270000Y-81900000D02*
X120810000Y-81360000D01*
X111668000Y-82487800D02*
X113337800Y-80818000D01*
X115583957Y-79999000D02*
X116966100Y-79999000D01*
X113337800Y-80818000D02*
X114764957Y-80818000D01*
G04 #@! TO.N,/ICD42*
X112069000Y-83442849D02*
X111569031Y-83942818D01*
X113503900Y-81219000D02*
X112069000Y-82653900D01*
X115750057Y-80400000D02*
X114931057Y-81219000D01*
X112069000Y-82653900D02*
X112069000Y-83442849D01*
X118700000Y-82300000D02*
X116800000Y-80400000D01*
X121140000Y-82300000D02*
X118700000Y-82300000D01*
X116800000Y-80400000D02*
X115750057Y-80400000D01*
X114931057Y-81219000D02*
X113503900Y-81219000D01*
G04 #@! TO.N,/ICD45*
X116781250Y-110773438D02*
X117050000Y-110504688D01*
X122123200Y-91897200D02*
X122123200Y-93976800D01*
X121175000Y-94925000D02*
X118049000Y-94925000D01*
X117050000Y-110504688D02*
X117050000Y-98450000D01*
X118049000Y-94925000D02*
X117850000Y-94726000D01*
X122123200Y-93976800D02*
X121175000Y-94925000D01*
G04 #@! TO.N,/ICD44*
X114598857Y-80417000D02*
X115417857Y-79598000D01*
X119801000Y-81499000D02*
X121100000Y-80200000D01*
X110740000Y-81680000D02*
X111908700Y-81680000D01*
X117132200Y-79598000D02*
X119033200Y-81499000D01*
X111908700Y-81680000D02*
X113171700Y-80417000D01*
X115417857Y-79598000D02*
X117132200Y-79598000D01*
X113171700Y-80417000D02*
X114598857Y-80417000D01*
X119033200Y-81499000D02*
X119801000Y-81499000D01*
X110732432Y-81687568D02*
X110740000Y-81680000D01*
X121100000Y-80200000D02*
X121100000Y-80150000D01*
G04 #@! TO.N,/ICD46*
X120354144Y-102715856D02*
X120472200Y-102597800D01*
X120472200Y-99838920D02*
X121397775Y-98913345D01*
X123967336Y-95250464D02*
X123967336Y-92558075D01*
X123967336Y-92558075D02*
X123727872Y-92318611D01*
X120472200Y-102597800D02*
X120472200Y-99838920D01*
G04 #@! TO.N,/ICD48*
X123753343Y-95885000D02*
X123194343Y-95326000D01*
X124715227Y-92457227D02*
X124612400Y-92560054D01*
X124612400Y-95529400D02*
X124256800Y-95885000D01*
X124256800Y-95885000D02*
X123753343Y-95885000D01*
X124628273Y-92457227D02*
X124715227Y-92457227D01*
X117526000Y-95326000D02*
X116700000Y-94500000D01*
X124612400Y-92560054D02*
X124612400Y-95529400D01*
X124617251Y-92446205D02*
X124628273Y-92457227D01*
X123194343Y-95326000D02*
X117526000Y-95326000D01*
G04 #@! TO.N,/ICD41*
X112170031Y-84191761D02*
X111817974Y-84543818D01*
X113670000Y-81620000D02*
X112470000Y-82820000D01*
X110968031Y-83720333D02*
X110689507Y-83441809D01*
X112170031Y-83908918D02*
X112170031Y-84191761D01*
X115920000Y-81080000D02*
X115380000Y-81620000D01*
X111320088Y-84543818D02*
X110968031Y-84191761D01*
X111817974Y-84543818D02*
X111320088Y-84543818D01*
X112470000Y-83608949D02*
X112170031Y-83908918D01*
X111058092Y-82575338D02*
X111058092Y-82427368D01*
X110968031Y-84191761D02*
X110968031Y-83720333D01*
X110689507Y-82943923D02*
X111058092Y-82575338D01*
X110689507Y-83441809D02*
X110689507Y-82943923D01*
X112470000Y-82820000D02*
X112470000Y-83608949D01*
X115380000Y-81620000D02*
X113670000Y-81620000D01*
G04 #@! TO.N,/ICD51*
X93838000Y-107253800D02*
X93825000Y-107266800D01*
X85807500Y-81605000D02*
X85508300Y-81605000D01*
X85508300Y-81605000D02*
X84472100Y-80568800D01*
X77918400Y-80568800D02*
X77264800Y-81222400D01*
X93825000Y-107266800D02*
X93825000Y-108575000D01*
X84592800Y-94659500D02*
X84592800Y-98008600D01*
X77264800Y-81222400D02*
X77264800Y-87331500D01*
X84592800Y-98008600D02*
X93838000Y-107253800D01*
X84472100Y-80568800D02*
X77918400Y-80568800D01*
X77264800Y-87331500D02*
X84592800Y-94659500D01*
X93825000Y-108575000D02*
X93750000Y-108500000D01*
G04 #@! TO.N,/ICD53*
X76462800Y-87663700D02*
X83790800Y-94991700D01*
X76462800Y-80890200D02*
X76462800Y-87663700D01*
X83790800Y-98340800D02*
X84226400Y-98776400D01*
X77622400Y-79730600D02*
X76462800Y-80890200D01*
X85438828Y-79730600D02*
X77622400Y-79730600D01*
X86267714Y-78901714D02*
X85438828Y-79730600D01*
X83790800Y-94991700D02*
X83790800Y-98340800D01*
X84226400Y-99433601D02*
X76540001Y-107120000D01*
X84226400Y-98776400D02*
X84226400Y-99433601D01*
G04 #@! TO.N,/ICD56*
X76051000Y-87819000D02*
X76051000Y-80734900D01*
X85666714Y-78652771D02*
X86018771Y-78300714D01*
X77523300Y-79262600D02*
X85058300Y-79262600D01*
X83190800Y-98300000D02*
X83389800Y-98101000D01*
X86408500Y-75364100D02*
X86436200Y-75336400D01*
X86208500Y-78112400D02*
X86208500Y-76973943D01*
X85058300Y-79262600D02*
X85666714Y-78654186D01*
X86020186Y-78300714D02*
X86208500Y-78112400D01*
X86018771Y-78300714D02*
X86020186Y-78300714D01*
X83389800Y-95157800D02*
X76051000Y-87819000D01*
X86208500Y-76973943D02*
X86408500Y-76773943D01*
X85666714Y-78654186D02*
X85666714Y-78652771D01*
X83389800Y-98101000D02*
X83389800Y-95157800D01*
X76051000Y-80734900D02*
X77523300Y-79262600D01*
X86408500Y-76773943D02*
X86408500Y-75364100D01*
G04 #@! TO.N,/ICD49*
X108133835Y-102680365D02*
X107482200Y-103332000D01*
X108982365Y-103530308D02*
X108982365Y-103032422D01*
X108822329Y-103690344D02*
X108982365Y-103530308D01*
X108982365Y-103032422D02*
X108630308Y-102680365D01*
X107482200Y-103332000D02*
X105980000Y-103332000D01*
X108822329Y-103976307D02*
X108822329Y-103690344D01*
X108630308Y-102680365D02*
X108133835Y-102680365D01*
G04 #@! TO.N,/ICD50*
X84074000Y-80975200D02*
X78079102Y-80975200D01*
X94500300Y-107349000D02*
X106008996Y-107349000D01*
X77702000Y-87201600D02*
X84993800Y-94493400D01*
X77702000Y-81352302D02*
X77702000Y-87201600D01*
X84993800Y-94493400D02*
X84993800Y-97842500D01*
X85807500Y-82875000D02*
X85807500Y-82708700D01*
X78079102Y-80975200D02*
X77702000Y-81352302D01*
X85807500Y-82708700D02*
X84074000Y-80975200D01*
X106247998Y-107109998D02*
X106419998Y-107109998D01*
X84993800Y-97842500D02*
X94500300Y-107349000D01*
X106008996Y-107349000D02*
X106247998Y-107109998D01*
G04 #@! TO.N,/ICD52*
X90271600Y-105710112D02*
X88535856Y-107445856D01*
X85640300Y-80167800D02*
X77752300Y-80167800D01*
X77752300Y-80167800D02*
X76863800Y-81056300D01*
X84191800Y-94825600D02*
X84191800Y-98174700D01*
X90271600Y-104254500D02*
X90271600Y-105710112D01*
X76863800Y-87497600D02*
X84191800Y-94825600D01*
X84191800Y-98174700D02*
X90271600Y-104254500D01*
X76863800Y-81056300D02*
X76863800Y-87497600D01*
X85807500Y-80335000D02*
X85640300Y-80167800D01*
G04 #@! TO.N,/ICD55*
X75650000Y-80568800D02*
X77357200Y-78861600D01*
X82666855Y-95001955D02*
X75650000Y-87985100D01*
X82782378Y-95716504D02*
X82666855Y-95600981D01*
X77357200Y-78861600D02*
X84892200Y-78861600D01*
X85807500Y-77946300D02*
X85807500Y-76525000D01*
X84892200Y-78861600D02*
X85807500Y-77946300D01*
X82666855Y-95600981D02*
X82666855Y-95001955D01*
X75650000Y-87985100D02*
X75650000Y-80568800D01*
G04 #@! TO.N,/ICD54*
X84894335Y-78021265D02*
X84455000Y-78460600D01*
X76682600Y-89584800D02*
X76682600Y-93141800D01*
X75249000Y-80402700D02*
X75249000Y-88151200D01*
X76682600Y-93141800D02*
X76657200Y-93167200D01*
X84455000Y-78460600D02*
X77191100Y-78460600D01*
X77191100Y-78460600D02*
X75249000Y-80402700D01*
X75249000Y-88151200D02*
X76682600Y-89584800D01*
G04 #@! TO.N,/ICD64*
X113497147Y-74646000D02*
X113145090Y-74293943D01*
X123312892Y-75610717D02*
X123175121Y-75748489D01*
X122279746Y-75351000D02*
X117039000Y-75351000D01*
X109280000Y-58380000D02*
X101552500Y-58380000D01*
X128405309Y-97339587D02*
X127848770Y-97896126D01*
X135395400Y-104105400D02*
X137706198Y-106416198D01*
X128405309Y-96765691D02*
X128405309Y-97339587D01*
X110298000Y-70232200D02*
X110298000Y-59398000D01*
X114486000Y-74646000D02*
X113497147Y-74646000D01*
X115669619Y-76150000D02*
X115668619Y-76151000D01*
X137706198Y-107806198D02*
X138318734Y-108418734D01*
X124866194Y-91845205D02*
X124789005Y-91845205D01*
X113145090Y-74293943D02*
X113145090Y-73542452D01*
X128778000Y-96393000D02*
X128405309Y-96765691D01*
X115668619Y-76151000D02*
X115170733Y-76151000D01*
X126465000Y-98248800D02*
X126465000Y-101100457D01*
X117039000Y-75351000D02*
X116240000Y-76150000D01*
X126465000Y-101100457D02*
X127082000Y-101717457D01*
X124767690Y-91823890D02*
X124767690Y-91660475D01*
X123175121Y-75748489D02*
X122677235Y-75748489D01*
X114818676Y-75798943D02*
X114818676Y-74978676D01*
X113145090Y-73542452D02*
X113319000Y-73368542D01*
X128778000Y-96062400D02*
X128778000Y-96393000D01*
X110298000Y-59398000D02*
X109280000Y-58380000D01*
X138672205Y-108772205D02*
X139179400Y-109279400D01*
X137706198Y-106416198D02*
X137706198Y-107806198D01*
X127300000Y-92200000D02*
X125218251Y-92200000D01*
X138318734Y-108418734D02*
X138320148Y-108418734D01*
X122677235Y-75748489D02*
X122279746Y-75351000D01*
X127082000Y-102283143D02*
X128904257Y-104105400D01*
X127082000Y-101717457D02*
X127082000Y-102283143D01*
X138320148Y-108418734D02*
X138672205Y-108770791D01*
X127500000Y-92400000D02*
X127300000Y-92200000D01*
X125218251Y-92197262D02*
X124866194Y-91845205D01*
X127848770Y-97896126D02*
X126817674Y-97896126D01*
X128904257Y-104105400D02*
X135395400Y-104105400D01*
X116240000Y-76150000D02*
X115669619Y-76150000D01*
X112119000Y-73370000D02*
X112318000Y-73171000D01*
X125218251Y-92200000D02*
X125218251Y-92197262D01*
X127500000Y-92700000D02*
X127500000Y-92400000D01*
X138672205Y-108770791D02*
X138672205Y-108772205D01*
X115170733Y-76151000D02*
X114818676Y-75798943D01*
X123452313Y-75750138D02*
X123312892Y-75610717D01*
X114818676Y-74978676D02*
X114486000Y-74646000D01*
X126817674Y-97896126D02*
X126465000Y-98248800D01*
X112318000Y-73171000D02*
X112318000Y-72252200D01*
X139179400Y-109279400D02*
X141938031Y-109279400D01*
X112318000Y-72252200D02*
X110298000Y-70232200D01*
X124789005Y-91845205D02*
X124767690Y-91823890D01*
X141938031Y-109279400D02*
X142213630Y-109554999D01*
G04 #@! TO.N,/ICD58*
X141780000Y-102930000D02*
X141780000Y-103041843D01*
X139416464Y-108443536D02*
X139192066Y-108443536D01*
X141720000Y-102870000D02*
X141780000Y-102930000D01*
X141399000Y-103422843D02*
X141399000Y-106461000D01*
X141789000Y-102750000D02*
X141720000Y-102819000D01*
X141399000Y-106461000D02*
X139416464Y-108443536D01*
X141720000Y-102819000D02*
X141720000Y-102870000D01*
X141780000Y-103041843D02*
X141399000Y-103422843D01*
G04 #@! TO.N,/ICD59*
X143430000Y-99638700D02*
X143430000Y-99628538D01*
X143592000Y-103950561D02*
X143592000Y-99800700D01*
X132075655Y-95510126D02*
X132273735Y-95708206D01*
X136760000Y-95700000D02*
X136700000Y-95700000D01*
X127227692Y-95059764D02*
X127227692Y-95058349D01*
X143566108Y-103976453D02*
X143592000Y-103950561D01*
X122862143Y-96128000D02*
X123421143Y-96687000D01*
X132063202Y-95510126D02*
X132075655Y-95510126D01*
X126121079Y-95411821D02*
X126875635Y-95411821D01*
X103211477Y-93781477D02*
X105558000Y-96128000D01*
X127687041Y-94599000D02*
X131152076Y-94599000D01*
X124845900Y-96687000D02*
X126121079Y-95411821D01*
X127227692Y-95058349D02*
X127687041Y-94599000D01*
X140499044Y-96697582D02*
X137757582Y-96697582D01*
X123421143Y-96687000D02*
X124845900Y-96687000D01*
X143430000Y-99628538D02*
X140499044Y-96697582D01*
X105558000Y-96128000D02*
X122862143Y-96128000D01*
X126875635Y-95411821D02*
X127227692Y-95059764D01*
X103211477Y-93112667D02*
X103211477Y-93781477D01*
X137757582Y-96697582D02*
X136760000Y-95700000D01*
X143395220Y-103976453D02*
X143566108Y-103976453D01*
X131152076Y-94599000D02*
X132063202Y-95510126D01*
X143592000Y-99800700D02*
X143430000Y-99638700D01*
G04 #@! TO.N,/ICD57*
X138166582Y-96296582D02*
X146359644Y-96296582D01*
X131318176Y-94198000D02*
X132029302Y-94909126D01*
X126908827Y-94810114D02*
X127520941Y-94198000D01*
X149885400Y-99822338D02*
X149885400Y-102565200D01*
X149885400Y-102565200D02*
X148666200Y-103784400D01*
X136700000Y-94899997D02*
X136769997Y-94899997D01*
X148666200Y-103784400D02*
X148148600Y-103784400D01*
X146359644Y-96296582D02*
X149885400Y-99822338D01*
X132029302Y-94909126D02*
X132312145Y-94909126D01*
X126625984Y-94810114D02*
X126908827Y-94810114D01*
X136769997Y-94899997D02*
X138166582Y-96296582D01*
X127520941Y-94198000D02*
X131318176Y-94198000D01*
G04 #@! TO.N,/ICD63*
X141400000Y-87907959D02*
X141400000Y-88815872D01*
X142050000Y-82930850D02*
X142050000Y-87257959D01*
X143996220Y-97749136D02*
X144900942Y-96844414D01*
X140265800Y-92436015D02*
X141210000Y-93380216D01*
X109830000Y-66519998D02*
X108449998Y-67900000D01*
X111501000Y-65192771D02*
X111928507Y-64765264D01*
X141400000Y-88815872D02*
X140265800Y-89950072D01*
X115446663Y-72069000D02*
X114403200Y-72069000D01*
X108449998Y-67900000D02*
X101682500Y-67900000D01*
X122198247Y-66903223D02*
X122198247Y-65195999D01*
X142050000Y-87257959D02*
X141400000Y-87907959D01*
X121153324Y-67948146D02*
X122198247Y-66903223D01*
X101682500Y-67900000D02*
X101552500Y-68030000D01*
X142810000Y-108730000D02*
X143996220Y-107543780D01*
X111501000Y-68411000D02*
X111501000Y-65192771D01*
X116698414Y-70817249D02*
X115446663Y-72069000D01*
X111928507Y-64765264D02*
X111928507Y-64483835D01*
X143996220Y-107543780D02*
X143996220Y-97749136D01*
X109520112Y-64797445D02*
X109830000Y-65107333D01*
X145201379Y-94879421D02*
X145029421Y-94879421D01*
X114403200Y-72069000D02*
X112400000Y-70065800D01*
X145214766Y-94866034D02*
X145201379Y-94879421D01*
X112400000Y-70065800D02*
X112400000Y-69310000D01*
X112400000Y-69310000D02*
X111501000Y-68411000D01*
X141210000Y-93380216D02*
X141210000Y-93688407D01*
X111928507Y-64483835D02*
X111860335Y-64415663D01*
X139408550Y-80289400D02*
X142050000Y-82930850D01*
X109830000Y-65107333D02*
X109830000Y-66519998D01*
X141210000Y-93688407D02*
X141159000Y-93739407D01*
X140265800Y-89950072D02*
X140265800Y-92436015D01*
X141159000Y-93739407D02*
X141159000Y-93827275D01*
G04 #@! TO.N,/ICD61*
X132076291Y-97107550D02*
X132210350Y-97107550D01*
X101296800Y-93001000D02*
X105225800Y-96930000D01*
X130368741Y-95400000D02*
X132076291Y-97107550D01*
X142790000Y-100132900D02*
X140156682Y-97499582D01*
X98208943Y-92019000D02*
X97711057Y-92019000D01*
X126519079Y-96213821D02*
X127207835Y-96213821D01*
X97359000Y-92868943D02*
X97711057Y-93221000D01*
X142790000Y-103166043D02*
X142790000Y-100132900D01*
X142201000Y-105581000D02*
X142201000Y-103755043D01*
X105225800Y-96930000D02*
X122529943Y-96930000D01*
X98388943Y-92199000D02*
X98208943Y-92019000D01*
X142201000Y-103755043D02*
X142790000Y-103166043D01*
X98428943Y-93001000D02*
X101296800Y-93001000D01*
X100900000Y-88200000D02*
X100900000Y-92000000D01*
X142810000Y-106190000D02*
X142201000Y-105581000D01*
X122529943Y-96930000D02*
X123088943Y-97489000D01*
X97711057Y-93221000D02*
X98208943Y-93221000D01*
X123088943Y-97489000D02*
X125243900Y-97489000D01*
X97711057Y-92019000D02*
X97359000Y-92371057D01*
X128021656Y-95400000D02*
X130368741Y-95400000D01*
X100701000Y-92199000D02*
X98388943Y-92199000D01*
X132279011Y-97176211D02*
X132279011Y-97305216D01*
X100900000Y-92000000D02*
X100701000Y-92199000D01*
X132210350Y-97107550D02*
X132279011Y-97176211D01*
X97359000Y-92371057D02*
X97359000Y-92868943D01*
X127207835Y-96213821D02*
X128021656Y-95400000D01*
X98208943Y-93221000D02*
X98428943Y-93001000D01*
X140156682Y-97499582D02*
X136899576Y-97499582D01*
X125243900Y-97489000D02*
X126519079Y-96213821D01*
X136899576Y-97499582D02*
X136700000Y-97300006D01*
G04 #@! TO.N,/ICD62*
X105748000Y-95727000D02*
X123028243Y-95727000D01*
X142389000Y-100299000D02*
X142389000Y-102999943D01*
X126377041Y-94209114D02*
X126942726Y-94209114D01*
X141800000Y-106850000D02*
X142410000Y-107460000D01*
X126942726Y-94209114D02*
X127354841Y-93797000D01*
X136451057Y-97901006D02*
X139991006Y-97901006D01*
X123028243Y-95727000D02*
X123587243Y-96286000D01*
X126024984Y-94561171D02*
X126377041Y-94209114D01*
X141800000Y-103588943D02*
X141800000Y-106850000D01*
X136998529Y-94280000D02*
X136470054Y-94280000D01*
X139991006Y-97901006D02*
X142389000Y-100299000D01*
X124679800Y-96286000D02*
X126024984Y-94940816D01*
X127354841Y-93797000D02*
X131484276Y-93797000D01*
X131796572Y-94109296D02*
X132295566Y-94109296D01*
X136099000Y-97548949D02*
X136451057Y-97901006D01*
X104770000Y-94749000D02*
X105748000Y-95727000D01*
X126024984Y-94940816D02*
X126024984Y-94561171D01*
X142410000Y-107460000D02*
X142810000Y-107460000D01*
X136470054Y-94280000D02*
X136099000Y-94651054D01*
X123587243Y-96286000D02*
X124679800Y-96286000D01*
X142389000Y-102999943D02*
X141800000Y-103588943D01*
X137586352Y-94867823D02*
X136998529Y-94280000D01*
X136099000Y-94651054D02*
X136099000Y-97548949D01*
X131484276Y-93797000D02*
X131796572Y-94109296D01*
X104770000Y-87700000D02*
X104770000Y-94749000D01*
G04 #@! TO.N,/ICD60*
X101462900Y-92600000D02*
X105391900Y-96529000D01*
X143191000Y-99966800D02*
X140322782Y-97098582D01*
X142810000Y-104920000D02*
X142602000Y-104712000D01*
X137368582Y-97098582D02*
X136770003Y-96500003D01*
X125012000Y-97088000D02*
X126287179Y-95812821D01*
X122696043Y-96529000D02*
X123255043Y-97088000D01*
X126287179Y-95812821D02*
X127041735Y-95812821D01*
X132325234Y-96309206D02*
X132325234Y-96506550D01*
X127041735Y-95812821D02*
X127628692Y-95225864D01*
X140322782Y-97098582D02*
X137368582Y-97098582D01*
X142602000Y-103921143D02*
X143191000Y-103332143D01*
X142602000Y-104712000D02*
X142602000Y-103921143D01*
X127853141Y-95000000D02*
X130715586Y-95000000D01*
X130715586Y-95000000D02*
X132024792Y-96309206D01*
X136770003Y-96500003D02*
X136700000Y-96500003D01*
X105391900Y-96529000D02*
X122696043Y-96529000D01*
X132024792Y-96309206D02*
X132325234Y-96309206D01*
X127628692Y-95225864D02*
X127628692Y-95224449D01*
X127628692Y-95224449D02*
X127853141Y-95000000D01*
X143191000Y-103332143D02*
X143191000Y-99966800D01*
X123255043Y-97088000D02*
X125012000Y-97088000D01*
X97960000Y-92620000D02*
X97980000Y-92600000D01*
X97980000Y-92600000D02*
X101462900Y-92600000D01*
G04 #@! TO.N,Net-(a1-D13)*
X134526643Y-135325800D02*
X137879457Y-135325800D01*
X121716800Y-140868400D02*
X130945029Y-140868400D01*
X139480000Y-136186200D02*
X140503600Y-135162600D01*
X140503600Y-135162600D02*
X150239600Y-135162600D01*
X131150003Y-139650000D02*
X131089400Y-139589397D01*
X154296400Y-97995238D02*
X152450000Y-96148838D01*
X154296400Y-131105800D02*
X154296400Y-97995238D01*
X138739857Y-136186200D02*
X139480000Y-136186200D01*
X132238500Y-137128500D02*
X132723943Y-137128500D01*
X120802400Y-143738600D02*
X120802400Y-141782800D01*
X120802400Y-141782800D02*
X121716800Y-140868400D01*
X137879457Y-135325800D02*
X138739857Y-136186200D01*
X131089400Y-139589397D02*
X131089400Y-138277600D01*
X131089400Y-138277600D02*
X132238500Y-137128500D01*
X150239600Y-135162600D02*
X154296400Y-131105800D01*
X152450000Y-96148838D02*
X152450000Y-80850000D01*
X152450000Y-80850000D02*
X152900000Y-80400000D01*
X130945029Y-140868400D02*
X131035000Y-140958371D01*
X132723943Y-137128500D02*
X134526643Y-135325800D01*
G04 #@! TO.N,/LCD_CLOCK*
X139984000Y-56641000D02*
X141326100Y-56641000D01*
X138650000Y-57975000D02*
X139984000Y-56641000D01*
X143217100Y-54750000D02*
X145190000Y-54750000D01*
X145190000Y-54750000D02*
X146340000Y-53600000D01*
X138650000Y-58780000D02*
X138650000Y-57975000D01*
X141326100Y-56641000D02*
X143217100Y-54750000D01*
G04 #@! TO.N,/LCD_SERIAL*
X141160000Y-56240000D02*
X143800000Y-53600000D01*
X138650000Y-56240000D02*
X141160000Y-56240000D01*
G04 #@! TO.N,/ICD18*
X87780000Y-131650000D02*
X86840077Y-132589923D01*
X80030000Y-135650000D02*
X80030000Y-135170000D01*
X86840077Y-132589923D02*
X83298749Y-132589923D01*
X83298749Y-132589923D02*
X81971000Y-133917672D01*
X81108200Y-136728200D02*
X80030000Y-135650000D01*
X81971000Y-133917672D02*
X81971000Y-136308943D01*
X80030000Y-135170000D02*
X79225871Y-134365871D01*
X81971000Y-136308943D02*
X81551743Y-136728200D01*
X81551743Y-136728200D02*
X81108200Y-136728200D01*
X79225871Y-134365871D02*
X79225871Y-133545871D01*
X79225871Y-133545871D02*
X79219690Y-133539690D01*
X79219690Y-133539690D02*
X79206740Y-133539690D01*
G04 #@! TO.N,/SER5-6*
X60255691Y-110577957D02*
X60255691Y-83530443D01*
X62562445Y-53115000D02*
X62565342Y-53115000D01*
X92017764Y-51110892D02*
X92853872Y-51947000D01*
X60254691Y-110578957D02*
X60255691Y-110577957D01*
X66146000Y-130330000D02*
X65691000Y-129875000D01*
X65691000Y-124906090D02*
X61012342Y-120227432D01*
X61012342Y-120227432D02*
X61010929Y-120227432D01*
X110526000Y-51946000D02*
X110725000Y-52145000D01*
X60254691Y-112737843D02*
X60254691Y-110578957D01*
X92853872Y-51947000D02*
X106274257Y-51947000D01*
X60655200Y-119870290D02*
X60655200Y-113138352D01*
X62656342Y-53024000D02*
X68653400Y-53024000D01*
X60658872Y-119875375D02*
X60658872Y-119873962D01*
X65691000Y-129875000D02*
X65691000Y-124906090D01*
X60658872Y-119873962D02*
X60655200Y-119870290D01*
X61010929Y-120227432D02*
X60658872Y-119875375D01*
X60255691Y-83530443D02*
X60254691Y-83529443D01*
X60255690Y-81369558D02*
X60255689Y-55421749D01*
X62565342Y-53115000D02*
X62656342Y-53024000D01*
X60254691Y-83529443D02*
X60254691Y-81370557D01*
X90652315Y-50299000D02*
X91464207Y-51110892D01*
X68653400Y-53024000D02*
X69213400Y-52464000D01*
X60254691Y-81370557D02*
X60255690Y-81369558D01*
X60255689Y-55421749D02*
X62562445Y-53115000D01*
X60655200Y-113138352D02*
X60254691Y-112737843D01*
X106275257Y-51946000D02*
X110526000Y-51946000D01*
X69213400Y-52464000D02*
X75541172Y-52464000D01*
X75541172Y-52464000D02*
X75958172Y-52881000D01*
X75958172Y-52881000D02*
X80369000Y-52881000D01*
X80369000Y-52881000D02*
X82951000Y-50299000D01*
X82951000Y-50299000D02*
X90652315Y-50299000D01*
X91464207Y-51110892D02*
X92017764Y-51110892D01*
X106274257Y-51947000D02*
X106275257Y-51946000D01*
G04 #@! TO.N,/SER2-3*
X75375072Y-52865000D02*
X69379500Y-52865000D01*
X83117100Y-50700000D02*
X80695100Y-53122000D01*
X91298107Y-51511892D02*
X90486215Y-50700000D01*
X80695100Y-53122000D02*
X80695100Y-53124900D01*
X92687772Y-52348000D02*
X91851664Y-51511892D01*
X80695100Y-53124900D02*
X80538000Y-53282000D01*
X69379500Y-52865000D02*
X68819500Y-53425000D01*
X60656690Y-55587849D02*
X60656691Y-81535657D01*
X68819500Y-53425000D02*
X62822442Y-53425000D01*
X90486215Y-50700000D02*
X83117100Y-50700000D01*
X62822442Y-53425000D02*
X62731442Y-53516000D01*
X62731442Y-53516000D02*
X62728543Y-53516000D01*
X60655691Y-112571743D02*
X61087000Y-113003052D01*
X62728543Y-53516000D02*
X60656690Y-55587849D01*
X91851664Y-51511892D02*
X91298107Y-51511892D01*
X60656691Y-81535657D02*
X60655691Y-81536657D01*
X75792072Y-53282000D02*
X75375072Y-52865000D01*
X60655691Y-83363343D02*
X60656691Y-83364343D01*
X80538000Y-53282000D02*
X75792072Y-53282000D01*
X61087000Y-119453560D02*
X61259872Y-119626432D01*
X60656691Y-83364343D02*
X60656691Y-110744057D01*
X60656691Y-110744057D02*
X60655691Y-110745057D01*
X60655691Y-110745057D02*
X60655691Y-112571743D01*
X60655691Y-81536657D02*
X60655691Y-83363343D01*
X61087000Y-113003052D02*
X61087000Y-119453560D01*
G04 #@! TD*
G04 #@! TA.AperFunction,Conductor*
G04 #@! TO.N,+5V*
G36*
X69384870Y-58451913D02*
G01*
X69432159Y-58503348D01*
X69444909Y-58555945D01*
X69574999Y-65849999D01*
X69574999Y-65849998D01*
X69575000Y-65850000D01*
X70273181Y-65781387D01*
X70341819Y-65794420D01*
X70354186Y-65801685D01*
X70410621Y-65839394D01*
X70410624Y-65839395D01*
X70410625Y-65839396D01*
X70436226Y-65850000D01*
X70556303Y-65899737D01*
X70710953Y-65930499D01*
X70710956Y-65930500D01*
X70710958Y-65930500D01*
X70868644Y-65930500D01*
X70868645Y-65930499D01*
X71023297Y-65899737D01*
X71143376Y-65849999D01*
X71168972Y-65839397D01*
X71168972Y-65839396D01*
X71168979Y-65839394D01*
X71300089Y-65751789D01*
X71347798Y-65704079D01*
X71409119Y-65670595D01*
X71423332Y-65668357D01*
X80174974Y-64808302D01*
X80234550Y-64817146D01*
X80291503Y-64840737D01*
X80405749Y-64863462D01*
X80446153Y-64871499D01*
X80446156Y-64871500D01*
X80446158Y-64871500D01*
X80603844Y-64871500D01*
X80603845Y-64871499D01*
X80758497Y-64840737D01*
X80904179Y-64780394D01*
X80955115Y-64746359D01*
X81011870Y-64726057D01*
X84253146Y-64407526D01*
X84420355Y-64391094D01*
X84432482Y-64390500D01*
X85160431Y-64390500D01*
X85160447Y-64390501D01*
X85168043Y-64390501D01*
X85326154Y-64390501D01*
X85326157Y-64390501D01*
X85478885Y-64349577D01*
X85500979Y-64336821D01*
X85542812Y-64312669D01*
X85586156Y-64287644D01*
X85636023Y-64271625D01*
X86633858Y-64173565D01*
X86702497Y-64186598D01*
X86714876Y-64193871D01*
X86726128Y-64201390D01*
X86726141Y-64201397D01*
X86866846Y-64259678D01*
X86871817Y-64261737D01*
X87026467Y-64292499D01*
X87026470Y-64292500D01*
X87026472Y-64292500D01*
X87184158Y-64292500D01*
X87184159Y-64292499D01*
X87338811Y-64261737D01*
X87484493Y-64201394D01*
X87615603Y-64113789D01*
X87624920Y-64104472D01*
X87686241Y-64070985D01*
X87700466Y-64068745D01*
X88393662Y-64000622D01*
X88406368Y-64000030D01*
X98855587Y-64049599D01*
X98922532Y-64069602D01*
X98968035Y-64122622D01*
X98970575Y-64128679D01*
X99098749Y-64458501D01*
X100510000Y-68090001D01*
X100825301Y-68388125D01*
X100843210Y-68409335D01*
X100930710Y-68540288D01*
X100930713Y-68540292D01*
X101042210Y-68651789D01*
X101087703Y-68682186D01*
X101173321Y-68739394D01*
X101193992Y-68747956D01*
X101231732Y-68772416D01*
X104429740Y-71796213D01*
X108177695Y-75340000D01*
X108219999Y-75379999D01*
X108220000Y-75380000D01*
X111927349Y-75340242D01*
X111971274Y-75347783D01*
X112265830Y-75455547D01*
X112292106Y-75468890D01*
X112381556Y-75528659D01*
X112381558Y-75528660D01*
X112381562Y-75528662D01*
X112481114Y-75569897D01*
X112527238Y-75589002D01*
X112681888Y-75619764D01*
X112681891Y-75619765D01*
X112692721Y-75619765D01*
X112735324Y-75627313D01*
X114385069Y-76230879D01*
X114430145Y-76259648D01*
X114449960Y-76279463D01*
X114449961Y-76279464D01*
X114802017Y-76631520D01*
X114938948Y-76710577D01*
X115091676Y-76751501D01*
X115091679Y-76751501D01*
X115257387Y-76751501D01*
X115257403Y-76751500D01*
X115589558Y-76751500D01*
X115589562Y-76751501D01*
X115747676Y-76751501D01*
X115751166Y-76750565D01*
X115762725Y-76750502D01*
X115762846Y-76750536D01*
X115763408Y-76750500D01*
X116153331Y-76750500D01*
X116153347Y-76750501D01*
X116160943Y-76750501D01*
X116319054Y-76750501D01*
X116319057Y-76750501D01*
X116471785Y-76709577D01*
X116557786Y-76659924D01*
X116608716Y-76630520D01*
X116720520Y-76518716D01*
X116720520Y-76518714D01*
X116730718Y-76508517D01*
X116730722Y-76508511D01*
X116739162Y-76500071D01*
X116800479Y-76466585D01*
X116831382Y-76463833D01*
X123868454Y-76722151D01*
X124115093Y-76201468D01*
X124124035Y-76185696D01*
X124161707Y-76129317D01*
X124222050Y-75983635D01*
X124222051Y-75983627D01*
X124223817Y-75977808D01*
X124224119Y-75977899D01*
X124231339Y-75956060D01*
X124400000Y-75600000D01*
X124399999Y-75599999D01*
X124400000Y-75599999D01*
X123200000Y-74200000D01*
X123199998Y-74199998D01*
X119871568Y-71981045D01*
X119837249Y-71946762D01*
X119811154Y-71907708D01*
X119699659Y-71796213D01*
X119699655Y-71796210D01*
X119568552Y-71708609D01*
X119568539Y-71708602D01*
X119422866Y-71648263D01*
X119422859Y-71648261D01*
X119375055Y-71638752D01*
X119330465Y-71620309D01*
X118875227Y-71316817D01*
X118830366Y-71263252D01*
X118829449Y-71261096D01*
X118828838Y-71259622D01*
X118819394Y-71236821D01*
X118819390Y-71236815D01*
X118731789Y-71105710D01*
X118620292Y-70994213D01*
X118620288Y-70994210D01*
X118489185Y-70906609D01*
X118489172Y-70906602D01*
X118343501Y-70846264D01*
X118343489Y-70846261D01*
X118188845Y-70815500D01*
X118188842Y-70815500D01*
X118160794Y-70815500D01*
X118093755Y-70795815D01*
X118092011Y-70794674D01*
X117249944Y-70233296D01*
X117231049Y-70217806D01*
X117208703Y-70195460D01*
X117208702Y-70195459D01*
X117208701Y-70195458D01*
X117077596Y-70107856D01*
X117077593Y-70107855D01*
X117047065Y-70095210D01*
X117025734Y-70083823D01*
X116354727Y-69636485D01*
X113053280Y-67435520D01*
X113008419Y-67381955D01*
X112998117Y-67335991D01*
X112985294Y-66899999D01*
X112803707Y-60726055D01*
X112821412Y-60658468D01*
X112872848Y-60611181D01*
X112926099Y-60598422D01*
X114937315Y-60573263D01*
X114939987Y-60573260D01*
X116298551Y-60586726D01*
X116365392Y-60607074D01*
X116385003Y-60623039D01*
X116443484Y-60681520D01*
X116443486Y-60681521D01*
X116443490Y-60681524D01*
X116560497Y-60749077D01*
X116580416Y-60760577D01*
X116674132Y-60785688D01*
X116733142Y-60801500D01*
X116733143Y-60801500D01*
X117800932Y-60801500D01*
X117867971Y-60821185D01*
X117913726Y-60873989D01*
X117924926Y-60924256D01*
X117952513Y-63673144D01*
X117933502Y-63740377D01*
X117931622Y-63743278D01*
X117863108Y-63845816D01*
X117863102Y-63845827D01*
X117802764Y-63991498D01*
X117802761Y-63991510D01*
X117772000Y-64146153D01*
X117772000Y-64303846D01*
X117802761Y-64458489D01*
X117802764Y-64458501D01*
X117863102Y-64604172D01*
X117863109Y-64604185D01*
X117943422Y-64724381D01*
X117964292Y-64790645D01*
X118008020Y-66853943D01*
X120744827Y-69128295D01*
X120780135Y-69176209D01*
X120795694Y-69213770D01*
X120795697Y-69213777D01*
X120883298Y-69344880D01*
X120883301Y-69344884D01*
X120994795Y-69456378D01*
X120994799Y-69456381D01*
X121125902Y-69543982D01*
X121125915Y-69543989D01*
X121221078Y-69583406D01*
X121271591Y-69604329D01*
X121301288Y-69610236D01*
X121356350Y-69636485D01*
X127294586Y-74571299D01*
X127333564Y-74629286D01*
X127339292Y-74669850D01*
X127299999Y-76199999D01*
X127300000Y-76200000D01*
X137005960Y-76164304D01*
X137073070Y-76183742D01*
X137119019Y-76236377D01*
X137130346Y-76292452D01*
X136998437Y-80232436D01*
X136989068Y-80275738D01*
X136958686Y-80349089D01*
X136958685Y-80349092D01*
X136927785Y-80504435D01*
X136919018Y-80521193D01*
X136914997Y-80539676D01*
X136896257Y-80564706D01*
X136895400Y-80566346D01*
X136893845Y-80567929D01*
X136884498Y-80577275D01*
X136823173Y-80610757D01*
X136800538Y-80613533D01*
X132250000Y-80749999D01*
X132250000Y-83419999D01*
X132250000Y-83420000D01*
X135489899Y-83387659D01*
X135557131Y-83406674D01*
X135603411Y-83459018D01*
X135615101Y-83514608D01*
X135493480Y-88616753D01*
X135493798Y-88617387D01*
X135495758Y-88637915D01*
X135563944Y-94342073D01*
X135547343Y-94405550D01*
X135546877Y-94406358D01*
X135539423Y-94419269D01*
X135498499Y-94571997D01*
X135498499Y-94571999D01*
X135498499Y-94740100D01*
X135498500Y-94740113D01*
X135498500Y-97462279D01*
X135498499Y-97462297D01*
X135498499Y-97628003D01*
X135498498Y-97628003D01*
X135539423Y-97780735D01*
X135539424Y-97780736D01*
X135559497Y-97815503D01*
X135559499Y-97815506D01*
X135590221Y-97868719D01*
X135606824Y-97929236D01*
X135621410Y-99149355D01*
X135621419Y-99150529D01*
X135625641Y-100849623D01*
X135606123Y-100916711D01*
X135553433Y-100962597D01*
X135501778Y-100973931D01*
X133339593Y-100976319D01*
X133272532Y-100956708D01*
X133226719Y-100903955D01*
X133215470Y-100854169D01*
X133172974Y-98000402D01*
X133100000Y-93100000D01*
X130200000Y-90600000D01*
X130199999Y-90600000D01*
X130199998Y-90599999D01*
X126451032Y-90613190D01*
X126383924Y-90593742D01*
X126381713Y-90592298D01*
X126379182Y-90590607D01*
X126379177Y-90590604D01*
X126233501Y-90530264D01*
X126233489Y-90530261D01*
X126078845Y-90499500D01*
X126078842Y-90499500D01*
X125921158Y-90499500D01*
X125921155Y-90499500D01*
X125766510Y-90530261D01*
X125766498Y-90530264D01*
X125620825Y-90590604D01*
X125620812Y-90590610D01*
X125613517Y-90595485D01*
X125546838Y-90616359D01*
X125545068Y-90616378D01*
X124796086Y-90619014D01*
X124794807Y-90619012D01*
X122000000Y-90600000D01*
X121999999Y-90600001D01*
X121664100Y-91223812D01*
X121623818Y-91268123D01*
X121612908Y-91275413D01*
X121612904Y-91275417D01*
X121501413Y-91386907D01*
X121501410Y-91386911D01*
X121413809Y-91518014D01*
X121413802Y-91518027D01*
X121353464Y-91663698D01*
X121353461Y-91663710D01*
X121322700Y-91818353D01*
X121322700Y-91826580D01*
X121307880Y-91885365D01*
X121300000Y-91900000D01*
X120633499Y-93328218D01*
X120633396Y-93328438D01*
X120587208Y-93380864D01*
X120521029Y-93400000D01*
X109079142Y-93400000D01*
X109012103Y-93380315D01*
X108966673Y-93328218D01*
X108296777Y-91885366D01*
X107701524Y-90603283D01*
X107698669Y-90596630D01*
X106200000Y-86800000D01*
X104369898Y-86800000D01*
X104367308Y-86799973D01*
X103860874Y-86789390D01*
X100540000Y-86720000D01*
X100539999Y-86720000D01*
X96891541Y-88981271D01*
X96824189Y-88999856D01*
X96778765Y-88990434D01*
X96633501Y-88930264D01*
X96633489Y-88930261D01*
X96478845Y-88899500D01*
X96478842Y-88899500D01*
X96321158Y-88899500D01*
X96321155Y-88899500D01*
X96166510Y-88930261D01*
X96166498Y-88930264D01*
X96020827Y-88990602D01*
X96020814Y-88990609D01*
X95889711Y-89078210D01*
X95889707Y-89078213D01*
X95778213Y-89189707D01*
X95778210Y-89189711D01*
X95690609Y-89320814D01*
X95690602Y-89320827D01*
X95630264Y-89466498D01*
X95630261Y-89466507D01*
X95616777Y-89534296D01*
X95584391Y-89596206D01*
X95523675Y-89630780D01*
X95494248Y-89634100D01*
X89046729Y-89586692D01*
X88979836Y-89566515D01*
X88934471Y-89513376D01*
X88923654Y-89464479D01*
X88919701Y-89189711D01*
X88876408Y-86180882D01*
X88895126Y-86113568D01*
X88947266Y-86067058D01*
X89000294Y-86055100D01*
X95450000Y-86050000D01*
X95486619Y-85970531D01*
X95531444Y-85918603D01*
X95587408Y-85882065D01*
X95639881Y-85835931D01*
X95733315Y-85726522D01*
X95792142Y-85595217D01*
X95810618Y-85530574D01*
X95811162Y-85528817D01*
X95811344Y-85528036D01*
X95811345Y-85528034D01*
X95830795Y-85385474D01*
X95829846Y-85253783D01*
X95841223Y-85201004D01*
X97390000Y-81840000D01*
X97392518Y-81608721D01*
X109931932Y-81608721D01*
X109931932Y-81766414D01*
X109962693Y-81921057D01*
X109962696Y-81921069D01*
X110023034Y-82066740D01*
X110023041Y-82066753D01*
X110110642Y-82197856D01*
X110110645Y-82197860D01*
X110170393Y-82257608D01*
X110185158Y-82284648D01*
X110201766Y-82310616D01*
X110202615Y-82316619D01*
X110203878Y-82318931D01*
X110206712Y-82345562D01*
X110206269Y-82546959D01*
X110189659Y-82608681D01*
X110171623Y-82639922D01*
X110170538Y-82641803D01*
X110129930Y-82712138D01*
X110089006Y-82864866D01*
X110089006Y-82864868D01*
X110089006Y-83032969D01*
X110089007Y-83032982D01*
X110089007Y-83355139D01*
X110089006Y-83355157D01*
X110089006Y-83520863D01*
X110089005Y-83520863D01*
X110129930Y-83673594D01*
X110144103Y-83698142D01*
X110144104Y-83698144D01*
X110186827Y-83772144D01*
X110203439Y-83834415D01*
X110196727Y-86888471D01*
X110196728Y-86888472D01*
X122359366Y-86923883D01*
X122359367Y-86923883D01*
X122359367Y-86923882D01*
X122359368Y-86923883D01*
X122599175Y-79425790D01*
X122611048Y-79376676D01*
X122845505Y-78881711D01*
X112540000Y-78800000D01*
X112539999Y-78800000D01*
X110210000Y-80849999D01*
X110210000Y-80850000D01*
X110209609Y-81027222D01*
X110189776Y-81094218D01*
X110173292Y-81114627D01*
X110110644Y-81177276D01*
X110110640Y-81177282D01*
X110023041Y-81308382D01*
X110023034Y-81308395D01*
X109962696Y-81454066D01*
X109962693Y-81454078D01*
X109931932Y-81608721D01*
X97392518Y-81608721D01*
X97450000Y-76330000D01*
X97449999Y-76329998D01*
X94035797Y-72474199D01*
X89100000Y-66900000D01*
X89099998Y-66900000D01*
X89099998Y-66899999D01*
X84199977Y-67425002D01*
X73225000Y-68674999D01*
X73224999Y-68675000D01*
X73100000Y-77399980D01*
X73100000Y-94500003D01*
X75798303Y-106760496D01*
X75793488Y-106830199D01*
X75791763Y-106834599D01*
X75770263Y-106886506D01*
X75770261Y-106886511D01*
X75739501Y-107041153D01*
X75739501Y-107198846D01*
X75770262Y-107353489D01*
X75770265Y-107353501D01*
X75830603Y-107499172D01*
X75830610Y-107499185D01*
X75918210Y-107630287D01*
X75918211Y-107630288D01*
X75918212Y-107630289D01*
X75984279Y-107696356D01*
X76017699Y-107757384D01*
X76706175Y-110885663D01*
X77258119Y-113393576D01*
X82499244Y-113398995D01*
X82566260Y-113418748D01*
X82568004Y-113419892D01*
X82628015Y-113459990D01*
X82628021Y-113459994D01*
X82628023Y-113459995D01*
X82628027Y-113459997D01*
X82771682Y-113519500D01*
X82773703Y-113520337D01*
X82897415Y-113544945D01*
X82928353Y-113551099D01*
X82928356Y-113551100D01*
X82928358Y-113551100D01*
X83086044Y-113551100D01*
X83086045Y-113551099D01*
X83240697Y-113520337D01*
X83386379Y-113459994D01*
X83444827Y-113420940D01*
X83511499Y-113400063D01*
X83513733Y-113400043D01*
X83670476Y-113400206D01*
X83670475Y-113400204D01*
X83670637Y-113400205D01*
X83726333Y-113358784D01*
X83769304Y-113351100D01*
X87080298Y-113351100D01*
X87081708Y-113351107D01*
X97632957Y-113471178D01*
X97699767Y-113491624D01*
X97744918Y-113544945D01*
X97755524Y-113592881D01*
X97827856Y-117510357D01*
X97820191Y-117555623D01*
X97250245Y-119098143D01*
X97208546Y-119154205D01*
X97143156Y-119178822D01*
X97132738Y-119179160D01*
X79894501Y-119013319D01*
X79827654Y-118992991D01*
X79826803Y-118992427D01*
X79779185Y-118960609D01*
X79779172Y-118960602D01*
X79633501Y-118900264D01*
X79633489Y-118900261D01*
X79478845Y-118869500D01*
X79478842Y-118869500D01*
X79321158Y-118869500D01*
X79321155Y-118869500D01*
X79166510Y-118900261D01*
X79166498Y-118900264D01*
X79020828Y-118960602D01*
X79020814Y-118960610D01*
X78987265Y-118983026D01*
X78920587Y-119003902D01*
X78917184Y-119003916D01*
X78510000Y-118999999D01*
X78509999Y-119000000D01*
X78507493Y-119597781D01*
X78490882Y-119659260D01*
X78460423Y-119712016D01*
X78451072Y-119746913D01*
X78419499Y-119864745D01*
X78419499Y-119864747D01*
X78419499Y-120032848D01*
X78419500Y-120032861D01*
X78419500Y-120598411D01*
X78419499Y-120598429D01*
X78419499Y-120764135D01*
X78419498Y-120764135D01*
X78460422Y-120916864D01*
X78484911Y-120959280D01*
X78501522Y-121021799D01*
X78450251Y-133250060D01*
X78440814Y-133296990D01*
X78437004Y-133306187D01*
X78437001Y-133306195D01*
X78406240Y-133460843D01*
X78406240Y-133618536D01*
X78437001Y-133773179D01*
X78437004Y-133773190D01*
X78438406Y-133776575D01*
X78447842Y-133824543D01*
X78433943Y-137139482D01*
X78424508Y-137186407D01*
X78423164Y-137189651D01*
X78423161Y-137189661D01*
X78392399Y-137344311D01*
X78392399Y-137344314D01*
X78392399Y-137501998D01*
X78392399Y-137502000D01*
X78392398Y-137502000D01*
X78423161Y-137656650D01*
X78424931Y-137662485D01*
X78423841Y-137662815D01*
X78431583Y-137702171D01*
X78429999Y-138079999D01*
X78430000Y-138079999D01*
X78430000Y-138080000D01*
X79640000Y-138380000D01*
X79640006Y-138379999D01*
X79640007Y-138380000D01*
X80202058Y-138376911D01*
X85100000Y-138350000D01*
X93830000Y-138320000D01*
X94134466Y-137686837D01*
X94158526Y-137652907D01*
X94760756Y-137050678D01*
X94760761Y-137050674D01*
X94770964Y-137040470D01*
X94770966Y-137040470D01*
X94882770Y-136928666D01*
X94961827Y-136791734D01*
X94995620Y-136665616D01*
X95002750Y-136639008D01*
X95002750Y-136480893D01*
X95002750Y-135909434D01*
X95014999Y-135855697D01*
X96016411Y-133773179D01*
X98472573Y-128665389D01*
X98509510Y-128620239D01*
X106204832Y-122798667D01*
X106232170Y-122783007D01*
X106289179Y-122759394D01*
X106420289Y-122671789D01*
X106531789Y-122560289D01*
X106532286Y-122559543D01*
X106533161Y-122558616D01*
X106535655Y-122555578D01*
X106535864Y-122555749D01*
X106560577Y-122529543D01*
X107209172Y-122038875D01*
X107212378Y-122036530D01*
X117420277Y-114822014D01*
X117486381Y-114799398D01*
X117489487Y-114799301D01*
X121847692Y-114719313D01*
X121853658Y-114720500D01*
X122011342Y-114720500D01*
X122034548Y-114715883D01*
X122900000Y-114700000D01*
X122998558Y-106322539D01*
X123019029Y-106255738D01*
X123072368Y-106210607D01*
X123122549Y-106200000D01*
X133076000Y-106200000D01*
X133143039Y-106219685D01*
X133188794Y-106272489D01*
X133200000Y-106324000D01*
X133200000Y-112476000D01*
X133180315Y-112543039D01*
X133127511Y-112588794D01*
X133076000Y-112600000D01*
X129100000Y-112600000D01*
X129100000Y-114655904D01*
X129090561Y-114703356D01*
X129060263Y-114776501D01*
X129060260Y-114776511D01*
X129029500Y-114931153D01*
X129029500Y-115088846D01*
X129060261Y-115243489D01*
X129060264Y-115243501D01*
X129090561Y-115316644D01*
X129100000Y-115364096D01*
X129100000Y-119676000D01*
X129080315Y-119743039D01*
X129027511Y-119788794D01*
X128976000Y-119800000D01*
X121300000Y-119800000D01*
X111137063Y-130760029D01*
X111077046Y-130795802D01*
X111045489Y-130799714D01*
X102084984Y-130752798D01*
X102038181Y-130743361D01*
X101935101Y-130700664D01*
X101935089Y-130700661D01*
X101780445Y-130669900D01*
X101780442Y-130669900D01*
X101622758Y-130669900D01*
X101622755Y-130669900D01*
X101468110Y-130700661D01*
X101468098Y-130700664D01*
X101322427Y-130761002D01*
X101322414Y-130761009D01*
X101191311Y-130848610D01*
X101191307Y-130848613D01*
X101079813Y-130960107D01*
X101079810Y-130960111D01*
X100992209Y-131091214D01*
X100992202Y-131091227D01*
X100931864Y-131236898D01*
X100931861Y-131236910D01*
X100901100Y-131391553D01*
X100901100Y-131549246D01*
X100931861Y-131703889D01*
X100931864Y-131703901D01*
X100992202Y-131849572D01*
X100992209Y-131849585D01*
X101056519Y-131945831D01*
X101077397Y-132012509D01*
X101069800Y-132057511D01*
X98260000Y-139699999D01*
X98259999Y-139700003D01*
X98569999Y-141069999D01*
X98569999Y-141069998D01*
X98570000Y-141070000D01*
X111250000Y-141040000D01*
X120547103Y-132012509D01*
X123457371Y-129186638D01*
X123519180Y-129154059D01*
X123543753Y-129151600D01*
X125372035Y-129151600D01*
X125439074Y-129171285D01*
X125484829Y-129224089D01*
X125496034Y-129276099D01*
X125483457Y-132399552D01*
X125463503Y-132466512D01*
X125447890Y-132485977D01*
X113606447Y-144532919D01*
X113545414Y-144566930D01*
X113518005Y-144569995D01*
X101182469Y-144569003D01*
X101115431Y-144549313D01*
X101106450Y-144542960D01*
X99840000Y-143560000D01*
X75576412Y-141937783D01*
X75510835Y-141913670D01*
X75468705Y-141857931D01*
X75460686Y-141813330D01*
X75462667Y-141476481D01*
X75470395Y-141438234D01*
X75469369Y-141437923D01*
X75471132Y-141432109D01*
X75471137Y-141432097D01*
X75501900Y-141277442D01*
X75501900Y-141119758D01*
X75501900Y-141119755D01*
X75501899Y-141119753D01*
X75469949Y-140959128D01*
X75470306Y-140959056D01*
X75465890Y-140928682D01*
X75477235Y-138999921D01*
X75479614Y-138976476D01*
X75501900Y-138864442D01*
X75501900Y-138706758D01*
X75482071Y-138607075D01*
X75479693Y-138582177D01*
X75490000Y-136830000D01*
X75489998Y-136829999D01*
X75489999Y-136829998D01*
X74513488Y-136285407D01*
X74464525Y-136235563D01*
X74449884Y-136177309D01*
X74424359Y-120062544D01*
X74443938Y-119995478D01*
X74496669Y-119949639D01*
X74500873Y-119947805D01*
X74534179Y-119934010D01*
X74665289Y-119846405D01*
X74776789Y-119734905D01*
X74864394Y-119603795D01*
X74924737Y-119458113D01*
X74955500Y-119303458D01*
X74955500Y-119145774D01*
X74955500Y-119145771D01*
X74955499Y-119145769D01*
X74949734Y-119116785D01*
X74924737Y-118991119D01*
X74912100Y-118960610D01*
X74864397Y-118845443D01*
X74864390Y-118845430D01*
X74776789Y-118714327D01*
X74776786Y-118714323D01*
X74665291Y-118602828D01*
X74617260Y-118570735D01*
X74546286Y-118523311D01*
X74501482Y-118469702D01*
X74493355Y-118405000D01*
X74492403Y-118404907D01*
X74492816Y-118400707D01*
X74492775Y-118400377D01*
X74492938Y-118399473D01*
X74493000Y-118398844D01*
X74493000Y-118241155D01*
X74492999Y-118241153D01*
X74470653Y-118128812D01*
X74462237Y-118086503D01*
X74446910Y-118049500D01*
X74430472Y-118009814D01*
X74421033Y-117962561D01*
X74420000Y-117310000D01*
X73009448Y-117065596D01*
X72946755Y-117034756D01*
X72910686Y-116974915D01*
X72906707Y-116948077D01*
X72890297Y-116511054D01*
X70124733Y-113982561D01*
X70105304Y-113959938D01*
X70091789Y-113939711D01*
X70091788Y-113939710D01*
X70091786Y-113939707D01*
X69980292Y-113828213D01*
X69980288Y-113828210D01*
X69897552Y-113772927D01*
X69882772Y-113761341D01*
X66742681Y-110890427D01*
X66742584Y-110890339D01*
X66740635Y-110888557D01*
X66740289Y-110888211D01*
X66740168Y-110888130D01*
X63840211Y-108236764D01*
X63804016Y-108177000D01*
X63799882Y-108145519D01*
X63787190Y-102257753D01*
X68262100Y-102257753D01*
X68262100Y-102415446D01*
X68292861Y-102570089D01*
X68292864Y-102570101D01*
X68353204Y-102715777D01*
X68355150Y-102718689D01*
X68355699Y-102720445D01*
X68356076Y-102721149D01*
X68355942Y-102721220D01*
X68376023Y-102785367D01*
X68376034Y-102789067D01*
X68299999Y-109099998D01*
X68300001Y-109100002D01*
X72675748Y-113388839D01*
X73743192Y-113389942D01*
X70880000Y-100790000D01*
X70879999Y-100790000D01*
X70879999Y-100789999D01*
X68400000Y-100800000D01*
X68387101Y-101870558D01*
X68366610Y-101937355D01*
X68366214Y-101937953D01*
X68353207Y-101957419D01*
X68353202Y-101957428D01*
X68292864Y-102103098D01*
X68292861Y-102103110D01*
X68262100Y-102257753D01*
X63787190Y-102257753D01*
X63732011Y-76659864D01*
X63751551Y-76592784D01*
X63765028Y-76575347D01*
X66318077Y-73818305D01*
X66361603Y-73788000D01*
X66368379Y-73785194D01*
X66499489Y-73697589D01*
X66610989Y-73586089D01*
X66698594Y-73454979D01*
X66725770Y-73389369D01*
X66749342Y-73352582D01*
X66843653Y-73250736D01*
X66846667Y-58627321D01*
X66866365Y-58560287D01*
X66919179Y-58514543D01*
X66967015Y-58503402D01*
X69317282Y-58434210D01*
X69384870Y-58451913D01*
G37*
G04 #@! TD.AperFunction*
G04 #@! TD*
G04 #@! TA.AperFunction,Conductor*
G04 #@! TO.N,/battery power*
G36*
X95218613Y-78478403D02*
G01*
X95264731Y-78530890D01*
X95276292Y-78582285D01*
X95325308Y-85389114D01*
X95306106Y-85456294D01*
X95253633Y-85502428D01*
X95202388Y-85514002D01*
X91767380Y-85543848D01*
X91700172Y-85524747D01*
X91653960Y-85472343D01*
X91642306Y-85420747D01*
X91593292Y-78607758D01*
X91612494Y-78540581D01*
X91664967Y-78494447D01*
X91716431Y-78482871D01*
X95151443Y-78459181D01*
X95218613Y-78478403D01*
G37*
G04 #@! TD.AperFunction*
G04 #@! TD*
G04 #@! TA.AperFunction,Conductor*
G04 #@! TO.N,/LATCH*
G36*
X88022332Y-54399685D02*
G01*
X88068087Y-54452489D01*
X88079291Y-54503357D01*
X88089354Y-56445357D01*
X88070017Y-56512498D01*
X88017451Y-56558526D01*
X87965356Y-56570000D01*
X85860570Y-56570000D01*
X85793531Y-56550315D01*
X85747776Y-56497511D01*
X85736570Y-56446000D01*
X85736570Y-54504000D01*
X85756255Y-54436961D01*
X85809059Y-54391206D01*
X85860570Y-54380000D01*
X87955293Y-54380000D01*
X88022332Y-54399685D01*
G37*
G04 #@! TD.AperFunction*
G04 #@! TD*
G04 #@! TA.AperFunction,Conductor*
G04 #@! TO.N,/OE*
G36*
X69704244Y-128893193D02*
G01*
X69750859Y-128945239D01*
X69762907Y-128996498D01*
X69789276Y-130555946D01*
X69770728Y-130623308D01*
X69718705Y-130669949D01*
X69667319Y-130682025D01*
X67466633Y-130717963D01*
X67399281Y-130699376D01*
X67352670Y-130647326D01*
X67340615Y-130595313D01*
X67340192Y-130555946D01*
X67323829Y-129034258D01*
X67342792Y-128967014D01*
X67395101Y-128920694D01*
X67461551Y-128910216D01*
X67461564Y-128909996D01*
X67462593Y-128910052D01*
X67463452Y-128909917D01*
X67465985Y-128910239D01*
X67465988Y-128910238D01*
X67465989Y-128910239D01*
X67940268Y-128902455D01*
X69636890Y-128874611D01*
X69704244Y-128893193D01*
G37*
G04 #@! TD.AperFunction*
G04 #@! TD*
G04 #@! TA.AperFunction,Conductor*
G04 #@! TO.N,+5V*
G36*
X151652830Y-62319798D02*
G01*
X151698691Y-62372511D01*
X151710000Y-62424248D01*
X151710000Y-86538821D01*
X151690315Y-86605860D01*
X151637511Y-86651615D01*
X151586000Y-86662821D01*
X146844000Y-86662821D01*
X146776961Y-86643136D01*
X146731206Y-86590332D01*
X146720000Y-86538821D01*
X146720000Y-62433752D01*
X146739685Y-62366713D01*
X146792489Y-62320958D01*
X146843750Y-62309752D01*
X151585754Y-62300248D01*
X151652830Y-62319798D01*
G37*
G04 #@! TD.AperFunction*
G04 #@! TD*
G04 #@! TA.AperFunction,Conductor*
G04 #@! TO.N,/CLOCK*
G36*
X69808666Y-124359302D02*
G01*
X69854819Y-124411758D01*
X69866399Y-124461994D01*
X69882032Y-125373260D01*
X69882050Y-125375387D01*
X69882050Y-125975505D01*
X69862365Y-126042544D01*
X69809561Y-126088299D01*
X69740909Y-126098314D01*
X69623136Y-126081877D01*
X67444436Y-126090858D01*
X67444426Y-126090858D01*
X67427884Y-126092712D01*
X67425343Y-126092265D01*
X67422926Y-126093167D01*
X67391122Y-126086248D01*
X67359070Y-126080613D01*
X67356396Y-126078694D01*
X67354653Y-126078315D01*
X67326399Y-126057164D01*
X67272548Y-126003313D01*
X67239063Y-125941990D01*
X67236238Y-125917049D01*
X67220042Y-124483652D01*
X67238968Y-124416395D01*
X67291252Y-124370047D01*
X67343096Y-124358256D01*
X69741481Y-124340125D01*
X69808666Y-124359302D01*
G37*
G04 #@! TD.AperFunction*
G04 #@! TD*
G04 #@! TA.AperFunction,Conductor*
G04 #@! TO.N,/CLOCK*
G36*
X136289104Y-56645937D02*
G01*
X136335211Y-56698433D01*
X136346762Y-56750057D01*
X136355508Y-58438418D01*
X136336171Y-58505558D01*
X136283605Y-58551586D01*
X136214667Y-58561911D01*
X136093668Y-58545321D01*
X133279892Y-58563705D01*
X133279880Y-58563706D01*
X133174112Y-58575603D01*
X133174109Y-58575604D01*
X133123435Y-58586801D01*
X133123411Y-58586807D01*
X133022501Y-58620576D01*
X133022498Y-58620578D01*
X133009418Y-58628984D01*
X132992529Y-58634003D01*
X132978109Y-58643408D01*
X132943208Y-58648664D01*
X132737616Y-58650037D01*
X132670447Y-58630801D01*
X132624340Y-58578304D01*
X132612788Y-58526040D01*
X132612788Y-56774043D01*
X132632473Y-56707004D01*
X132685277Y-56661249D01*
X132735957Y-56650046D01*
X134544925Y-56637932D01*
X134569936Y-56640311D01*
X134621158Y-56650500D01*
X134778844Y-56650500D01*
X134801782Y-56645937D01*
X134840812Y-56638173D01*
X134864159Y-56635794D01*
X135318876Y-56632749D01*
X135343882Y-56635128D01*
X135404765Y-56647238D01*
X135421160Y-56650500D01*
X135421161Y-56650500D01*
X135578847Y-56650500D01*
X135601785Y-56645937D01*
X135668689Y-56632628D01*
X135692029Y-56630251D01*
X136221936Y-56626702D01*
X136289104Y-56645937D01*
G37*
G04 #@! TD.AperFunction*
G04 #@! TD*
G04 #@! TA.AperFunction,Conductor*
G04 #@! TO.N,+5V*
G36*
X117460800Y-81929685D02*
G01*
X117506555Y-81982489D01*
X117517761Y-82033694D01*
X117527147Y-85834204D01*
X117507628Y-85901292D01*
X117454937Y-85947177D01*
X117402660Y-85958509D01*
X113946423Y-85944933D01*
X113879461Y-85924985D01*
X113833914Y-85872002D01*
X113822919Y-85819461D01*
X113864270Y-82343024D01*
X113884750Y-82276225D01*
X113938095Y-82231101D01*
X113988261Y-82220500D01*
X115293331Y-82220500D01*
X115293347Y-82220501D01*
X115300943Y-82220501D01*
X115459054Y-82220501D01*
X115459057Y-82220501D01*
X115611785Y-82179577D01*
X115661904Y-82150639D01*
X115748716Y-82100520D01*
X115860520Y-81988716D01*
X115860521Y-81988713D01*
X115902918Y-81946315D01*
X115964240Y-81912833D01*
X115990596Y-81910000D01*
X117393761Y-81910000D01*
X117460800Y-81929685D01*
G37*
G04 #@! TD.AperFunction*
G04 #@! TD*
G04 #@! TA.AperFunction,Conductor*
G04 #@! TO.N,+5V*
G36*
X119583032Y-53368185D02*
G01*
X119628787Y-53420989D01*
X119638731Y-53490147D01*
X119630556Y-53519948D01*
X119629499Y-53522499D01*
X119629496Y-53522510D01*
X119598735Y-53677153D01*
X119598735Y-53834846D01*
X119629496Y-53989489D01*
X119629498Y-53989497D01*
X119667674Y-54081663D01*
X119675143Y-54151130D01*
X119654756Y-54200140D01*
X118553417Y-55776226D01*
X118498882Y-55819903D01*
X118451774Y-55829200D01*
X116016600Y-55829200D01*
X115949561Y-55809515D01*
X115903806Y-55756711D01*
X115892600Y-55705200D01*
X115892600Y-54021852D01*
X115912285Y-53954813D01*
X115950988Y-53916633D01*
X116042532Y-53859549D01*
X116831968Y-53367280D01*
X116897580Y-53348500D01*
X119515993Y-53348500D01*
X119583032Y-53368185D01*
G37*
G04 #@! TD.AperFunction*
G04 #@! TD*
G04 #@! TA.AperFunction,Conductor*
G04 #@! TO.N,+5V*
G36*
X126431688Y-141573885D02*
G01*
X126477443Y-141626689D01*
X126488605Y-141681505D01*
X126441199Y-143459200D01*
X128232443Y-144818074D01*
X128651000Y-145135600D01*
X155200436Y-145160885D01*
X155267457Y-145180633D01*
X155313161Y-145233481D01*
X155324272Y-145281519D01*
X155396542Y-147942683D01*
X155378685Y-148010232D01*
X155327143Y-148057403D01*
X155272636Y-148070049D01*
X121764179Y-148083052D01*
X121697132Y-148063393D01*
X121651357Y-148010607D01*
X121640132Y-147959521D01*
X121630990Y-145544248D01*
X121630993Y-145542984D01*
X121638249Y-144721495D01*
X121658525Y-144654634D01*
X121674558Y-144634915D01*
X121756228Y-144553246D01*
X121871924Y-144394005D01*
X121934137Y-144271903D01*
X121982111Y-144221108D01*
X122049932Y-144204312D01*
X122116067Y-144226849D01*
X122155107Y-144271903D01*
X122230541Y-144419950D01*
X122230547Y-144419959D01*
X122262923Y-144464521D01*
X122262924Y-144464522D01*
X122942400Y-143785046D01*
X122942400Y-143791261D01*
X122969659Y-143892994D01*
X123022320Y-143984206D01*
X123096794Y-144058680D01*
X123188006Y-144111341D01*
X123289739Y-144138600D01*
X123295953Y-144138600D01*
X122616476Y-144818074D01*
X122661050Y-144850459D01*
X122843368Y-144943355D01*
X123037982Y-145006590D01*
X123240083Y-145038600D01*
X123444717Y-145038600D01*
X123646817Y-145006590D01*
X123841431Y-144943355D01*
X124023749Y-144850459D01*
X124068321Y-144818074D01*
X123388847Y-144138600D01*
X123395061Y-144138600D01*
X123496794Y-144111341D01*
X123588006Y-144058680D01*
X123662480Y-143984206D01*
X123715141Y-143892994D01*
X123742400Y-143791261D01*
X123742400Y-143785047D01*
X124421874Y-144464521D01*
X124454259Y-144419949D01*
X124547155Y-144237631D01*
X124610390Y-144043017D01*
X124642400Y-143840917D01*
X124642400Y-143636282D01*
X124610390Y-143434182D01*
X124547155Y-143239568D01*
X124454259Y-143057250D01*
X124421874Y-143012677D01*
X124421874Y-143012676D01*
X123742400Y-143692151D01*
X123742400Y-143685939D01*
X123715141Y-143584206D01*
X123662480Y-143492994D01*
X123588006Y-143418520D01*
X123496794Y-143365859D01*
X123395061Y-143338600D01*
X123388846Y-143338600D01*
X124068322Y-142659124D01*
X124068321Y-142659123D01*
X124023759Y-142626747D01*
X124023750Y-142626741D01*
X123841431Y-142533844D01*
X123646817Y-142470609D01*
X123444717Y-142438600D01*
X123240083Y-142438600D01*
X123037982Y-142470609D01*
X122843368Y-142533844D01*
X122661044Y-142626743D01*
X122616477Y-142659123D01*
X122616477Y-142659124D01*
X123295954Y-143338600D01*
X123289739Y-143338600D01*
X123188006Y-143365859D01*
X123096794Y-143418520D01*
X123022320Y-143492994D01*
X122969659Y-143584206D01*
X122942400Y-143685939D01*
X122942400Y-143692153D01*
X122262924Y-143012677D01*
X122262923Y-143012677D01*
X122230543Y-143057244D01*
X122155107Y-143205296D01*
X122107132Y-143256092D01*
X122039311Y-143272887D01*
X121973176Y-143250349D01*
X121934137Y-143205296D01*
X121871924Y-143083195D01*
X121756228Y-142923954D01*
X121691792Y-142859518D01*
X121676835Y-142832127D01*
X121660192Y-142805720D01*
X121659463Y-142800312D01*
X121658307Y-142798195D01*
X121655479Y-142770753D01*
X121663869Y-141820832D01*
X121684144Y-141753974D01*
X121700173Y-141734261D01*
X121822200Y-141612234D01*
X121883519Y-141578752D01*
X121907985Y-141575933D01*
X123325549Y-141554455D01*
X123341477Y-141554214D01*
X123343355Y-141554200D01*
X126364649Y-141554200D01*
X126431688Y-141573885D01*
G37*
G04 #@! TD.AperFunction*
G04 #@! TD*
G04 #@! TA.AperFunction,Conductor*
G04 #@! TO.N,+5V*
G36*
X73268415Y-55490185D02*
G01*
X73289057Y-55506819D01*
X73368166Y-55585928D01*
X73401651Y-55647251D01*
X73402102Y-55697800D01*
X73389500Y-55761153D01*
X73389500Y-55918846D01*
X73420261Y-56073489D01*
X73420264Y-56073501D01*
X73480602Y-56219172D01*
X73480609Y-56219185D01*
X73534570Y-56299942D01*
X73555420Y-56365391D01*
X73591199Y-57653813D01*
X73573383Y-57721373D01*
X73521870Y-57768576D01*
X73468082Y-57781252D01*
X69265220Y-57809548D01*
X69198049Y-57790315D01*
X69151940Y-57737821D01*
X69140395Y-57683986D01*
X69140776Y-57653813D01*
X69159077Y-56203460D01*
X69167560Y-56175864D01*
X69173196Y-56147545D01*
X69177700Y-56142877D01*
X69179606Y-56136679D01*
X69201662Y-56118049D01*
X69221716Y-56097270D01*
X69230226Y-56093922D01*
X69232983Y-56091594D01*
X69254554Y-56084351D01*
X69468465Y-56033820D01*
X69496971Y-56030500D01*
X69563331Y-56030500D01*
X69563347Y-56030501D01*
X69570943Y-56030501D01*
X69729054Y-56030501D01*
X69729057Y-56030501D01*
X69881785Y-55989577D01*
X69931904Y-55960639D01*
X70018716Y-55910520D01*
X70018720Y-55910515D01*
X70022534Y-55908314D01*
X70056014Y-55895027D01*
X71839093Y-55473820D01*
X71867600Y-55470500D01*
X73201376Y-55470500D01*
X73268415Y-55490185D01*
G37*
G04 #@! TD.AperFunction*
G04 #@! TD*
G04 #@! TA.AperFunction,Conductor*
G04 #@! TO.N,/OE*
G36*
X87212706Y-57155300D02*
G01*
X87259023Y-57207613D01*
X87270784Y-57259821D01*
X87278767Y-59221812D01*
X87259355Y-59288931D01*
X87206738Y-59334901D01*
X87156088Y-59346310D01*
X85055320Y-59368666D01*
X84988074Y-59349696D01*
X84941760Y-59297382D01*
X84930000Y-59244673D01*
X84930000Y-57282682D01*
X84949685Y-57215643D01*
X85002489Y-57169888D01*
X85052672Y-57158689D01*
X87145461Y-57136333D01*
X87212706Y-57155300D01*
G37*
G04 #@! TD.AperFunction*
G04 #@! TD*
G04 #@! TA.AperFunction,Conductor*
G04 #@! TO.N,+5V*
G36*
X60313500Y-121920746D02*
G01*
X60332032Y-121935069D01*
X60436278Y-122032687D01*
X63022299Y-124454300D01*
X63057778Y-124514491D01*
X63061514Y-124542157D01*
X63097288Y-126213345D01*
X63079042Y-126280791D01*
X63027230Y-126327665D01*
X62973316Y-126339999D01*
X61427870Y-126339995D01*
X61360830Y-126320310D01*
X61348757Y-126311478D01*
X59207764Y-124537326D01*
X59168705Y-124479395D01*
X59162884Y-124441499D01*
X59169655Y-122032687D01*
X59189528Y-121965704D01*
X59242461Y-121920097D01*
X59292681Y-121909040D01*
X60246310Y-121901586D01*
X60313500Y-121920746D01*
G37*
G04 #@! TD.AperFunction*
G04 #@! TD*
G04 #@! TA.AperFunction,Conductor*
G04 #@! TO.N,+5V*
G36*
X66530439Y-140269685D02*
G01*
X66568372Y-140307994D01*
X68436809Y-143279437D01*
X68455836Y-143344949D01*
X68459422Y-144245006D01*
X68440005Y-144312123D01*
X68387383Y-144358088D01*
X68335423Y-144369500D01*
X66526821Y-144369500D01*
X66525507Y-144369493D01*
X65703417Y-144360778D01*
X65636590Y-144340384D01*
X65595381Y-144295253D01*
X64399782Y-142059098D01*
X64385147Y-142002401D01*
X64361956Y-140375768D01*
X64380682Y-140308454D01*
X64432829Y-140261951D01*
X64485943Y-140250000D01*
X66463400Y-140250000D01*
X66530439Y-140269685D01*
G37*
G04 #@! TD.AperFunction*
G04 #@! TD*
G04 #@! TA.AperFunction,Conductor*
G04 #@! TO.N,+5V*
G36*
X148053736Y-98978580D02*
G01*
X148070095Y-98991130D01*
X149244298Y-100058271D01*
X149280671Y-100117927D01*
X149284900Y-100150036D01*
X149284900Y-102265102D01*
X149265215Y-102332141D01*
X149248581Y-102352783D01*
X149063920Y-102537443D01*
X149058766Y-102542311D01*
X148540521Y-103004433D01*
X148477384Y-103034359D01*
X148410544Y-103026446D01*
X148382097Y-103014663D01*
X148382093Y-103014662D01*
X148382088Y-103014660D01*
X148227445Y-102983900D01*
X148227442Y-102983900D01*
X148069758Y-102983900D01*
X148069755Y-102983900D01*
X147915111Y-103014660D01*
X147915106Y-103014662D01*
X147915104Y-103014662D01*
X147915103Y-103014663D01*
X147914280Y-103015004D01*
X147880384Y-103029044D01*
X147832546Y-103038481D01*
X146684935Y-103034897D01*
X146617957Y-103015004D01*
X146572367Y-102962057D01*
X146561323Y-102911480D01*
X146559567Y-102537443D01*
X146543353Y-99083477D01*
X146562723Y-99016346D01*
X146615312Y-98970344D01*
X146667352Y-98958895D01*
X147986697Y-98958895D01*
X148053736Y-98978580D01*
G37*
G04 #@! TD.AperFunction*
G04 #@! TD*
G04 #@! TA.AperFunction,Conductor*
G04 #@! TO.N,/OE*
G36*
X136164688Y-61769685D02*
G01*
X136210443Y-61822489D01*
X136221646Y-61873256D01*
X136225096Y-62448688D01*
X136231610Y-63535257D01*
X136212327Y-63602413D01*
X136159799Y-63648484D01*
X136107612Y-63660000D01*
X134755598Y-63660000D01*
X134733300Y-63653452D01*
X134710155Y-63651373D01*
X134697124Y-63642830D01*
X134688559Y-63640315D01*
X134679491Y-63633897D01*
X134673389Y-63629153D01*
X134588716Y-63544480D01*
X134501904Y-63494360D01*
X134451785Y-63465423D01*
X134299057Y-63424499D01*
X134140943Y-63424499D01*
X134133347Y-63424499D01*
X134133331Y-63424500D01*
X134060131Y-63424500D01*
X134044850Y-63423499D01*
X134044399Y-63423499D01*
X133886285Y-63423499D01*
X133878689Y-63423499D01*
X133878673Y-63423500D01*
X133413825Y-63423500D01*
X133346786Y-63403815D01*
X133301031Y-63351011D01*
X133289825Y-63299500D01*
X133289825Y-61887859D01*
X133309510Y-61820820D01*
X133362314Y-61775065D01*
X133413013Y-61763862D01*
X135542292Y-61750002D01*
X135543099Y-61750000D01*
X136097649Y-61750000D01*
X136164688Y-61769685D01*
G37*
G04 #@! TD.AperFunction*
G04 #@! TD*
G04 #@! TA.AperFunction,Conductor*
G04 #@! TO.N,/LATCH*
G36*
X138242539Y-112694685D02*
G01*
X138288294Y-112747489D01*
X138299500Y-112799000D01*
X138299500Y-113756230D01*
X138299499Y-113756248D01*
X138299499Y-113921956D01*
X138331496Y-114041373D01*
X138335696Y-114070993D01*
X138337542Y-114163527D01*
X138319199Y-114230946D01*
X138267318Y-114277745D01*
X138213567Y-114290000D01*
X135956741Y-114290000D01*
X135889702Y-114270315D01*
X135843947Y-114217511D01*
X135832756Y-114167919D01*
X135828949Y-113921956D01*
X135811595Y-112800918D01*
X135830239Y-112733583D01*
X135882329Y-112687016D01*
X135935580Y-112675000D01*
X138175500Y-112675000D01*
X138242539Y-112694685D01*
G37*
G04 #@! TD.AperFunction*
G04 #@! TD*
G04 #@! TA.AperFunction,Conductor*
G04 #@! TO.N,+5V*
G36*
X131671921Y-128923489D02*
G01*
X131738902Y-128943368D01*
X131784503Y-128996304D01*
X131795554Y-129046271D01*
X131803712Y-129877449D01*
X131784686Y-129944678D01*
X131782822Y-129947555D01*
X131765607Y-129973319D01*
X131765602Y-129973328D01*
X131705264Y-130118998D01*
X131705261Y-130119010D01*
X131674500Y-130273653D01*
X131674500Y-130431346D01*
X131705261Y-130585989D01*
X131705264Y-130586001D01*
X131765604Y-130731675D01*
X131765606Y-130731679D01*
X131791783Y-130770855D01*
X131792261Y-130771571D01*
X131797734Y-130789051D01*
X131807786Y-130804360D01*
X131812864Y-130837374D01*
X131813138Y-130838248D01*
X131813152Y-130839244D01*
X131814644Y-130991208D01*
X131795619Y-131058437D01*
X131784154Y-131073869D01*
X130187067Y-132907444D01*
X130128191Y-132945067D01*
X130093563Y-132950000D01*
X127644000Y-132950000D01*
X127576961Y-132930315D01*
X127531206Y-132877511D01*
X127520000Y-132826000D01*
X127520000Y-131163514D01*
X127539685Y-131096475D01*
X127555381Y-131076781D01*
X129632115Y-128955084D01*
X129693072Y-128920947D01*
X129721077Y-128917825D01*
X131671921Y-128923489D01*
G37*
G04 #@! TD.AperFunction*
G04 #@! TD*
G04 #@! TA.AperFunction,Conductor*
G04 #@! TO.N,/OE*
G36*
X138506442Y-114869685D02*
G01*
X138527084Y-114886319D01*
X138621215Y-114980450D01*
X138654700Y-115041773D01*
X138657512Y-115065796D01*
X138683425Y-116441400D01*
X138665007Y-116508798D01*
X138613074Y-116555539D01*
X138559447Y-116567735D01*
X136331967Y-116567735D01*
X136264928Y-116548050D01*
X136219173Y-116495246D01*
X136207977Y-116445337D01*
X136201510Y-115944822D01*
X136201500Y-115943220D01*
X136201500Y-114974000D01*
X136221185Y-114906961D01*
X136273989Y-114861206D01*
X136325500Y-114850000D01*
X138439403Y-114850000D01*
X138506442Y-114869685D01*
G37*
G04 #@! TD.AperFunction*
G04 #@! TD*
G04 #@! TA.AperFunction,Conductor*
G04 #@! TO.N,+5V*
G36*
X155344215Y-135539816D02*
G01*
X155390123Y-135592487D01*
X155401479Y-135644326D01*
X155401479Y-138045198D01*
X155381794Y-138112237D01*
X155328990Y-138157992D01*
X155277479Y-138169198D01*
X145574748Y-138169198D01*
X145507709Y-138149513D01*
X145461954Y-138096709D01*
X145450749Y-138044616D01*
X145460882Y-135886518D01*
X145480881Y-135819571D01*
X145533900Y-135774065D01*
X145584881Y-135763100D01*
X150152931Y-135763100D01*
X150152947Y-135763101D01*
X150160543Y-135763101D01*
X150318654Y-135763101D01*
X150318657Y-135763101D01*
X150471385Y-135722177D01*
X150521504Y-135693239D01*
X150608316Y-135643120D01*
X150687370Y-135564065D01*
X150693705Y-135559185D01*
X150719105Y-135549307D01*
X150743026Y-135536246D01*
X150756458Y-135534782D01*
X150758825Y-135533862D01*
X150760948Y-135534293D01*
X150769019Y-135533413D01*
X155277119Y-135520327D01*
X155344215Y-135539816D01*
G37*
G04 #@! TD.AperFunction*
G04 #@! TD*
G04 #@! TA.AperFunction,Conductor*
G04 #@! TO.N,/LATCH*
G36*
X69692340Y-126606781D02*
G01*
X69738312Y-126659396D01*
X69749722Y-126709885D01*
X69768114Y-128243421D01*
X69749235Y-128310692D01*
X69696983Y-128357077D01*
X69646158Y-128368891D01*
X67457690Y-128404807D01*
X67390336Y-128386225D01*
X67343721Y-128334179D01*
X67331658Y-128281515D01*
X67323037Y-126721034D01*
X67342350Y-126653891D01*
X67394900Y-126607845D01*
X67446522Y-126596354D01*
X69625220Y-126587373D01*
X69692340Y-126606781D01*
G37*
G04 #@! TD.AperFunction*
G04 #@! TD*
G04 #@! TA.AperFunction,Conductor*
G04 #@! TO.N,+5V*
G36*
X138719486Y-118609761D02*
G01*
X138786446Y-118629709D01*
X138817046Y-118657851D01*
X139233315Y-119195532D01*
X139258789Y-119260592D01*
X139259246Y-119273585D01*
X139230799Y-120918339D01*
X139209959Y-120985028D01*
X139199130Y-120998986D01*
X137898217Y-122449504D01*
X137838803Y-122486269D01*
X137805905Y-122490713D01*
X135474500Y-122490713D01*
X135407461Y-122471028D01*
X135361706Y-122418224D01*
X135350500Y-122366713D01*
X135350500Y-120825506D01*
X135370185Y-120758467D01*
X135391599Y-120733292D01*
X137722522Y-118637944D01*
X137785537Y-118607766D01*
X137805901Y-118606163D01*
X138719486Y-118609761D01*
G37*
G04 #@! TD.AperFunction*
G04 #@! TD*
G04 #@! TA.AperFunction,Conductor*
G04 #@! TO.N,+5V*
G36*
X80839945Y-82417281D02*
G01*
X80858793Y-82432154D01*
X80960717Y-82530000D01*
X82054674Y-83580199D01*
X82089403Y-83640826D01*
X82092800Y-83669651D01*
X82092800Y-86896400D01*
X82073115Y-86963439D01*
X82020311Y-87009194D01*
X81968800Y-87020400D01*
X79947945Y-87020400D01*
X79880906Y-87000715D01*
X79835151Y-86947911D01*
X79829912Y-86934402D01*
X78810367Y-83767733D01*
X78804400Y-83729731D01*
X78804400Y-82547165D01*
X78809062Y-82513484D01*
X78816197Y-82488203D01*
X78853350Y-82429031D01*
X78916597Y-82399339D01*
X78935505Y-82397884D01*
X80772903Y-82397607D01*
X80839945Y-82417281D01*
G37*
G04 #@! TD.AperFunction*
G04 #@! TD*
G04 #@! TA.AperFunction,Conductor*
G04 #@! TO.N,/CLOCK*
G36*
X86639017Y-51889685D02*
G01*
X86684772Y-51942489D01*
X86695976Y-51993358D01*
X86705053Y-53745358D01*
X86685716Y-53812498D01*
X86633150Y-53858526D01*
X86581055Y-53870000D01*
X84436429Y-53870000D01*
X84369390Y-53850315D01*
X84323635Y-53797511D01*
X84312429Y-53746000D01*
X84312429Y-51994000D01*
X84332114Y-51926961D01*
X84384918Y-51881206D01*
X84436429Y-51870000D01*
X86571978Y-51870000D01*
X86639017Y-51889685D01*
G37*
G04 #@! TD.AperFunction*
G04 #@! TD*
G04 #@! TA.AperFunction,Conductor*
G04 #@! TO.N,/CLOCK*
G36*
X135618600Y-110634437D02*
G01*
X135656503Y-110650137D01*
X135656510Y-110650138D01*
X135656511Y-110650139D01*
X135811153Y-110680899D01*
X135811156Y-110680900D01*
X137455238Y-110680900D01*
X137522277Y-110700585D01*
X137568032Y-110753389D01*
X137579237Y-110804300D01*
X137585147Y-112025200D01*
X137565787Y-112092334D01*
X137513205Y-112138344D01*
X137461148Y-112149800D01*
X135103780Y-112149800D01*
X135036741Y-112130115D01*
X134990986Y-112077311D01*
X134979780Y-112025800D01*
X134979780Y-110749000D01*
X134999465Y-110681961D01*
X135052269Y-110636206D01*
X135103780Y-110625000D01*
X135571152Y-110625000D01*
X135618600Y-110634437D01*
G37*
G04 #@! TD.AperFunction*
G04 #@! TD*
G04 #@! TA.AperFunction,Conductor*
G04 #@! TO.N,/LATCH*
G36*
X136164144Y-59070057D02*
G01*
X136210243Y-59122561D01*
X136221786Y-59174165D01*
X136231849Y-61116166D01*
X136212512Y-61183307D01*
X136159946Y-61229335D01*
X136108658Y-61240806D01*
X133284807Y-61259187D01*
X133217641Y-61239940D01*
X133171543Y-61187435D01*
X133160000Y-61135190D01*
X133160000Y-59193192D01*
X133179685Y-59126153D01*
X133232489Y-59080398D01*
X133283189Y-59069195D01*
X136096978Y-59050811D01*
X136164144Y-59070057D01*
G37*
G04 #@! TD.AperFunction*
G04 #@! TD*
M02*
