G04 #@! TF.GenerationSoftware,KiCad,Pcbnew,9.0.6*
G04 #@! TF.CreationDate,2025-11-26T10:40:33-06:00*
G04 #@! TF.ProjectId,slu,736c752e-6b69-4636-9164-5f7063625858,rev?*
G04 #@! TF.SameCoordinates,Original*
G04 #@! TF.FileFunction,Soldermask,Top*
G04 #@! TF.FilePolarity,Negative*
%FSLAX46Y46*%
G04 Gerber Fmt 4.6, Leading zero omitted, Abs format (unit mm)*
G04 Created by KiCad (PCBNEW 9.0.6) date 2025-11-26 10:40:33*
%MOMM*%
%LPD*%
G01*
G04 APERTURE LIST*
G04 Aperture macros list*
%AMRoundRect*
0 Rectangle with rounded corners*
0 $1 Rounding radius*
0 $2 $3 $4 $5 $6 $7 $8 $9 X,Y pos of 4 corners*
0 Add a 4 corners polygon primitive as box body*
4,1,4,$2,$3,$4,$5,$6,$7,$8,$9,$2,$3,0*
0 Add four circle primitives for the rounded corners*
1,1,$1+$1,$2,$3*
1,1,$1+$1,$4,$5*
1,1,$1+$1,$6,$7*
1,1,$1+$1,$8,$9*
0 Add four rect primitives between the rounded corners*
20,1,$1+$1,$2,$3,$4,$5,0*
20,1,$1+$1,$4,$5,$6,$7,0*
20,1,$1+$1,$6,$7,$8,$9,0*
20,1,$1+$1,$8,$9,$2,$3,0*%
G04 Aperture macros list end*
%ADD10C,3.000000*%
%ADD11RoundRect,0.250000X-0.550000X1.050000X-0.550000X-1.050000X0.550000X-1.050000X0.550000X1.050000X0*%
%ADD12RoundRect,0.165000X-0.385000X-0.885000X0.385000X-0.885000X0.385000X0.885000X-0.385000X0.885000X0*%
%ADD13RoundRect,0.315000X-0.735000X-0.735000X0.735000X-0.735000X0.735000X0.735000X-0.735000X0.735000X0*%
%ADD14RoundRect,0.250000X0.641131X0.277907X0.162353X0.679649X-0.641131X-0.277907X-0.162353X-0.679649X0*%
%ADD15RoundRect,0.165000X-0.885000X0.385000X-0.885000X-0.385000X0.885000X-0.385000X0.885000X0.385000X0*%
%ADD16RoundRect,0.315000X-0.735000X0.735000X-0.735000X-0.735000X0.735000X-0.735000X0.735000X0.735000X0*%
%ADD17RoundRect,0.250000X0.126561X-0.687214X0.625708X-0.311080X-0.126561X0.687214X-0.625708X0.311080X0*%
%ADD18RoundRect,0.250000X-0.312500X-0.625000X0.312500X-0.625000X0.312500X0.625000X-0.312500X0.625000X0*%
%ADD19RoundRect,0.250000X-0.463614X-0.522823X0.140090X-0.684585X0.463614X0.522823X-0.140090X0.684585X0*%
%ADD20RoundRect,0.250000X0.669770X-0.199222X0.561240X0.416283X-0.669770X0.199222X-0.561240X-0.416283X0*%
%ADD21RoundRect,0.165000X-0.898026X-0.353553X-0.353553X-0.898026X0.898026X0.353553X0.353553X0.898026X0*%
%ADD22RoundRect,0.315000X-1.039447X0.000000X0.000000X-1.039447X1.039447X0.000000X0.000000X1.039447X0*%
%ADD23RoundRect,0.250000X0.312500X0.625000X-0.312500X0.625000X-0.312500X-0.625000X0.312500X-0.625000X0*%
%ADD24RoundRect,0.162500X0.750000X0.162500X-0.750000X0.162500X-0.750000X-0.162500X0.750000X-0.162500X0*%
%ADD25RoundRect,0.250000X-0.650000X0.325000X-0.650000X-0.325000X0.650000X-0.325000X0.650000X0.325000X0*%
%ADD26RoundRect,0.165000X-0.863794X-0.430476X-0.273940X-0.925423X0.863794X0.430476X0.273940X0.925423X0*%
%ADD27RoundRect,0.315000X-1.035492X-0.090594X0.090594X-1.035492X1.035492X0.090594X-0.090594X1.035492X0*%
%ADD28RoundRect,0.200000X0.800000X-0.200000X0.800000X0.200000X-0.800000X0.200000X-0.800000X-0.200000X0*%
%ADD29RoundRect,0.250000X-0.625000X0.312500X-0.625000X-0.312500X0.625000X-0.312500X0.625000X0.312500X0*%
%ADD30RoundRect,0.165000X-0.755199X0.600936X-0.954490X-0.142827X0.755199X-0.600936X0.954490X0.142827X0*%
%ADD31RoundRect,0.315000X-0.519723X0.900187X-0.900187X-0.519723X0.519723X-0.900187X0.900187X0.519723X0*%
%ADD32RoundRect,0.165000X0.385000X0.885000X-0.385000X0.885000X-0.385000X-0.885000X0.385000X-0.885000X0*%
%ADD33RoundRect,0.315000X0.735000X0.735000X-0.735000X0.735000X-0.735000X-0.735000X0.735000X-0.735000X0*%
%ADD34RoundRect,0.165000X-0.958932X-0.109080X-0.573932X-0.775920X0.958932X0.109080X0.573932X0.775920X0*%
%ADD35RoundRect,0.315000X-1.004029X0.269029X-0.269029X-1.004029X1.004029X-0.269029X0.269029X1.004029X0*%
%ADD36RoundRect,0.250000X0.162353X-0.679649X0.641131X-0.277907X-0.162353X0.679649X-0.641131X0.277907X0*%
%ADD37RoundRect,0.250000X0.174190X-0.676712X0.645884X-0.266675X-0.174190X0.676712X-0.645884X0.266675X0*%
%ADD38RoundRect,0.162500X-0.750000X-0.162500X0.750000X-0.162500X0.750000X0.162500X-0.750000X0.162500X0*%
%ADD39RoundRect,0.250000X0.434374X-0.547358X0.698511X0.019085X-0.434374X0.547358X-0.698511X-0.019085X0*%
%ADD40RoundRect,0.250000X-0.325000X-0.650000X0.325000X-0.650000X0.325000X0.650000X-0.325000X0.650000X0*%
%ADD41RoundRect,0.250000X-0.522823X0.463614X-0.684585X-0.140090X0.522823X-0.463614X0.684585X0.140090X0*%
%ADD42RoundRect,0.165000X-0.964790X-0.025089X-0.639374X-0.722946X0.964790X0.025089X0.639374X0.722946X0*%
%ADD43RoundRect,0.315000X-0.976761X0.355512X-0.355512X-0.976761X0.976761X-0.355512X0.355512X0.976761X0*%
%ADD44RoundRect,0.162500X0.162500X-0.750000X0.162500X0.750000X-0.162500X0.750000X-0.162500X-0.750000X0*%
%ADD45RoundRect,0.250000X-0.561240X0.416283X-0.669770X-0.199222X0.561240X-0.416283X0.669770X0.199222X0*%
%ADD46RoundRect,0.165000X-0.938409X0.225472X-0.804700X-0.532830X0.938409X-0.225472X0.804700X0.532830X0*%
%ADD47RoundRect,0.315000X-0.851465X0.596202X-0.596202X-0.851465X0.851465X-0.596202X0.596202X0.851465X0*%
%ADD48RoundRect,0.165000X-0.822989X-0.504123X-0.192242X-0.945776X0.822989X0.504123X0.192242X0.945776X0*%
%ADD49RoundRect,0.315000X-1.023655X-0.180498X0.180498X-1.023655X1.023655X0.180498X-0.180498X1.023655X0*%
%ADD50RoundRect,0.165000X-0.639374X0.722946X-0.964790X0.025089X0.639374X-0.722946X0.964790X-0.025089X0*%
%ADD51RoundRect,0.315000X-0.355512X0.976761X-0.976761X-0.355512X0.355512X-0.976761X0.976761X0.355512X0*%
%ADD52RoundRect,0.250000X-0.332727X0.614470X-0.691213X0.102500X0.332727X-0.614470X0.691213X-0.102500X0*%
%ADD53RoundRect,0.165000X-0.192242X0.945776X-0.822989X0.504123X0.192242X-0.945776X0.822989X-0.504123X0*%
%ADD54RoundRect,0.315000X0.180498X1.023655X-1.023655X0.180498X-0.180498X-1.023655X1.023655X-0.180498X0*%
%ADD55RoundRect,0.250000X0.625000X-0.312500X0.625000X0.312500X-0.625000X0.312500X-0.625000X-0.312500X0*%
%ADD56RoundRect,0.165000X-0.954490X0.142827X-0.755199X-0.600936X0.954490X-0.142827X0.755199X0.600936X0*%
%ADD57RoundRect,0.315000X-0.900187X0.519723X-0.519723X-0.900187X0.900187X-0.519723X0.519723X0.900187X0*%
%ADD58RoundRect,0.165000X-0.945776X-0.192242X-0.504123X-0.822989X0.945776X0.192242X0.504123X0.822989X0*%
%ADD59RoundRect,0.315000X-1.023655X0.180498X-0.180498X-1.023655X1.023655X-0.180498X0.180498X1.023655X0*%
%ADD60RoundRect,0.165000X-0.290049X0.920501X-0.871175X0.415335X0.290049X-0.920501X0.871175X-0.415335X0*%
%ADD61RoundRect,0.315000X0.072508X1.036915X-1.036915X0.072508X-0.072508X-1.036915X1.036915X-0.072508X0*%
%ADD62RoundRect,0.250000X-0.684585X0.140090X-0.522823X-0.463614X0.684585X-0.140090X0.522823X0.463614X0*%
%ADD63RoundRect,0.250000X0.220971X-0.662913X0.662913X-0.220971X-0.220971X0.662913X-0.662913X0.220971X0*%
%ADD64RoundRect,0.250000X0.697516X0.041867X0.385016X0.583133X-0.697516X-0.041867X-0.385016X-0.583133X0*%
%ADD65RoundRect,0.165000X-0.804700X0.532830X-0.938409X-0.225472X0.804700X-0.532830X0.938409X0.225472X0*%
%ADD66RoundRect,0.315000X-0.596202X0.851465X-0.851465X-0.596202X0.596202X-0.851465X0.851465X0.596202X0*%
%ADD67RoundRect,0.250000X0.679649X0.162353X0.277907X0.641131X-0.679649X-0.162353X-0.277907X-0.641131X0*%
%ADD68RoundRect,0.250000X0.102500X-0.691213X0.614470X-0.332727X-0.102500X0.691213X-0.614470X0.332727X0*%
%ADD69RoundRect,0.165000X0.192242X-0.945776X0.822989X-0.504123X-0.192242X0.945776X-0.822989X0.504123X0*%
%ADD70RoundRect,0.315000X-0.180498X-1.023655X1.023655X-0.180498X0.180498X1.023655X-1.023655X0.180498X0*%
%ADD71RoundRect,0.250000X0.561240X-0.416283X0.669770X0.199222X-0.561240X0.416283X-0.669770X-0.199222X0*%
%ADD72RoundRect,0.250000X-0.694189X0.079891X-0.480427X-0.507417X0.694189X-0.079891X0.480427X0.507417X0*%
%ADD73RoundRect,0.250000X-0.102500X0.691213X-0.614470X0.332727X0.102500X-0.691213X0.614470X-0.332727X0*%
%ADD74RoundRect,0.250000X0.614470X0.332727X0.102500X0.691213X-0.614470X-0.332727X-0.102500X-0.691213X0*%
%ADD75RoundRect,0.165000X-0.699950X0.664469X-0.963306X-0.059094X0.699950X-0.664469X0.963306X0.059094X0*%
%ADD76RoundRect,0.315000X-0.439289X0.942059X-0.942059X-0.439289X0.439289X-0.942059X0.942059X0.439289X0*%
%ADD77RoundRect,0.250000X0.698511X-0.019085X0.434374X0.547358X-0.698511X0.019085X-0.434374X-0.547358X0*%
%ADD78RoundRect,0.165000X-0.600936X-0.755199X0.142827X-0.954490X0.600936X0.755199X-0.142827X0.954490X0*%
%ADD79RoundRect,0.315000X-0.900187X-0.519723X0.519723X-0.900187X0.900187X0.519723X-0.519723X0.900187X0*%
%ADD80RoundRect,0.165000X-0.963306X0.059094X-0.699950X-0.664469X0.963306X-0.059094X0.699950X0.664469X0*%
%ADD81RoundRect,0.315000X-0.942059X0.439289X-0.439289X-0.942059X0.942059X-0.439289X0.439289X0.942059X0*%
%ADD82RoundRect,0.250000X0.650000X-0.325000X0.650000X0.325000X-0.650000X0.325000X-0.650000X-0.325000X0*%
%ADD83RoundRect,0.250000X0.662913X0.220971X0.220971X0.662913X-0.662913X-0.220971X-0.220971X-0.662913X0*%
%ADD84C,1.600000*%
%ADD85O,1.500000X1.500000*%
%ADD86R,1.600000X1.600000*%
%ADD87RoundRect,0.250000X0.325000X0.650000X-0.325000X0.650000X-0.325000X-0.650000X0.325000X-0.650000X0*%
%ADD88RoundRect,0.165000X-0.925423X-0.273940X-0.430476X-0.863794X0.925423X0.273940X0.430476X0.863794X0*%
%ADD89RoundRect,0.315000X-1.035492X0.090594X-0.090594X-1.035492X1.035492X-0.090594X0.090594X1.035492X0*%
%ADD90RoundRect,0.165000X0.863794X0.430476X0.273940X0.925423X-0.863794X-0.430476X-0.273940X-0.925423X0*%
%ADD91RoundRect,0.315000X1.035492X0.090594X-0.090594X1.035492X-1.035492X-0.090594X0.090594X-1.035492X0*%
%ADD92RoundRect,0.165000X-0.353553X0.898026X-0.898026X0.353553X0.353553X-0.898026X0.898026X-0.353553X0*%
%ADD93RoundRect,0.315000X0.000000X1.039447X-1.039447X0.000000X0.000000X-1.039447X1.039447X0.000000X0*%
%ADD94RoundRect,0.165000X-0.273940X0.925423X-0.863794X0.430476X0.273940X-0.925423X0.863794X-0.430476X0*%
%ADD95RoundRect,0.315000X0.090594X1.035492X-1.035492X0.090594X-0.090594X-1.035492X1.035492X-0.090594X0*%
%ADD96RoundRect,0.165000X-0.573932X0.775920X-0.958932X0.109080X0.573932X-0.775920X0.958932X-0.109080X0*%
%ADD97RoundRect,0.315000X-0.269029X1.004029X-1.004029X-0.269029X0.269029X-1.004029X1.004029X0.269029X0*%
%ADD98RoundRect,0.250000X0.385016X-0.583133X0.697516X-0.041867X-0.385016X0.583133X-0.697516X0.041867X0*%
%ADD99RoundRect,0.165000X-0.208718X0.942277X-0.831661X0.489683X0.208718X-0.942277X0.831661X-0.489683X0*%
%ADD100RoundRect,0.315000X0.162605X1.026650X-1.026650X0.162605X-0.162605X-1.026650X1.026650X-0.162605X0*%
%ADD101RoundRect,0.250000X-0.691213X-0.102500X-0.332727X-0.614470X0.691213X0.102500X0.332727X0.614470X0*%
%ADD102RoundRect,0.250000X0.289054X-0.636183X0.682379X-0.150467X-0.289054X0.636183X-0.682379X0.150467X0*%
%ADD103RoundRect,0.250000X0.620184X0.321953X0.114548X0.689319X-0.620184X-0.321953X-0.114548X-0.689319X0*%
%ADD104RoundRect,0.250000X0.480427X-0.507417X0.694189X0.079891X-0.480427X0.507417X-0.694189X-0.079891X0*%
%ADD105RoundRect,0.165000X-0.430476X0.863794X-0.925423X0.273940X0.430476X-0.863794X0.925423X-0.273940X0*%
%ADD106RoundRect,0.315000X-0.090594X1.035492X-1.035492X-0.090594X0.090594X-1.035492X1.035492X0.090594X0*%
%ADD107RoundRect,0.165000X-0.504123X0.822989X-0.945776X0.192242X0.504123X-0.822989X0.945776X-0.192242X0*%
%ADD108RoundRect,0.315000X-0.180498X1.023655X-1.023655X-0.180498X0.180498X-1.023655X1.023655X0.180498X0*%
%ADD109O,1.600000X1.600000*%
G04 APERTURE END LIST*
D10*
G04 #@! TO.C,REF\u002A\u002A*
X67110000Y-50670000D03*
G04 #@! TD*
G04 #@! TO.C,REF\u002A\u002A*
X93210000Y-146460000D03*
G04 #@! TD*
D11*
G04 #@! TO.C,bc1*
X148880000Y-91470000D03*
X148880000Y-95070000D03*
G04 #@! TD*
D12*
G04 #@! TO.C,d42*
X118030000Y-116770000D03*
D13*
X120180000Y-116770000D03*
G04 #@! TD*
D14*
G04 #@! TO.C,r18*
X89830340Y-134470077D03*
X87589660Y-132589923D03*
G04 #@! TD*
D15*
G04 #@! TO.C,d9*
X129050000Y-82573333D03*
D16*
X129050000Y-84723333D03*
G04 #@! TD*
D17*
G04 #@! TO.C,r1*
X104130000Y-139300000D03*
X106466008Y-137539692D03*
G04 #@! TD*
D18*
G04 #@! TO.C,r12*
X115647500Y-65130000D03*
X118572500Y-65130000D03*
G04 #@! TD*
D15*
G04 #@! TO.C,d25*
X71340000Y-82553333D03*
D16*
X71340000Y-84703333D03*
G04 #@! TD*
D19*
G04 #@! TO.C,r15*
X109247333Y-58851477D03*
X112072667Y-59608523D03*
G04 #@! TD*
D20*
G04 #@! TO.C,r51*
X95073960Y-111110281D03*
X94566040Y-108229719D03*
G04 #@! TD*
D21*
G04 #@! TO.C,d52*
X86402477Y-109592477D03*
D22*
X87922756Y-111112756D03*
G04 #@! TD*
D18*
G04 #@! TO.C,r44*
X80047500Y-113660000D03*
X82972500Y-113660000D03*
G04 #@! TD*
D23*
G04 #@! TO.C,r34*
X78130400Y-142036800D03*
X75205400Y-142036800D03*
G04 #@! TD*
D24*
G04 #@! TO.C,ICO6*
X121140000Y-82300000D03*
X121140000Y-81030000D03*
X121140000Y-79760000D03*
X121140000Y-78490000D03*
X121140000Y-77220000D03*
X121140000Y-75950000D03*
X121140000Y-74680000D03*
X121140000Y-73410000D03*
X114965000Y-73410000D03*
X114965000Y-74680000D03*
X114965000Y-75950000D03*
X114965000Y-77220000D03*
X114965000Y-78490000D03*
X114965000Y-79760000D03*
X114965000Y-81030000D03*
X114965000Y-82300000D03*
G04 #@! TD*
D23*
G04 #@! TO.C,r32*
X95952500Y-53230000D03*
X93027500Y-53230000D03*
G04 #@! TD*
D25*
G04 #@! TO.C,c2*
X116980000Y-54785000D03*
X116980000Y-57735000D03*
G04 #@! TD*
D26*
G04 #@! TO.C,d53*
X78503500Y-104918665D03*
D27*
X80150496Y-106300658D03*
G04 #@! TD*
D18*
G04 #@! TO.C,r63*
X98637500Y-67075000D03*
X101562500Y-67075000D03*
G04 #@! TD*
D28*
G04 #@! TO.C,b1*
X148190000Y-136850000D03*
X148190000Y-132650000D03*
G04 #@! TD*
D29*
G04 #@! TO.C,r22*
X68390000Y-107667500D03*
X68390000Y-110592500D03*
G04 #@! TD*
D30*
G04 #@! TO.C,d59*
X106776818Y-91225658D03*
D31*
X106220357Y-93302400D03*
G04 #@! TD*
D12*
G04 #@! TO.C,d44*
X79950000Y-116770000D03*
D13*
X82100000Y-116770000D03*
G04 #@! TD*
D32*
G04 #@! TO.C,d55*
X86200000Y-91450000D03*
D33*
X84050000Y-91450000D03*
G04 #@! TD*
D34*
G04 #@! TO.C,d47*
X121110000Y-94899526D03*
D35*
X122185000Y-96761481D03*
G04 #@! TD*
D15*
G04 #@! TO.C,d23*
X71340000Y-99276667D03*
D16*
X71340000Y-101426667D03*
G04 #@! TD*
D23*
G04 #@! TO.C,r70*
X145052500Y-140660000D03*
X142127500Y-140660000D03*
G04 #@! TD*
G04 #@! TO.C,r21*
X73092500Y-119730000D03*
X70167500Y-119730000D03*
G04 #@! TD*
D36*
G04 #@! TO.C,r56*
X84129660Y-101070077D03*
X86370340Y-99189923D03*
G04 #@! TD*
D37*
G04 #@! TO.C,r2*
X111286237Y-134479486D03*
X113493763Y-132560514D03*
G04 #@! TD*
D38*
G04 #@! TO.C,ICO8*
X142810000Y-102380000D03*
X142810000Y-103650000D03*
X142810000Y-104920000D03*
X142810000Y-106190000D03*
X142810000Y-107460000D03*
X142810000Y-108730000D03*
X142810000Y-110000000D03*
X142810000Y-111270000D03*
X148985000Y-111270000D03*
X148985000Y-110000000D03*
X148985000Y-108730000D03*
X148985000Y-107460000D03*
X148985000Y-106190000D03*
X148985000Y-104920000D03*
X148985000Y-103650000D03*
X148985000Y-102380000D03*
G04 #@! TD*
D28*
G04 #@! TO.C,b5*
X138450000Y-146910000D03*
X138450000Y-142710000D03*
G04 #@! TD*
D39*
G04 #@! TO.C,r4*
X122011921Y-123015475D03*
X123248079Y-120364525D03*
G04 #@! TD*
D15*
G04 #@! TO.C,d24*
X71340000Y-90915000D03*
D16*
X71340000Y-93065000D03*
G04 #@! TD*
D40*
G04 #@! TO.C,c7*
X81265000Y-85290000D03*
X84215000Y-85290000D03*
G04 #@! TD*
D18*
G04 #@! TO.C,r16*
X104097500Y-53200000D03*
X107022500Y-53200000D03*
G04 #@! TD*
G04 #@! TO.C,r5*
X126827500Y-113490000D03*
X129752500Y-113490000D03*
G04 #@! TD*
D41*
G04 #@! TO.C,r59*
X103968523Y-90287333D03*
X103211477Y-93112667D03*
G04 #@! TD*
D42*
G04 #@! TO.C,d20*
X74800000Y-122000000D03*
D43*
X75708629Y-123948561D03*
G04 #@! TD*
D23*
G04 #@! TO.C,r69*
X140122500Y-140660000D03*
X137197500Y-140660000D03*
G04 #@! TD*
G04 #@! TO.C,r27*
X73622500Y-65130000D03*
X70697500Y-65130000D03*
G04 #@! TD*
D18*
G04 #@! TO.C,r11*
X126829999Y-65129999D03*
X129754999Y-65129999D03*
G04 #@! TD*
D44*
G04 #@! TO.C,ICO2*
X119417500Y-59187500D03*
X120687500Y-59187500D03*
X121957500Y-59187500D03*
X123227500Y-59187500D03*
X124497500Y-59187500D03*
X125767500Y-59187500D03*
X127037500Y-59187500D03*
X128307500Y-59187500D03*
X128307500Y-53012500D03*
X127037500Y-53012500D03*
X125767500Y-53012500D03*
X124497500Y-53012500D03*
X123227500Y-53012500D03*
X121957500Y-53012500D03*
X120687500Y-53012500D03*
X119417500Y-53012500D03*
G04 #@! TD*
D45*
G04 #@! TO.C,r58*
X102453960Y-97979719D03*
X101946040Y-100860281D03*
G04 #@! TD*
D15*
G04 #@! TO.C,d40*
X100250000Y-116770000D03*
D16*
X100250000Y-118920000D03*
G04 #@! TD*
D12*
G04 #@! TO.C,d27*
X70770000Y-68070000D03*
D13*
X72920000Y-68070000D03*
G04 #@! TD*
D46*
G04 #@! TO.C,d51*
X97477310Y-107770358D03*
D47*
X97850655Y-109887694D03*
G04 #@! TD*
D48*
G04 #@! TO.C,d49*
X111462336Y-101651408D03*
D49*
X113223513Y-102884597D03*
G04 #@! TD*
D23*
G04 #@! TO.C,r66*
X154965000Y-130500000D03*
X152040000Y-130500000D03*
G04 #@! TD*
D50*
G04 #@! TO.C,d54*
X79206308Y-94845548D03*
D51*
X78297679Y-96794109D03*
G04 #@! TD*
D52*
G04 #@! TO.C,r29*
X99388856Y-76081990D03*
X97711144Y-78478010D03*
G04 #@! TD*
D44*
G04 #@! TO.C,ICI1*
X131205000Y-136527500D03*
X132475000Y-136527500D03*
X133745000Y-136527500D03*
X135015000Y-136527500D03*
X136285000Y-136527500D03*
X137555000Y-136527500D03*
X138825000Y-136527500D03*
X140095000Y-136527500D03*
X140095000Y-130352500D03*
X138825000Y-130352500D03*
X137555000Y-130352500D03*
X136285000Y-130352500D03*
X135015000Y-130352500D03*
X133745000Y-130352500D03*
X132475000Y-130352500D03*
X131205000Y-130352500D03*
G04 #@! TD*
D15*
G04 #@! TO.C,d33*
X100340000Y-141990000D03*
D16*
X100340000Y-144140000D03*
G04 #@! TD*
D32*
G04 #@! TO.C,d12*
X118410000Y-68070000D03*
D33*
X116260000Y-68070000D03*
G04 #@! TD*
D44*
G04 #@! TO.C,ICO1*
X138797500Y-126227500D03*
X140067500Y-126227500D03*
X141337500Y-126227500D03*
X142607500Y-126227500D03*
X143877500Y-126227500D03*
X145147500Y-126227500D03*
X146417500Y-126227500D03*
X147687500Y-126227500D03*
X147687500Y-120052500D03*
X146417500Y-120052500D03*
X145147500Y-120052500D03*
X143877500Y-120052500D03*
X142607500Y-120052500D03*
X141337500Y-120052500D03*
X140067500Y-120052500D03*
X138797500Y-120052500D03*
G04 #@! TD*
D32*
G04 #@! TO.C,d11*
X129630000Y-68070000D03*
D33*
X127480000Y-68070000D03*
G04 #@! TD*
D53*
G04 #@! TO.C,d31*
X92987664Y-60831408D03*
D54*
X91226487Y-62064597D03*
G04 #@! TD*
D55*
G04 #@! TO.C,r33*
X62672500Y-142827500D03*
X62672500Y-139902500D03*
G04 #@! TD*
D56*
G04 #@! TO.C,d60*
X93533182Y-91225658D03*
D57*
X94089643Y-93302400D03*
G04 #@! TD*
D58*
G04 #@! TO.C,d36*
X95051408Y-130852336D03*
D59*
X96284597Y-132613513D03*
G04 #@! TD*
D24*
G04 #@! TO.C,ICO7*
X85807500Y-82875000D03*
X85807500Y-81605000D03*
X85807500Y-80335000D03*
X85807500Y-79065000D03*
X85807500Y-77795000D03*
X85807500Y-76525000D03*
X85807500Y-75255000D03*
X85807500Y-73985000D03*
X79632500Y-73985000D03*
X79632500Y-75255000D03*
X79632500Y-76525000D03*
X79632500Y-77795000D03*
X79632500Y-79065000D03*
X79632500Y-80335000D03*
X79632500Y-81605000D03*
X79632500Y-82875000D03*
G04 #@! TD*
D32*
G04 #@! TO.C,d41*
X107980000Y-116770000D03*
D33*
X105830000Y-116770000D03*
G04 #@! TD*
D60*
G04 #@! TO.C,d2*
X115521311Y-134870881D03*
D61*
X113898685Y-136281408D03*
G04 #@! TD*
D62*
G04 #@! TO.C,r60*
X96400000Y-89700000D03*
X97157046Y-92525334D03*
G04 #@! TD*
D15*
G04 #@! TO.C,d6*
X129050000Y-107688333D03*
D16*
X129050000Y-109838333D03*
G04 #@! TD*
D28*
G04 #@! TO.C,b2*
X153465000Y-136850000D03*
X153465000Y-132650000D03*
G04 #@! TD*
D50*
G04 #@! TO.C,d4*
X125876308Y-121915548D03*
D51*
X124967679Y-123864109D03*
G04 #@! TD*
D63*
G04 #@! TO.C,r46*
X118285856Y-104784144D03*
X120354144Y-102715856D03*
G04 #@! TD*
D15*
G04 #@! TO.C,d64*
X100100000Y-52100000D03*
D16*
X100100000Y-54250000D03*
G04 #@! TD*
D64*
G04 #@! TO.C,r47*
X119981250Y-98726562D03*
X118518750Y-96193438D03*
G04 #@! TD*
D65*
G04 #@! TO.C,d50*
X103352690Y-107770358D03*
D66*
X102979345Y-109887694D03*
G04 #@! TD*
D23*
G04 #@! TO.C,r68*
X135192500Y-140630000D03*
X132267500Y-140630000D03*
G04 #@! TD*
D55*
G04 #@! TO.C,r25*
X68360000Y-85355833D03*
X68360000Y-82430833D03*
G04 #@! TD*
D29*
G04 #@! TO.C,r24*
X68270000Y-90807500D03*
X68270000Y-93732500D03*
G04 #@! TD*
D55*
G04 #@! TO.C,r26*
X68360000Y-76994167D03*
X68360000Y-74069167D03*
G04 #@! TD*
D67*
G04 #@! TO.C,r19*
X83480077Y-128920340D03*
X81599923Y-126679660D03*
G04 #@! TD*
D48*
G04 #@! TO.C,d38*
X105802336Y-125761408D03*
D49*
X107563513Y-126994597D03*
G04 #@! TD*
D68*
G04 #@! TO.C,r14*
X108453981Y-70947712D03*
X110850001Y-69270000D03*
G04 #@! TD*
D69*
G04 #@! TO.C,d14*
X106232336Y-68838592D03*
D70*
X107993513Y-67605403D03*
G04 #@! TD*
D24*
G04 #@! TO.C,ICO5*
X71707500Y-140985000D03*
X71707500Y-139715000D03*
X71707500Y-138445000D03*
X71707500Y-137175000D03*
X71707500Y-135905000D03*
X71707500Y-134635000D03*
X71707500Y-133365000D03*
X71707500Y-132095000D03*
X65532500Y-132095000D03*
X65532500Y-133365000D03*
X65532500Y-134635000D03*
X65532500Y-135905000D03*
X65532500Y-137175000D03*
X65532500Y-138445000D03*
X65532500Y-139715000D03*
X65532500Y-140985000D03*
G04 #@! TD*
D25*
G04 #@! TO.C,c1*
X136300000Y-121625000D03*
X136300000Y-124575000D03*
G04 #@! TD*
D56*
G04 #@! TO.C,d57*
X95563182Y-99425658D03*
D57*
X96119643Y-101502400D03*
G04 #@! TD*
D23*
G04 #@! TO.C,r36*
X78130400Y-137236200D03*
X75205400Y-137236200D03*
G04 #@! TD*
D12*
G04 #@! TO.C,d16*
X104385000Y-56130000D03*
D13*
X106535000Y-56130000D03*
G04 #@! TD*
D71*
G04 #@! TO.C,r50*
X105912078Y-109990560D03*
X106419998Y-107109998D03*
G04 #@! TD*
D72*
G04 #@! TO.C,r62*
X104149796Y-82645700D03*
X105150204Y-85394300D03*
G04 #@! TD*
D29*
G04 #@! TO.C,r8*
X125950000Y-90822500D03*
X125950000Y-93747500D03*
G04 #@! TD*
D73*
G04 #@! TO.C,r37*
X93338010Y-123221144D03*
X90941990Y-124898856D03*
G04 #@! TD*
D55*
G04 #@! TO.C,r10*
X132060000Y-76922500D03*
X132060000Y-73997500D03*
G04 #@! TD*
D74*
G04 #@! TO.C,r38*
X109508010Y-124418856D03*
X107111990Y-122741144D03*
G04 #@! TD*
D65*
G04 #@! TO.C,d58*
X105082690Y-99400358D03*
D66*
X104709345Y-101517694D03*
G04 #@! TD*
D75*
G04 #@! TO.C,d61*
X93188307Y-81740812D03*
D76*
X92452964Y-83761151D03*
G04 #@! TD*
D77*
G04 #@! TO.C,r20*
X73288079Y-125685475D03*
X72051921Y-123034525D03*
G04 #@! TD*
D23*
G04 #@! TO.C,r39*
X101642500Y-128970000D03*
X98717500Y-128970000D03*
G04 #@! TD*
D73*
G04 #@! TO.C,r31*
X90938010Y-58371144D03*
X88541990Y-60048856D03*
G04 #@! TD*
D78*
G04 #@! TO.C,d15*
X106505658Y-61253182D03*
D79*
X108582400Y-61809643D03*
G04 #@! TD*
D18*
G04 #@! TO.C,r42*
X119007500Y-113920000D03*
X121932500Y-113920000D03*
G04 #@! TD*
D29*
G04 #@! TO.C,r7*
X126080000Y-99207500D03*
X126080000Y-102132500D03*
G04 #@! TD*
D18*
G04 #@! TO.C,r55*
X83397500Y-94400000D03*
X86322500Y-94400000D03*
G04 #@! TD*
D40*
G04 #@! TO.C,c3*
X62390000Y-125040000D03*
X65340000Y-125040000D03*
G04 #@! TD*
D23*
G04 #@! TO.C,r67*
X129972500Y-140610000D03*
X127047500Y-140610000D03*
G04 #@! TD*
D80*
G04 #@! TO.C,d62*
X107121693Y-81740812D03*
D81*
X107857036Y-83761151D03*
G04 #@! TD*
D23*
G04 #@! TO.C,r40*
X101812500Y-114210000D03*
X98887500Y-114210000D03*
G04 #@! TD*
D82*
G04 #@! TO.C,c9*
X128727200Y-135231400D03*
X128727200Y-132281400D03*
G04 #@! TD*
D83*
G04 #@! TO.C,r52*
X90604144Y-109514144D03*
X88535856Y-107445856D03*
G04 #@! TD*
D84*
G04 #@! TO.C,sw1*
X123342400Y-143738600D03*
D85*
X120802400Y-143738600D03*
D86*
X118262400Y-143738600D03*
G04 #@! TD*
D12*
G04 #@! TO.C,d48*
X113120000Y-91450000D03*
D13*
X115270000Y-91450000D03*
G04 #@! TD*
D18*
G04 #@! TO.C,r43*
X92427500Y-119650000D03*
X95352500Y-119650000D03*
G04 #@! TD*
D87*
G04 #@! TO.C,c8*
X147375000Y-99900000D03*
X144425000Y-99900000D03*
G04 #@! TD*
D14*
G04 #@! TO.C,r53*
X78780681Y-109000154D03*
X76540001Y-107120000D03*
G04 #@! TD*
D23*
G04 #@! TO.C,r28*
X83922500Y-64850000D03*
X80997500Y-64850000D03*
G04 #@! TD*
D74*
G04 #@! TO.C,r49*
X111949999Y-105520000D03*
X109553979Y-103842288D03*
G04 #@! TD*
D88*
G04 #@! TO.C,d19*
X79458665Y-128703500D03*
D89*
X80840658Y-130350496D03*
G04 #@! TD*
D90*
G04 #@! TO.C,d30*
X94086500Y-68931335D03*
D91*
X92439504Y-67549342D03*
G04 #@! TD*
D23*
G04 #@! TO.C,r65*
X149652500Y-130530000D03*
X146727500Y-130530000D03*
G04 #@! TD*
D44*
G04 #@! TO.C,ICO4*
X73050000Y-61210000D03*
X74320000Y-61210000D03*
X75590000Y-61210000D03*
X76860000Y-61210000D03*
X78130000Y-61210000D03*
X79400000Y-61210000D03*
X80670000Y-61210000D03*
X81940000Y-61210000D03*
X81940000Y-55035000D03*
X80670000Y-55035000D03*
X79400000Y-55035000D03*
X78130000Y-55035000D03*
X76860000Y-55035000D03*
X75590000Y-55035000D03*
X74320000Y-55035000D03*
X73050000Y-55035000D03*
G04 #@! TD*
D12*
G04 #@! TO.C,d5*
X126950000Y-116770000D03*
D13*
X129100000Y-116770000D03*
G04 #@! TD*
D55*
G04 #@! TO.C,r9*
X132100000Y-85432500D03*
X132100000Y-82507500D03*
G04 #@! TD*
D39*
G04 #@! TO.C,r54*
X75411921Y-95845475D03*
X76648079Y-93194525D03*
G04 #@! TD*
D15*
G04 #@! TO.C,d7*
X129050000Y-99316667D03*
D16*
X129050000Y-101466667D03*
G04 #@! TD*
D92*
G04 #@! TO.C,d46*
X122387523Y-104832477D03*
D93*
X120867244Y-106352756D03*
G04 #@! TD*
D94*
G04 #@! TO.C,d56*
X88076500Y-101558665D03*
D95*
X86429504Y-102940658D03*
G04 #@! TD*
D58*
G04 #@! TO.C,d13*
X103141408Y-73672336D03*
D59*
X104374597Y-75433513D03*
G04 #@! TD*
D28*
G04 #@! TO.C,b8*
X153400000Y-146910000D03*
X153400000Y-142710000D03*
G04 #@! TD*
D15*
G04 #@! TO.C,d10*
X129050000Y-74201667D03*
D16*
X129050000Y-76351667D03*
G04 #@! TD*
D29*
G04 #@! TO.C,r6*
X126210000Y-107327500D03*
X126210000Y-110252500D03*
G04 #@! TD*
D62*
G04 #@! TO.C,r57*
X98321477Y-97887333D03*
X99078523Y-100712667D03*
G04 #@! TD*
D96*
G04 #@! TO.C,d45*
X114170000Y-109379526D03*
D97*
X113095000Y-111241481D03*
G04 #@! TD*
D40*
G04 #@! TO.C,c5*
X67132500Y-143635000D03*
X70082500Y-143635000D03*
G04 #@! TD*
D18*
G04 #@! TO.C,r48*
X112887500Y-94510000D03*
X115812500Y-94510000D03*
G04 #@! TD*
D12*
G04 #@! TO.C,d21*
X71040000Y-116770000D03*
D13*
X73190000Y-116770000D03*
G04 #@! TD*
D98*
G04 #@! TO.C,r45*
X115318750Y-113306562D03*
X116781250Y-110773438D03*
G04 #@! TD*
D99*
G04 #@! TO.C,d1*
X108322087Y-139992214D03*
D100*
X106582700Y-141255952D03*
G04 #@! TD*
D15*
G04 #@! TO.C,d26*
X71340000Y-74191667D03*
D16*
X71340000Y-76341667D03*
G04 #@! TD*
D18*
G04 #@! TO.C,r41*
X105177500Y-113900000D03*
X108102500Y-113900000D03*
G04 #@! TD*
D23*
G04 #@! TO.C,r72*
X154922500Y-140640000D03*
X151997500Y-140640000D03*
G04 #@! TD*
D101*
G04 #@! TO.C,r13*
X106201144Y-72931990D03*
X107878856Y-75328010D03*
G04 #@! TD*
D28*
G04 #@! TO.C,b4*
X133600000Y-146910000D03*
X133600000Y-142710000D03*
G04 #@! TD*
D15*
G04 #@! TO.C,d34*
X100270000Y-134990000D03*
D16*
X100270000Y-137140000D03*
G04 #@! TD*
D15*
G04 #@! TO.C,d22*
X71340000Y-107638333D03*
D16*
X71340000Y-109788333D03*
G04 #@! TD*
D15*
G04 #@! TO.C,d39*
X100250000Y-123800000D03*
D16*
X100250000Y-125950000D03*
G04 #@! TD*
D24*
G04 #@! TO.C,ICO3*
X67042500Y-122575000D03*
X67042500Y-121305000D03*
X67042500Y-120035000D03*
X67042500Y-118765000D03*
X67042500Y-117495000D03*
X67042500Y-116225000D03*
X67042500Y-114955000D03*
X67042500Y-113685000D03*
X60867500Y-113685000D03*
X60867500Y-114955000D03*
X60867500Y-116225000D03*
X60867500Y-117495000D03*
X60867500Y-118765000D03*
X60867500Y-120035000D03*
X60867500Y-121305000D03*
X60867500Y-122575000D03*
G04 #@! TD*
D26*
G04 #@! TO.C,d18*
X85493004Y-134848007D03*
D27*
X87140000Y-136230000D03*
G04 #@! TD*
D28*
G04 #@! TO.C,b7*
X148325000Y-146910000D03*
X148325000Y-142710000D03*
G04 #@! TD*
D14*
G04 #@! TO.C,r30*
X92170340Y-71240077D03*
X89929660Y-69359923D03*
G04 #@! TD*
D96*
G04 #@! TO.C,d35*
X105600000Y-130789526D03*
D97*
X104525000Y-132651481D03*
G04 #@! TD*
D102*
G04 #@! TO.C,r3*
X117219619Y-128866576D03*
X119060381Y-126593424D03*
G04 #@! TD*
D53*
G04 #@! TO.C,d37*
X95037664Y-125761408D03*
D54*
X93276487Y-126994597D03*
G04 #@! TD*
D15*
G04 #@! TO.C,d63*
X100175000Y-61985000D03*
D16*
X100175000Y-64135000D03*
G04 #@! TD*
D25*
G04 #@! TO.C,c4*
X70700000Y-56675000D03*
X70700000Y-59625000D03*
G04 #@! TD*
D28*
G04 #@! TO.C,b3*
X128400000Y-146910000D03*
X128400000Y-142710000D03*
G04 #@! TD*
D15*
G04 #@! TO.C,d8*
X129050000Y-90945000D03*
D16*
X129050000Y-93095000D03*
G04 #@! TD*
D18*
G04 #@! TO.C,r64*
X98587500Y-57375000D03*
X101512500Y-57375000D03*
G04 #@! TD*
D12*
G04 #@! TO.C,d43*
X92470000Y-116770000D03*
D13*
X94620000Y-116770000D03*
G04 #@! TD*
D29*
G04 #@! TO.C,r23*
X68270000Y-99407500D03*
X68270000Y-102332500D03*
G04 #@! TD*
D12*
G04 #@! TO.C,d32*
X93355000Y-56130000D03*
D13*
X95505000Y-56130000D03*
G04 #@! TD*
D48*
G04 #@! TO.C,d17*
X92712336Y-139981408D03*
D49*
X94473513Y-141214597D03*
G04 #@! TD*
D103*
G04 #@! TO.C,r17*
X96913187Y-139359636D03*
X94546813Y-137640364D03*
G04 #@! TD*
D12*
G04 #@! TO.C,d28*
X81360000Y-68070000D03*
D13*
X83510000Y-68070000D03*
G04 #@! TD*
D28*
G04 #@! TO.C,b6*
X143450000Y-146910000D03*
X143450000Y-142710000D03*
G04 #@! TD*
D104*
G04 #@! TO.C,r61*
X95109796Y-85394300D03*
X96110204Y-82645700D03*
G04 #@! TD*
D105*
G04 #@! TO.C,d3*
X121341335Y-128703500D03*
D106*
X119959342Y-130350496D03*
G04 #@! TD*
D86*
G04 #@! TO.C,J1*
X141260000Y-53600000D03*
D84*
X143800000Y-53600000D03*
X146340000Y-53600000D03*
X148880000Y-53600000D03*
X151420000Y-53600000D03*
G04 #@! TD*
D107*
G04 #@! TO.C,d29*
X97418592Y-73727336D03*
D108*
X96185403Y-75488513D03*
G04 #@! TD*
D23*
G04 #@! TO.C,r35*
X78130400Y-139649200D03*
X75205400Y-139649200D03*
G04 #@! TD*
D40*
G04 #@! TO.C,c6*
X116545000Y-84800000D03*
X119495000Y-84800000D03*
G04 #@! TD*
D23*
G04 #@! TO.C,r71*
X149972500Y-140640000D03*
X147047500Y-140640000D03*
G04 #@! TD*
D109*
G04 #@! TO.C,a1*
X138650000Y-91800000D03*
X138650000Y-89260000D03*
X138650000Y-86720000D03*
D86*
X138650000Y-84180000D03*
D109*
X138650000Y-81640000D03*
X138650000Y-79100000D03*
X138650000Y-76560000D03*
X138650000Y-74020000D03*
X138650000Y-71480000D03*
X138650000Y-68940000D03*
X138650000Y-66400000D03*
X138650000Y-63860000D03*
X138650000Y-61320000D03*
X138650000Y-58780000D03*
X138650000Y-56240000D03*
X153890000Y-56240000D03*
X153890000Y-58780000D03*
X153890000Y-61320000D03*
X153890000Y-63860000D03*
X153890000Y-66400000D03*
X153890000Y-68940000D03*
X153890000Y-71480000D03*
X153890000Y-74020000D03*
X153890000Y-76560000D03*
X153890000Y-79100000D03*
X153890000Y-81640000D03*
X153890000Y-84180000D03*
X153890000Y-86720000D03*
D86*
X153890000Y-89260000D03*
D109*
X153890000Y-91800000D03*
G04 #@! TD*
M02*
