M48
; DRILL file {KiCad 9.0.6} date 2025-11-26T10:40:33-0600
; FORMAT={-:-/ absolute / metric / decimal}
; #@! TF.CreationDate,2025-11-26T10:40:33-06:00
; #@! TF.GenerationSoftware,Kicad,Pcbnew,9.0.6
; #@! TF.FileFunction,Plated,1,2,PTH
FMAT,2
METRIC
; #@! TA.AperFunction,Plated,PTH,ViaDrill
T1C0.300
; #@! TA.AperFunction,Plated,PTH,ComponentDrill
T2C0.800
; #@! TA.AperFunction,Plated,PTH,ComponentDrill
T3C1.000
%
G90
G05
T1
X59.455Y-113.541
X60.0Y-123.0
X60.03Y-120.98
X61.26Y-119.626
X61.696Y-113.971
X61.719Y-117.649
X61.747Y-115.875
X61.798Y-118.542
X62.39Y-125.04
X62.861Y-82.45
X62.861Y-93.7
X62.861Y-111.658
X63.6Y-143.4
X65.532Y-140.985
X65.786Y-62.95
X65.989Y-73.076
X66.146Y-130.33
X66.146Y-133.35
X66.23Y-111.51
X66.269Y-114.955
X66.591Y-120.86
X67.043Y-116.225
X67.043Y-117.495
X67.132Y-143.635
X67.39Y-122.227
X67.61Y-125.34
X67.62Y-120.07
X67.664Y-119.192
X67.996Y-59.766
X68.05Y-129.96
X68.07Y-127.35
X68.3Y-131.64
X68.68Y-125.34
X68.93Y-129.92
X69.063Y-102.337
X69.078Y-127.358
X69.47Y-114.45
X70.129Y-119.691
X70.333Y-62.95
X70.7Y-56.675
X70.79Y-65.13
X71.707Y-140.985
X71.78Y-139.751
X71.806Y-138.506
X72.052Y-123.035
X72.341Y-111.879
X72.64Y-56.19
X73.05Y-61.341
X73.12Y-133.356
X73.692Y-118.32
X74.155Y-119.225
X74.19Y-55.84
X74.32Y-61.21
X74.51Y-137.36
X74.701Y-138.786
X74.701Y-141.199
X75.553Y-54.369
X75.59Y-61.21
X76.352Y-133.53
X76.54Y-107.12
X76.657Y-93.167
X76.86Y-61.21
X77.2Y-55.5
X78.13Y-55.085
X78.13Y-61.21
X78.13Y-143.88
X79.193Y-137.423
X79.207Y-133.54
X79.4Y-55.085
X79.4Y-61.21
X79.4Y-119.67
X79.478Y-136.676
X79.612Y-81.585
X79.632Y-76.525
X79.632Y-77.795
X79.64Y-120.455
X79.832Y-83.236
X79.968Y-133.786
X80.0Y-140.9
X80.096Y-52.281
X80.239Y-73.832
X80.351Y-134.571
X80.525Y-64.071
X80.67Y-61.21
X80.77Y-135.434
X80.908Y-77.227
X81.265Y-86.182
X81.37Y-136.06
X81.492Y-77.861
X81.778Y-53.06
X82.322Y-57.245
X82.782Y-95.717
X82.83Y-125.55
X82.977Y-53.503
X83.007Y-112.751
X83.191Y-98.3
X83.263Y-56.7
X83.3Y-54.235
X83.776Y-55.425
X84.288Y-69.963
X84.49Y-61.903
X84.565Y-61.096
X84.586Y-128.098
X84.83Y-60.272
X85.073Y-69.743
X85.123Y-77.782
X85.339Y-60.89
X85.49Y-52.53
X85.592Y-129.464
X85.68Y-57.86
X85.787Y-128.257
X85.807Y-76.525
X85.807Y-80.335
X85.807Y-81.605
X85.807Y-82.875
X85.862Y-68.542
X86.06Y-53.37
X86.16Y-55.51
X86.268Y-78.902
X86.274Y-69.677
X86.4Y-127.68
X86.415Y-58.465
X86.436Y-75.336
X86.608Y-129.517
X86.663Y-61.449
X86.917Y-69.201
X87.05Y-128.85
X87.105Y-63.492
X87.16Y-55.18
X87.464Y-68.186
X87.555Y-62.83
X87.78Y-131.65
X88.186Y-67.84
X88.536Y-107.446
X89.473Y-54.061
X89.615Y-69.675
X89.675Y-52.975
X89.93Y-60.54
X90.07Y-51.701
X90.272Y-87.833
X90.37Y-124.2
X91.831Y-52.34
X91.965Y-53.75
X92.923Y-136.56
X93.027Y-53.75
X93.104Y-51.347
X93.396Y-77.165
X93.791Y-50.938
X93.825Y-108.575
X94.09Y-93.302
X94.486Y-50.542
X94.687Y-133.035
X95.03Y-120.58
X95.301Y-132.436
X96.12Y-101.502
X96.4Y-89.7
X96.52Y-77.51
X97.77Y-127.88
X97.96Y-92.62
X98.2Y-97.9
X98.7Y-121.25
X98.704Y-119.95
X98.887Y-114.21
X98.955Y-145.373
X99.28Y-140.19
X99.79Y-145.3
X100.25Y-118.92
X100.27Y-137.14
X100.9Y-88.2
X101.552Y-58.38
X101.552Y-68.03
X101.702Y-131.47
X101.812Y-114.21
X102.5Y-98.0
X103.211Y-93.113
X103.37Y-103.052
X104.169Y-103.094
X104.709Y-101.518
X104.77Y-87.7
X105.204Y-104.914
X105.461Y-132.385
X105.91Y-122.05
X106.405Y-104.731
X106.42Y-107.11
X106.608Y-137.67
X106.822Y-103.934
X107.022Y-53.75
X107.484Y-101.348
X107.621Y-103.916
X107.671Y-100.57
X108.102Y-113.9
X108.381Y-103.281
X108.41Y-74.36
X108.822Y-103.976
X108.85Y-97.53
X108.913Y-99.895
X109.52Y-64.797
X109.65Y-97.53
X110.14Y-143.16
X110.45Y-97.53
X110.501Y-54.952
X110.725Y-52.145
X110.732Y-81.688
X111.058Y-82.427
X111.216Y-53.35
X111.25Y-97.53
X111.291Y-83.193
X111.301Y-54.952
X111.569Y-83.943
X111.73Y-69.62
X111.86Y-64.416
X112.073Y-59.609
X112.119Y-73.37
X112.119Y-74.17
X112.761Y-74.819
X113.134Y-79.818
X113.319Y-73.369
X113.494Y-132.561
X113.746Y-74.045
X114.211Y-57.85
X114.352Y-79.816
X114.39Y-73.19
X115.05Y-82.7
X115.4Y-59.6
X115.42Y-75.55
X115.92Y-81.08
X116.185Y-75.316
X116.401Y-74.545
X116.434Y-61.874
X116.5Y-88.4
X116.545Y-84.59
X116.698Y-70.817
X116.7Y-94.5
X116.781Y-110.773
X116.98Y-54.785
X117.05Y-98.45
X117.303Y-71.343
X117.85Y-94.726
X118.11Y-71.616
X118.391Y-72.365
X118.572Y-64.225
X118.875Y-53.9
X118.95Y-97.53
X119.189Y-72.418
X119.417Y-59.188
X119.59Y-127.41
X119.6Y-61.674
X120.354Y-102.716
X120.399Y-53.756
X120.688Y-59.188
X120.81Y-81.36
X121.1Y-80.15
X121.14Y-82.3
X121.153Y-67.948
X121.398Y-98.913
X121.505Y-68.835
X121.932Y-113.92
X121.957Y-53.012
X122.123Y-91.897
X122.198Y-65.196
X122.273Y-68.612
X122.5Y-132.05
X122.69Y-63.882
X122.751Y-69.257
X122.911Y-98.161
X122.915Y-92.149
X122.926Y-75.147
X122.998Y-65.196
X123.086Y-69.984
X123.227Y-53.348
X123.227Y-59.188
X123.307Y-147.117
X123.367Y-94.629
X123.452Y-75.75
X123.7Y-118.0
X123.709Y-62.57
X123.728Y-92.319
X123.75Y-121.2
X123.771Y-65.403
X123.967Y-95.25
X124.268Y-64.572
X124.497Y-53.348
X124.497Y-59.188
X124.509Y-62.57
X124.566Y-65.314
X124.617Y-92.446
X124.768Y-91.66
X125.02Y-65.998
X125.389Y-62.778
X125.476Y-75.235
X125.767Y-53.348
X125.767Y-59.188
X125.775Y-57.775
X125.819Y-66.041
X125.87Y-72.28
X126.0Y-91.3
X126.08Y-102.132
X126.626Y-94.81
X127.0Y-57.675
X127.037Y-59.188
X127.316Y-62.017
X127.398Y-96.787
X127.5Y-92.7
X127.586Y-63.898
X127.93Y-62.631
X128.004Y-96.266
X128.01Y-125.426
X128.15Y-127.428
X128.308Y-52.546
X128.321Y-146.914
X128.358Y-92.442
X128.4Y-64.977
X128.4Y-142.71
X128.448Y-54.425
X128.727Y-132.281
X128.778Y-96.062
X128.94Y-61.895
X129.144Y-52.119
X129.532Y-54.15
X129.55Y-64.575
X129.83Y-115.01
X129.997Y-52.119
X130.207Y-53.72
X130.35Y-139.65
X130.439Y-141.492
X130.797Y-52.119
X130.9Y-130.3
X131.035Y-140.958
X131.09Y-114.32
X131.15Y-139.65
X131.572Y-136.931
X132.06Y-73.998
X132.274Y-95.708
X132.279Y-97.305
X132.296Y-94.109
X132.312Y-94.909
X132.325Y-96.507
X132.37Y-62.536
X132.401Y-63.335
X132.475Y-130.352
X132.475Y-136.528
X132.5Y-107.2
X133.06Y-82.507
X133.222Y-64.977
X133.455Y-117.776
X133.502Y-146.914
X133.574Y-57.683
X133.7Y-62.8
X133.85Y-121.5
X133.9Y-60.579
X133.926Y-131.046
X133.94Y-64.624
X133.959Y-136.742
X134.206Y-65.691
X134.215Y-116.839
X134.315Y-94.234
X134.45Y-99.95
X134.6Y-62.8
X134.633Y-106.317
X134.7Y-55.85
X135.015Y-136.528
X135.026Y-131.013
X135.3Y-60.0
X135.425Y-57.675
X135.5Y-55.85
X135.687Y-73.355
X135.775Y-111.35
X135.85Y-140.05
X136.22Y-109.08
X136.285Y-130.103
X136.285Y-136.528
X136.3Y-121.625
X136.65Y-113.35
X136.7Y-94.9
X136.7Y-95.7
X136.7Y-96.5
X136.7Y-97.3
X136.7Y-111.4
X136.87Y-115.55
X137.282Y-108.886
X137.555Y-129.692
X137.555Y-136.388
X137.586Y-94.868
X137.641Y-113.475
X137.66Y-116.188
X137.728Y-80.583
X138.04Y-57.46
X138.071Y-109.02
X138.364Y-60.048
X138.4Y-120.05
X138.45Y-146.91
X138.797Y-126.227
X138.989Y-135.585
X139.192Y-108.444
X139.318Y-124.92
X139.409Y-80.289
X139.699Y-140.66
X140.067Y-120.052
X140.067Y-126.227
X141.159Y-93.827
X141.338Y-120.052
X141.338Y-126.227
X141.789Y-102.75
X141.9Y-91.27
X142.135Y-92.038
X142.201Y-90.528
X142.214Y-109.555
X142.607Y-126.227
X142.63Y-89.853
X142.81Y-104.92
X142.81Y-106.19
X142.81Y-107.46
X142.81Y-108.73
X142.812Y-92.465
X143.003Y-89.105
X143.395Y-103.976
X143.404Y-88.387
X143.45Y-142.71
X143.45Y-146.91
X143.805Y-84.308
X144.06Y-87.276
X144.206Y-86.451
X144.901Y-96.897
X145.147Y-126.227
X145.215Y-94.866
X145.304Y-83.555
X145.785Y-118.831
X146.417Y-126.227
X146.541Y-118.57
X147.375Y-99.9
X147.688Y-120.052
X148.006Y-102.565
X148.149Y-103.784
X148.149Y-104.623
X148.149Y-106.07
X148.149Y-107.137
X148.184Y-136.881
X148.19Y-132.492
X148.234Y-108.285
X148.325Y-142.71
X148.336Y-146.964
X148.567Y-114.923
X148.9Y-84.3
X149.475Y-65.2
X149.504Y-75.209
X149.528Y-115.479
X149.558Y-114.216
X150.02Y-132.265
X150.318Y-115.605
X150.355Y-114.279
X150.78Y-136.89
X150.81Y-146.93
X150.89Y-85.87
X151.146Y-114.161
X151.292Y-120.173
X151.294Y-120.973
X151.79Y-142.74
X152.9Y-80.4
X153.416Y-146.914
X153.441Y-136.906
X153.696Y-119.91
X153.696Y-120.712
T2
X118.262Y-143.739
X120.802Y-143.739
X123.342Y-143.739
T3
X138.65Y-56.24
X138.65Y-58.78
X138.65Y-61.32
X138.65Y-63.86
X138.65Y-66.4
X138.65Y-68.94
X138.65Y-71.48
X138.65Y-74.02
X138.65Y-76.56
X138.65Y-79.1
X138.65Y-81.64
X138.65Y-84.18
X138.65Y-86.72
X138.65Y-89.26
X138.65Y-91.8
X141.26Y-53.6
X143.8Y-53.6
X146.34Y-53.6
X148.88Y-53.6
X151.42Y-53.6
X153.89Y-56.24
X153.89Y-58.78
X153.89Y-61.32
X153.89Y-63.86
X153.89Y-66.4
X153.89Y-68.94
X153.89Y-71.48
X153.89Y-74.02
X153.89Y-76.56
X153.89Y-79.1
X153.89Y-81.64
X153.89Y-84.18
X153.89Y-86.72
X153.89Y-89.26
X153.89Y-91.8
M30
